<?xml version="1.0" encoding="UTF-8" standalone="no"?>
<!DOCTYPE svg PUBLIC "-//W3C//DTD SVG 1.1//EN"
 "http://www.w3.org/Graphics/SVG/1.1/DTD/svg11.dtd">
<!-- Generated by graphviz version 2.46.0 (20210118.1747)
 -->
<!-- Title: dependency&#45;cruiser output Pages: 1 -->
<svg width="475pt" height="448pt"
 viewBox="0.00 0.00 475.00 448.00" xmlns="http://www.w3.org/2000/svg" xmlns:xlink="http://www.w3.org/1999/xlink">
<g id="graph0" class="graph" transform="scale(1 1) rotate(0) translate(4 444)">
<title>dependency&#45;cruiser output</title>
<polygon fill="white" stroke="transparent" points="-4,4 -4,-444 471,-444 471,4 -4,4"/>
<g id="clust1" class="cluster">
<title>cluster_src</title>
<path fill="#ffffff" stroke="black" stroke-width="2" d="M20,-8C20,-8 447,-8 447,-8 453,-8 459,-14 459,-20 459,-20 459,-420 459,-420 459,-426 453,-432 447,-432 447,-432 20,-432 20,-432 14,-432 8,-426 8,-420 8,-420 8,-20 8,-20 8,-14 14,-8 20,-8"/>
<text text-anchor="middle" x="233.5" y="-420.8" font-family="Helvetica,sans-Serif" font-weight="bold" font-size="9.00">src</text>
</g>
<g id="clust2" class="cluster">
<title>cluster_src/LocalDiscoveryServer</title>
<path fill="#ffffff" stroke="black" stroke-width="2" d="M210,-300C210,-300 318,-300 318,-300 324,-300 330,-306 330,-312 330,-312 330,-340 330,-340 330,-346 324,-352 318,-352 318,-352 210,-352 210,-352 204,-352 198,-346 198,-340 198,-340 198,-312 198,-312 198,-306 204,-300 210,-300"/>
<text text-anchor="middle" x="264" y="-340.8" font-family="Helvetica,sans-Serif" font-weight="bold" font-size="9.00">LocalDiscoveryServer</text>
</g>
<g id="clust3" class="cluster">
<title>cluster_src/machines</title>
<path fill="#ffffff" stroke="black" stroke-width="2" d="M200,-16C200,-16 328,-16 328,-16 334,-16 340,-22 340,-28 340,-28 340,-210 340,-210 340,-216 334,-222 328,-222 328,-222 200,-222 200,-222 194,-222 188,-216 188,-210 188,-210 188,-28 188,-28 188,-22 194,-16 200,-16"/>
<text text-anchor="middle" x="264" y="-210.8" font-family="Helvetica,sans-Serif" font-weight="bold" font-size="9.00">machines</text>
</g>
<g id="clust4" class="cluster">
<title>cluster_src/machines/machinetool</title>
<path fill="#ffffff" stroke="black" stroke-width="2" d="M208,-144C208,-144 320,-144 320,-144 326,-144 332,-150 332,-156 332,-156 332,-184 332,-184 332,-190 326,-196 320,-196 320,-196 208,-196 208,-196 202,-196 196,-190 196,-184 196,-184 196,-156 196,-156 196,-150 202,-144 208,-144"/>
<text text-anchor="middle" x="264" y="-184.8" font-family="Helvetica,sans-Serif" font-weight="bold" font-size="9.00">machinetool</text>
</g>
<g id="clust6" class="cluster">
<title>cluster_src/machines/sample_imm</title>
<path fill="#ffffff" stroke="black" stroke-width="2" d="M227,-84C227,-84 301,-84 301,-84 307,-84 313,-90 313,-96 313,-96 313,-124 313,-124 313,-130 307,-136 301,-136 301,-136 227,-136 227,-136 221,-136 215,-130 215,-124 215,-124 215,-96 215,-96 215,-90 221,-84 227,-84"/>
<text text-anchor="middle" x="264" y="-124.8" font-family="Helvetica,sans-Serif" font-weight="bold" font-size="9.00">sample_imm</text>
</g>
<g id="clust5" class="cluster">
<title>cluster_src/machines/mymachine</title>
<path fill="#ffffff" stroke="black" stroke-width="2" d="M231,-24C231,-24 297,-24 297,-24 303,-24 309,-30 309,-36 309,-36 309,-64 309,-64 309,-70 303,-76 297,-76 297,-76 231,-76 231,-76 225,-76 219,-70 219,-64 219,-64 219,-36 219,-36 219,-30 225,-24 231,-24"/>
<text text-anchor="middle" x="264" y="-64.8" font-family="Helvetica,sans-Serif" font-weight="bold" font-size="9.00">mymachine</text>
</g>
<g id="clust7" class="cluster">
<title>cluster_src/serveraddressspace</title>
<path fill="#ffffff" stroke="black" stroke-width="2" d="M212,-230C212,-230 316,-230 316,-230 322,-230 328,-236 328,-242 328,-242 328,-270 328,-270 328,-276 322,-282 316,-282 316,-282 212,-282 212,-282 206,-282 200,-276 200,-270 200,-270 200,-242 200,-242 200,-236 206,-230 212,-230"/>
<text text-anchor="middle" x="264" y="-270.8" font-family="Helvetica,sans-Serif" font-weight="bold" font-size="9.00">serveraddressspace</text>
</g>
<g id="clust8" class="cluster">
<title>cluster_src/test</title>
<path fill="#ffffff" stroke="black" stroke-width="2" d="M28,-354C28,-354 74,-354 74,-354 80,-354 86,-360 86,-366 86,-366 86,-394 86,-394 86,-400 80,-406 74,-406 74,-406 28,-406 28,-406 22,-406 16,-400 16,-394 16,-394 16,-366 16,-366 16,-360 22,-354 28,-354"/>
<text text-anchor="middle" x="51" y="-394.8" font-family="Helvetica,sans-Serif" font-weight="bold" font-size="9.00">test</text>
</g>
<g id="clust9" class="cluster">
<title>cluster_src/utils</title>
<path fill="#ffffff" stroke="black" stroke-width="2" d="M375,-314C375,-314 424,-314 424,-314 430,-314 436,-320 436,-326 436,-326 436,-384 436,-384 436,-390 430,-396 424,-396 424,-396 375,-396 375,-396 369,-396 363,-390 363,-384 363,-384 363,-326 363,-326 363,-320 369,-314 375,-314"/>
<text text-anchor="middle" x="399.5" y="-384.8" font-family="Helvetica,sans-Serif" font-weight="bold" font-size="9.00">utils</text>
</g>
<!-- src/LocalDiscoveryServer/local&#45;discovery&#45;server.ts -->
<g id="node1" class="node">
<title>src/LocalDiscoveryServer/local&#45;discovery&#45;server.ts</title>
<g id="a_node1"><a xlink:href="src/LocalDiscoveryServer/local-discovery-server.ts" xlink:title="local&#45;discovery&#45;server.ts">
<path fill="#ddfeff" stroke="black" d="M316,-326C316,-326 212,-326 212,-326 209,-326 206,-323 206,-320 206,-320 206,-314 206,-314 206,-311 209,-308 212,-308 212,-308 316,-308 316,-308 319,-308 322,-311 322,-314 322,-314 322,-320 322,-320 322,-323 319,-326 316,-326"/>
<text text-anchor="middle" x="264" y="-314.8" font-family="Helvetica,sans-Serif" font-size="9.00">local&#45;discovery&#45;server.ts</text>
</a>
</g>
</g>
<!-- src/utils/log.ts -->
<g id="node2" class="node">
<title>src/utils/log.ts</title>
<g id="a_node2"><a xlink:href="src/utils/log.ts" xlink:title="log.ts">
<path fill="#ddfeff" stroke="black" d="M420.5,-370C420.5,-370 378.5,-370 378.5,-370 375.5,-370 372.5,-367 372.5,-364 372.5,-364 372.5,-358 372.5,-358 372.5,-355 375.5,-352 378.5,-352 378.5,-352 420.5,-352 420.5,-352 423.5,-352 426.5,-355 426.5,-358 426.5,-358 426.5,-364 426.5,-364 426.5,-367 423.5,-370 420.5,-370"/>
<text text-anchor="middle" x="399.5" y="-358.8" font-family="Helvetica,sans-Serif" font-size="9.00">log.ts</text>
</a>
</g>
</g>
<!-- src/LocalDiscoveryServer/local&#45;discovery&#45;server.ts&#45;&gt;src/utils/log.ts -->
<g id="edge1" class="edge">
<title>src/LocalDiscoveryServer/local&#45;discovery&#45;server.ts&#45;&gt;src/utils/log.ts</title>
<path fill="none" stroke="#000000" stroke-width="2" stroke-opacity="0.200000" d="M322.23,-321.05C328.61,-323.16 334.7,-326.06 340,-330 346.38,-334.74 341.91,-340.89 348,-346 353.26,-350.41 359.77,-353.52 366.35,-355.72"/>
<polygon fill="#000000" fill-opacity="0.200000" stroke="#000000" stroke-width="2" stroke-opacity="0.200000" points="366.03,-357.82 372.38,-357.49 367.22,-353.79 366.03,-357.82"/>
</g>
<!-- src/addressspace.ts -->
<g id="node3" class="node">
<title>src/addressspace.ts</title>
<g id="a_node3"><a xlink:href="src/addressspace.ts" xlink:title="addressspace.ts">
<path fill="#ddfeff" stroke="black" d="M174,-213C174,-213 100,-213 100,-213 97,-213 94,-210 94,-207 94,-207 94,-201 94,-201 94,-198 97,-195 100,-195 100,-195 174,-195 174,-195 177,-195 180,-198 180,-201 180,-201 180,-207 180,-207 180,-210 177,-213 174,-213"/>
<text text-anchor="middle" x="137" y="-201.8" font-family="Helvetica,sans-Serif" font-size="9.00">addressspace.ts</text>
</a>
</g>
</g>
<!-- src/addressspace.ts&#45;&gt;src/utils/log.ts -->
<g id="edge6" class="edge">
<title>src/addressspace.ts&#45;&gt;src/utils/log.ts</title>
<path fill="none" stroke="#000000" stroke-width="2" stroke-opacity="0.200000" d="M140.56,-213.01C146.03,-230.39 160.64,-268.29 188,-285 216.92,-302.66 315.07,-274.06 340,-297 356.24,-311.94 333.42,-329.44 348,-346 352.82,-351.47 359.53,-354.99 366.49,-357.24"/>
<polygon fill="#000000" fill-opacity="0.200000" stroke="#000000" stroke-width="2" stroke-opacity="0.200000" points="366.01,-359.29 372.36,-358.85 367.12,-355.24 366.01,-359.29"/>
</g>
<!-- src/machines/machinetool/showcasemachinetool.ts -->
<g id="node4" class="node">
<title>src/machines/machinetool/showcasemachinetool.ts</title>
<g id="a_node4"><a xlink:href="src/machines/machinetool/showcasemachinetool.ts" xlink:title="showcasemachinetool.ts">
<path fill="#ddfeff" stroke="black" d="M318,-170C318,-170 210,-170 210,-170 207,-170 204,-167 204,-164 204,-164 204,-158 204,-158 204,-155 207,-152 210,-152 210,-152 318,-152 318,-152 321,-152 324,-155 324,-158 324,-158 324,-164 324,-164 324,-167 321,-170 318,-170"/>
<text text-anchor="middle" x="264" y="-158.8" font-family="Helvetica,sans-Serif" font-size="9.00">showcasemachinetool.ts</text>
</a>
</g>
</g>
<!-- src/addressspace.ts&#45;&gt;src/machines/machinetool/showcasemachinetool.ts -->
<g id="edge2" class="edge">
<title>src/addressspace.ts&#45;&gt;src/machines/machinetool/showcasemachinetool.ts</title>
<path fill="none" stroke="#000000" stroke-width="2" stroke-opacity="0.200000" d="M164.2,-194.99C183.7,-188.28 210.42,-179.09 231.15,-171.96"/>
<polygon fill="#000000" fill-opacity="0.200000" stroke="#000000" stroke-width="2" stroke-opacity="0.200000" points="231.84,-173.94 236.83,-170 230.47,-169.97 231.84,-173.94"/>
</g>
<!-- src/machines/mymachine/mymachine.ts -->
<g id="node5" class="node">
<title>src/machines/mymachine/mymachine.ts</title>
<g id="a_node5"><a xlink:href="src/machines/mymachine/mymachine.ts" xlink:title="mymachine.ts">
<path fill="#ddfeff" stroke="black" d="M295,-50C295,-50 233,-50 233,-50 230,-50 227,-47 227,-44 227,-44 227,-38 227,-38 227,-35 230,-32 233,-32 233,-32 295,-32 295,-32 298,-32 301,-35 301,-38 301,-38 301,-44 301,-44 301,-47 298,-50 295,-50"/>
<text text-anchor="middle" x="264" y="-38.8" font-family="Helvetica,sans-Serif" font-size="9.00">mymachine.ts</text>
</a>
</g>
</g>
<!-- src/addressspace.ts&#45;&gt;src/machines/mymachine/mymachine.ts -->
<g id="edge3" class="edge">
<title>src/addressspace.ts&#45;&gt;src/machines/mymachine/mymachine.ts</title>
<path fill="none" stroke="#000000" stroke-width="2" stroke-opacity="0.200000" d="M139.51,-194.84C143.59,-172.74 156.67,-115.76 188,-81 199.42,-68.32 215.83,-58.94 230.39,-52.45"/>
<polygon fill="#000000" fill-opacity="0.200000" stroke="#000000" stroke-width="2" stroke-opacity="0.200000" points="231.38,-54.31 236.07,-50.03 229.73,-50.45 231.38,-54.31"/>
</g>
<!-- src/machines/sample_imm/sample_imm.ts -->
<g id="node6" class="node">
<title>src/machines/sample_imm/sample_imm.ts</title>
<g id="a_node6"><a xlink:href="src/machines/sample_imm/sample_imm.ts" xlink:title="sample_imm.ts">
<path fill="#ddfeff" stroke="black" d="M299,-110C299,-110 229,-110 229,-110 226,-110 223,-107 223,-104 223,-104 223,-98 223,-98 223,-95 226,-92 229,-92 229,-92 299,-92 299,-92 302,-92 305,-95 305,-98 305,-98 305,-104 305,-104 305,-107 302,-110 299,-110"/>
<text text-anchor="middle" x="264" y="-98.8" font-family="Helvetica,sans-Serif" font-size="9.00">sample_imm.ts</text>
</a>
</g>
</g>
<!-- src/addressspace.ts&#45;&gt;src/machines/sample_imm/sample_imm.ts -->
<g id="edge4" class="edge">
<title>src/addressspace.ts&#45;&gt;src/machines/sample_imm/sample_imm.ts</title>
<path fill="none" stroke="#000000" stroke-width="2" stroke-opacity="0.200000" d="M143.5,-194.89C151.82,-181.7 168.69,-157.09 188,-141 202.01,-129.32 219.97,-119.6 234.81,-112.66"/>
<polygon fill="#000000" fill-opacity="0.200000" stroke="#000000" stroke-width="2" stroke-opacity="0.200000" points="235.95,-114.45 240.53,-110.05 234.2,-110.63 235.95,-114.45"/>
</g>
<!-- src/serveraddressspace/serveraddressspace.ts -->
<g id="node7" class="node">
<title>src/serveraddressspace/serveraddressspace.ts</title>
<g id="a_node7"><a xlink:href="src/serveraddressspace/serveraddressspace.ts" xlink:title="serveraddressspace.ts">
<path fill="#ddfeff" stroke="black" d="M314,-256C314,-256 214,-256 214,-256 211,-256 208,-253 208,-250 208,-250 208,-244 208,-244 208,-241 211,-238 214,-238 214,-238 314,-238 314,-238 317,-238 320,-241 320,-244 320,-244 320,-250 320,-250 320,-253 317,-256 314,-256"/>
<text text-anchor="middle" x="264" y="-244.8" font-family="Helvetica,sans-Serif" font-size="9.00">serveraddressspace.ts</text>
</a>
</g>
</g>
<!-- src/addressspace.ts&#45;&gt;src/serveraddressspace/serveraddressspace.ts -->
<g id="edge5" class="edge">
<title>src/addressspace.ts&#45;&gt;src/serveraddressspace/serveraddressspace.ts</title>
<path fill="none" stroke="#000000" stroke-width="2" stroke-opacity="0.200000" d="M164.2,-213.01C183.7,-219.72 210.42,-228.91 231.15,-236.04"/>
<polygon fill="#000000" fill-opacity="0.200000" stroke="#000000" stroke-width="2" stroke-opacity="0.200000" points="230.47,-238.03 236.83,-238 231.84,-234.06 230.47,-238.03"/>
</g>
<!-- src/permissiongroups.ts -->
<g id="node10" class="node">
<title>src/permissiongroups.ts</title>
<g id="a_node10"><a xlink:href="src/permissiongroups.ts" xlink:title="permissiongroups.ts">
<path fill="#ddfeff" stroke="black" d="M445,-256C445,-256 354,-256 354,-256 351,-256 348,-253 348,-250 348,-250 348,-244 348,-244 348,-241 351,-238 354,-238 354,-238 445,-238 445,-238 448,-238 451,-241 451,-244 451,-244 451,-250 451,-250 451,-253 448,-256 445,-256"/>
<text text-anchor="middle" x="399.5" y="-244.8" font-family="Helvetica,sans-Serif" font-size="9.00">permissiongroups.ts</text>
</a>
</g>
</g>
<!-- src/serveraddressspace/serveraddressspace.ts&#45;&gt;src/permissiongroups.ts -->
<g id="edge12" class="edge">
<title>src/serveraddressspace/serveraddressspace.ts&#45;&gt;src/permissiongroups.ts</title>
<path fill="none" stroke="#000000" stroke-width="2" stroke-opacity="0.200000" d="M320.07,-247C327.25,-247 334.62,-247 341.83,-247"/>
<polygon fill="#000000" fill-opacity="0.200000" stroke="#000000" stroke-width="2" stroke-opacity="0.200000" points="341.84,-249.1 347.84,-247 341.84,-244.9 341.84,-249.1"/>
</g>
<!-- src/config.ts -->
<g id="node8" class="node">
<title>src/config.ts</title>
<g id="a_node8"><a xlink:href="src/config.ts" xlink:title="config.ts">
<path fill="#ddfeff" stroke="black" d="M158,-392C158,-392 116,-392 116,-392 113,-392 110,-389 110,-386 110,-386 110,-380 110,-380 110,-377 113,-374 116,-374 116,-374 158,-374 158,-374 161,-374 164,-377 164,-380 164,-380 164,-386 164,-386 164,-389 161,-392 158,-392"/>
<text text-anchor="middle" x="137" y="-380.8" font-family="Helvetica,sans-Serif" font-size="9.00">config.ts</text>
</a>
</g>
</g>
<!-- src/config.ts&#45;&gt;src/utils/log.ts -->
<g id="edge8" class="edge">
<title>src/config.ts&#45;&gt;src/utils/log.ts</title>
<path fill="none" stroke="#000000" stroke-width="2" stroke-opacity="0.200000" d="M164.41,-380.77C212.51,-376.71 314.24,-368.12 366.31,-363.72"/>
<polygon fill="#000000" fill-opacity="0.200000" stroke="#000000" stroke-width="2" stroke-opacity="0.200000" points="366.6,-365.8 372.41,-363.2 366.25,-361.62 366.6,-365.8"/>
</g>
<!-- src/user.ts -->
<g id="node9" class="node">
<title>src/user.ts</title>
<g id="a_node9"><a xlink:href="src/user.ts" xlink:title="user.ts">
<path fill="#ddfeff" stroke="black" d="M285,-406C285,-406 243,-406 243,-406 240,-406 237,-403 237,-400 237,-400 237,-394 237,-394 237,-391 240,-388 243,-388 243,-388 285,-388 285,-388 288,-388 291,-391 291,-394 291,-394 291,-400 291,-400 291,-403 288,-406 285,-406"/>
<text text-anchor="middle" x="264" y="-394.8" font-family="Helvetica,sans-Serif" font-size="9.00">user.ts</text>
</a>
</g>
</g>
<!-- src/config.ts&#45;&gt;src/user.ts -->
<g id="edge7" class="edge">
<title>src/config.ts&#45;&gt;src/user.ts</title>
<path fill="none" stroke="#000000" stroke-width="2" stroke-opacity="0.200000" d="M164.2,-385.93C183.54,-388.1 209.96,-391.06 230.62,-393.37"/>
<polygon fill="#000000" fill-opacity="0.200000" stroke="#000000" stroke-width="2" stroke-opacity="0.200000" points="230.63,-395.49 236.83,-394.07 231.1,-391.31 230.63,-395.49"/>
</g>
<!-- src/user.ts&#45;&gt;src/utils/log.ts -->
<g id="edge14" class="edge">
<title>src/user.ts&#45;&gt;src/utils/log.ts</title>
<path fill="none" stroke="#000000" stroke-width="2" stroke-opacity="0.200000" d="M291.14,-391.15C305.6,-387.81 323.85,-383.42 340,-379 348.66,-376.63 357.98,-373.86 366.57,-371.22"/>
<polygon fill="#000000" fill-opacity="0.200000" stroke="#000000" stroke-width="2" stroke-opacity="0.200000" points="367.28,-373.2 372.39,-369.42 366.04,-369.19 367.28,-373.2"/>
</g>
<!-- src/server.ts -->
<g id="node11" class="node">
<title>src/server.ts</title>
<g id="a_node11"><a xlink:href="src/server.ts" xlink:title="server.ts">
<path fill="#ddfeff" stroke="black" d="M72,-346C72,-346 30,-346 30,-346 27,-346 24,-343 24,-340 24,-340 24,-334 24,-334 24,-331 27,-328 30,-328 30,-328 72,-328 72,-328 75,-328 78,-331 78,-334 78,-334 78,-340 78,-340 78,-343 75,-346 72,-346"/>
<text text-anchor="middle" x="51" y="-334.8" font-family="Helvetica,sans-Serif" font-size="9.00">server.ts</text>
</a>
</g>
</g>
<!-- src/server.ts&#45;&gt;src/utils/log.ts -->
<g id="edge11" class="edge">
<title>src/server.ts&#45;&gt;src/utils/log.ts</title>
<path fill="none" stroke="#000000" stroke-width="2" stroke-opacity="0.200000" d="M78.24,-341.29C105.57,-345.57 149.66,-351.92 188,-355 250.91,-360.05 324.7,-361.02 366.09,-361.11"/>
<polygon fill="#000000" fill-opacity="0.200000" stroke="#000000" stroke-width="2" stroke-opacity="0.200000" points="366.2,-363.21 372.2,-361.12 366.2,-359.01 366.2,-363.21"/>
</g>
<!-- src/server.ts&#45;&gt;src/addressspace.ts -->
<g id="edge9" class="edge">
<title>src/server.ts&#45;&gt;src/addressspace.ts</title>
<path fill="none" stroke="#000000" stroke-width="2" stroke-opacity="0.200000" d="M57.77,-327.86C72.1,-305.17 109.38,-246.16 126.79,-218.59"/>
<polygon fill="#000000" fill-opacity="0.200000" stroke="#000000" stroke-width="2" stroke-opacity="0.200000" points="128.76,-219.4 130.19,-213.21 125.21,-217.16 128.76,-219.4"/>
</g>
<!-- src/server.ts&#45;&gt;src/config.ts -->
<g id="edge10" class="edge">
<title>src/server.ts&#45;&gt;src/config.ts</title>
<path fill="none" stroke="#000000" stroke-width="2" stroke-opacity="0.200000" d="M78.3,-345.7C81.06,-347.22 83.7,-348.98 86,-351 91.38,-355.73 88.65,-360.23 94,-365 97.02,-367.7 100.51,-370.03 104.16,-372.05"/>
<polygon fill="#000000" fill-opacity="0.200000" stroke="#000000" stroke-width="2" stroke-opacity="0.200000" points="103.28,-373.95 109.58,-374.77 105.16,-370.2 103.28,-373.95"/>
</g>
<!-- src/test/test.ts -->
<g id="node12" class="node">
<title>src/test/test.ts</title>
<g id="a_node12"><a xlink:href="src/test/test.ts" xlink:title="test.ts">
<path fill="#ddfeff" stroke="black" d="M72,-380C72,-380 30,-380 30,-380 27,-380 24,-377 24,-374 24,-374 24,-368 24,-368 24,-365 27,-362 30,-362 30,-362 72,-362 72,-362 75,-362 78,-365 78,-368 78,-368 78,-374 78,-374 78,-377 75,-380 72,-380"/>
<text text-anchor="middle" x="51" y="-368.8" font-family="Helvetica,sans-Serif" font-size="9.00">test.ts</text>
</a>
</g>
</g>
<!-- src/test/test.ts&#45;&gt;src/config.ts -->
<g id="edge13" class="edge">
<title>src/test/test.ts&#45;&gt;src/config.ts</title>
<path fill="none" stroke="#000000" stroke-width="2" stroke-opacity="0.200000" d="M78.12,-374.73C86.18,-375.88 95.15,-377.16 103.58,-378.37"/>
<polygon fill="#000000" fill-opacity="0.200000" stroke="#000000" stroke-width="2" stroke-opacity="0.200000" points="103.66,-380.5 109.9,-379.27 104.26,-376.34 103.66,-380.5"/>
</g>
<!-- src/utils/userfile.ts -->
<g id="node13" class="node">
<title>src/utils/userfile.ts</title>
<g id="a_node13"><a xlink:href="src/utils/userfile.ts" xlink:title="userfile.ts">
<path fill="#ccffcc" stroke="black" d="M422,-340C422,-340 377,-340 377,-340 374,-340 371,-337 371,-334 371,-334 371,-328 371,-328 371,-325 374,-322 377,-322 377,-322 422,-322 422,-322 425,-322 428,-325 428,-328 428,-328 428,-334 428,-334 428,-337 425,-340 422,-340"/>
<text text-anchor="middle" x="399.5" y="-328.8" font-family="Helvetica,sans-Serif" font-size="9.00">userfile.ts</text>
</a>
</g>
</g>
</g>
</svg>
