<?xml version="1.0" encoding="UTF-8" standalone="no"?>
<!DOCTYPE svg PUBLIC "-//W3C//DTD SVG 1.1//EN"
 "http://www.w3.org/Graphics/SVG/1.1/DTD/svg11.dtd">
<!-- Generated by graphviz version 2.46.0 (20210118.1747)
 -->
<!-- Title: dependency&#45;cruiser output Pages: 1 -->
<svg width="511pt" height="838pt"
 viewBox="0.00 0.00 511.00 838.00" xmlns="http://www.w3.org/2000/svg" xmlns:xlink="http://www.w3.org/1999/xlink">
<g id="graph0" class="graph" transform="scale(1 1) rotate(0) translate(4 834)">
<title>dependency&#45;cruiser output</title>
<polygon fill="white" stroke="transparent" points="-4,4 -4,-834 507,-834 507,4 -4,4"/>
<g id="clust1" class="cluster">
<title>cluster_src</title>
<path fill="#ffffff" stroke="black" stroke-width="2" d="M20,-8C20,-8 483,-8 483,-8 489,-8 495,-14 495,-20 495,-20 495,-810 495,-810 495,-816 489,-822 483,-822 483,-822 20,-822 20,-822 14,-822 8,-816 8,-810 8,-810 8,-20 8,-20 8,-14 14,-8 20,-8"/>
<text text-anchor="middle" x="251.5" y="-810.8" font-family="Helvetica,sans-Serif" font-weight="bold" font-size="9.00">src</text>
</g>
<g id="clust2" class="cluster">
<title>cluster_src/LocalDiscoveryServer</title>
<path fill="#ffffff" stroke="black" stroke-width="2" d="M210,-26C210,-26 318,-26 318,-26 324,-26 330,-32 330,-38 330,-38 330,-66 330,-66 330,-72 324,-78 318,-78 318,-78 210,-78 210,-78 204,-78 198,-72 198,-66 198,-66 198,-38 198,-38 198,-32 204,-26 210,-26"/>
<text text-anchor="middle" x="264" y="-66.8" font-family="Helvetica,sans-Serif" font-weight="bold" font-size="9.00">LocalDiscoveryServer</text>
</g>
<g id="clust10" class="cluster">
<title>cluster_src/test</title>
<path fill="#ffffff" stroke="black" stroke-width="2" d="M28,-91C28,-91 74,-91 74,-91 80,-91 86,-97 86,-103 86,-103 86,-131 86,-131 86,-137 80,-143 74,-143 74,-143 28,-143 28,-143 22,-143 16,-137 16,-131 16,-131 16,-103 16,-103 16,-97 22,-91 28,-91"/>
<text text-anchor="middle" x="51" y="-131.8" font-family="Helvetica,sans-Serif" font-weight="bold" font-size="9.00">test</text>
</g>
<g id="clust3" class="cluster">
<title>cluster_src/machines</title>
<path fill="#ffffff" stroke="black" stroke-width="2" d="M200,-140C200,-140 328,-140 328,-140 334,-140 340,-146 340,-152 340,-152 340,-724 340,-724 340,-730 334,-736 328,-736 328,-736 200,-736 200,-736 194,-736 188,-730 188,-724 188,-724 188,-152 188,-152 188,-146 194,-140 200,-140"/>
<text text-anchor="middle" x="264" y="-724.8" font-family="Helvetica,sans-Serif" font-weight="bold" font-size="9.00">machines</text>
</g>
<g id="clust4" class="cluster">
<title>cluster_src/machines/PlasticsRubber</title>
<path fill="#ffffff" stroke="black" stroke-width="2" d="M235,-418C235,-418 293,-418 293,-418 299,-418 305,-424 305,-430 305,-430 305,-698 305,-698 305,-704 299,-710 293,-710 293,-710 235,-710 235,-710 229,-710 223,-704 223,-698 223,-698 223,-430 223,-430 223,-424 229,-418 235,-418"/>
<text text-anchor="middle" x="264" y="-698.8" font-family="Helvetica,sans-Serif" font-weight="bold" font-size="9.00">PlasticsRubber</text>
</g>
<g id="clust7" class="cluster">
<title>cluster_src/machines/motiondevicesystem</title>
<path fill="#ffffff" stroke="black" stroke-width="2" d="M212.5,-358C212.5,-358 315.5,-358 315.5,-358 321.5,-358 327.5,-364 327.5,-370 327.5,-370 327.5,-398 327.5,-398 327.5,-404 321.5,-410 315.5,-410 315.5,-410 212.5,-410 212.5,-410 206.5,-410 200.5,-404 200.5,-398 200.5,-398 200.5,-370 200.5,-370 200.5,-364 206.5,-358 212.5,-358"/>
<text text-anchor="middle" x="264" y="-398.8" font-family="Helvetica,sans-Serif" font-weight="bold" font-size="9.00">motiondevicesystem</text>
</g>
<g id="clust5" class="cluster">
<title>cluster_src/machines/WoodWorking</title>
<path fill="#ffffff" stroke="black" stroke-width="2" d="M234,-268C234,-268 294,-268 294,-268 300,-268 306,-274 306,-280 306,-280 306,-338 306,-338 306,-344 300,-350 294,-350 294,-350 234,-350 234,-350 228,-350 222,-344 222,-338 222,-338 222,-280 222,-280 222,-274 228,-268 234,-268"/>
<text text-anchor="middle" x="264" y="-338.8" font-family="Helvetica,sans-Serif" font-weight="bold" font-size="9.00">WoodWorking</text>
</g>
<g id="clust8" class="cluster">
<title>cluster_src/machines/mymachine</title>
<path fill="#ffffff" stroke="black" stroke-width="2" d="M231,-208C231,-208 297,-208 297,-208 303,-208 309,-214 309,-220 309,-220 309,-248 309,-248 309,-254 303,-260 297,-260 297,-260 231,-260 231,-260 225,-260 219,-254 219,-248 219,-248 219,-220 219,-220 219,-214 225,-208 231,-208"/>
<text text-anchor="middle" x="264" y="-248.8" font-family="Helvetica,sans-Serif" font-weight="bold" font-size="9.00">mymachine</text>
</g>
<g id="clust6" class="cluster">
<title>cluster_src/machines/machinetool</title>
<path fill="#ffffff" stroke="black" stroke-width="2" d="M208,-148C208,-148 320,-148 320,-148 326,-148 332,-154 332,-160 332,-160 332,-188 332,-188 332,-194 326,-200 320,-200 320,-200 208,-200 208,-200 202,-200 196,-194 196,-188 196,-188 196,-160 196,-160 196,-154 202,-148 208,-148"/>
<text text-anchor="middle" x="264" y="-188.8" font-family="Helvetica,sans-Serif" font-weight="bold" font-size="9.00">machinetool</text>
</g>
<g id="clust11" class="cluster">
<title>cluster_src/utils</title>
<path fill="#ffffff" stroke="black" stroke-width="2" d="M389,-48C389,-48 438,-48 438,-48 444,-48 450,-54 450,-60 450,-60 450,-118 450,-118 450,-124 444,-130 438,-130 438,-130 389,-130 389,-130 383,-130 377,-124 377,-118 377,-118 377,-60 377,-60 377,-54 383,-48 389,-48"/>
<text text-anchor="middle" x="413.5" y="-118.8" font-family="Helvetica,sans-Serif" font-weight="bold" font-size="9.00">utils</text>
</g>
<g id="clust9" class="cluster">
<title>cluster_src/serveraddressspace</title>
<path fill="#ffffff" stroke="black" stroke-width="2" d="M212,-744C212,-744 475,-744 475,-744 481,-744 487,-750 487,-756 487,-756 487,-784 487,-784 487,-790 481,-796 475,-796 475,-796 212,-796 212,-796 206,-796 200,-790 200,-784 200,-784 200,-756 200,-756 200,-750 206,-744 212,-744"/>
<text text-anchor="middle" x="343.5" y="-784.8" font-family="Helvetica,sans-Serif" font-weight="bold" font-size="9.00">serveraddressspace</text>
</g>
<!-- src/LocalDiscoveryServer/local&#45;discovery&#45;server.ts -->
<g id="node1" class="node">
<title>src/LocalDiscoveryServer/local&#45;discovery&#45;server.ts</title>
<g id="a_node1"><a xlink:href="src/LocalDiscoveryServer/local-discovery-server.ts" xlink:title="local&#45;discovery&#45;server.ts">
<path fill="#ddfeff" stroke="black" d="M316,-52C316,-52 212,-52 212,-52 209,-52 206,-49 206,-46 206,-46 206,-40 206,-40 206,-37 209,-34 212,-34 212,-34 316,-34 316,-34 319,-34 322,-37 322,-40 322,-40 322,-46 322,-46 322,-49 319,-52 316,-52"/>
<text text-anchor="start" x="214" y="-40.8" font-family="Helvetica,sans-Serif" font-size="9.00">local&#45;discovery&#45;server.ts</text>
</a>
</g>
</g>
<!-- src/utils/log.ts -->
<g id="node2" class="node">
<title>src/utils/log.ts</title>
<g id="a_node2"><a xlink:href="src/utils/log.ts" xlink:title="log.ts">
<path fill="#ddfeff" stroke="black" d="M434.5,-104C434.5,-104 392.5,-104 392.5,-104 389.5,-104 386.5,-101 386.5,-98 386.5,-98 386.5,-92 386.5,-92 386.5,-89 389.5,-86 392.5,-86 392.5,-86 434.5,-86 434.5,-86 437.5,-86 440.5,-89 440.5,-92 440.5,-92 440.5,-98 440.5,-98 440.5,-101 437.5,-104 434.5,-104"/>
<text text-anchor="start" x="402" y="-92.8" font-family="Helvetica,sans-Serif" font-size="9.00">log.ts</text>
</a>
</g>
</g>
<!-- src/LocalDiscoveryServer/local&#45;discovery&#45;server.ts&#45;&gt;src/utils/log.ts -->
<g id="edge1" class="edge">
<title>src/LocalDiscoveryServer/local&#45;discovery&#45;server.ts&#45;&gt;src/utils/log.ts</title>
<path fill="none" stroke="#000000" stroke-width="2" stroke-opacity="0.200000" d="M322.05,-46.07C328.6,-48.32 334.79,-51.52 340,-56 348.52,-63.33 339.69,-72.43 348,-80 356.68,-87.9 368.69,-91.89 380,-93.82"/>
<polygon fill="#000000" fill-opacity="0.200000" stroke="#000000" stroke-width="2" stroke-opacity="0.200000" points="379.95,-95.94 386.19,-94.7 380.54,-91.78 379.95,-95.94"/>
</g>
<!-- src/addressspace.ts -->
<g id="node3" class="node">
<title>src/addressspace.ts</title>
<g id="a_node3"><a xlink:href="src/addressspace.ts" xlink:title="addressspace.ts">
<path fill="#ddfeff" stroke="black" d="M174,-474C174,-474 100,-474 100,-474 97,-474 94,-471 94,-468 94,-468 94,-462 94,-462 94,-459 97,-456 100,-456 100,-456 174,-456 174,-456 177,-456 180,-459 180,-462 180,-462 180,-468 180,-468 180,-471 177,-474 174,-474"/>
<text text-anchor="start" x="102" y="-462.8" font-family="Helvetica,sans-Serif" font-size="9.00">addressspace.ts</text>
</a>
</g>
</g>
<!-- src/addressspace.ts&#45;&gt;src/utils/log.ts -->
<g id="edge17" class="edge">
<title>src/addressspace.ts&#45;&gt;src/utils/log.ts</title>
<path fill="none" stroke="#000000" stroke-width="2" stroke-opacity="0.200000" d="M138.07,-455.69C138.61,-407.95 143.54,-190.98 188,-145 235.81,-95.56 279.22,-148.18 340,-116 344.44,-113.65 343.57,-110.38 348,-108 357.76,-102.77 369.38,-99.63 380.05,-97.76"/>
<polygon fill="#000000" fill-opacity="0.200000" stroke="#000000" stroke-width="2" stroke-opacity="0.200000" points="380.6,-99.8 386.21,-96.79 379.95,-95.65 380.6,-99.8"/>
</g>
<!-- src/machines/machinetool/showcasemachinetool.ts -->
<g id="node4" class="node">
<title>src/machines/machinetool/showcasemachinetool.ts</title>
<g id="a_node4"><a xlink:href="src/machines/machinetool/showcasemachinetool.ts" xlink:title="showcasemachinetool.ts">
<path fill="#ddfeff" stroke="black" d="M318,-174C318,-174 210,-174 210,-174 207,-174 204,-171 204,-168 204,-168 204,-162 204,-162 204,-159 207,-156 210,-156 210,-156 318,-156 318,-156 321,-156 324,-159 324,-162 324,-162 324,-168 324,-168 324,-171 321,-174 318,-174"/>
<text text-anchor="start" x="212" y="-162.8" font-family="Helvetica,sans-Serif" font-size="9.00">showcasemachinetool.ts</text>
</a>
</g>
</g>
<!-- src/addressspace.ts&#45;&gt;src/machines/machinetool/showcasemachinetool.ts -->
<g id="edge2" class="edge">
<title>src/addressspace.ts&#45;&gt;src/machines/machinetool/showcasemachinetool.ts</title>
<path fill="none" stroke="#000000" stroke-width="2" stroke-opacity="0.200000" d="M138.72,-455.77C142.08,-414.42 157.44,-246.43 188,-205 197.67,-191.89 212.93,-182.65 227.18,-176.38"/>
<polygon fill="#000000" fill-opacity="0.200000" stroke="#000000" stroke-width="2" stroke-opacity="0.200000" points="228.06,-178.29 232.78,-174.04 226.44,-174.42 228.06,-178.29"/>
</g>
<!-- src/machines/motiondevicesystem/motiondevicesystem.ts -->
<g id="node5" class="node">
<title>src/machines/motiondevicesystem/motiondevicesystem.ts</title>
<g id="a_node5"><a xlink:href="src/machines/motiondevicesystem/motiondevicesystem.ts" xlink:title="motiondevicesystem.ts">
<path fill="#ddfeff" stroke="black" d="M313.5,-384C313.5,-384 214.5,-384 214.5,-384 211.5,-384 208.5,-381 208.5,-378 208.5,-378 208.5,-372 208.5,-372 208.5,-369 211.5,-366 214.5,-366 214.5,-366 313.5,-366 313.5,-366 316.5,-366 319.5,-369 319.5,-372 319.5,-372 319.5,-378 319.5,-378 319.5,-381 316.5,-384 313.5,-384"/>
<text text-anchor="start" x="216.5" y="-372.8" font-family="Helvetica,sans-Serif" font-size="9.00">motiondevicesystem.ts</text>
</a>
</g>
</g>
<!-- src/addressspace.ts&#45;&gt;src/machines/motiondevicesystem/motiondevicesystem.ts -->
<g id="edge3" class="edge">
<title>src/addressspace.ts&#45;&gt;src/machines/motiondevicesystem/motiondevicesystem.ts</title>
<path fill="none" stroke="#000000" stroke-width="2" stroke-opacity="0.200000" d="M145.79,-455.69C155.07,-444.97 171.43,-427.28 188,-415 203.07,-403.83 221.67,-393.89 236.58,-386.71"/>
<polygon fill="#000000" fill-opacity="0.200000" stroke="#000000" stroke-width="2" stroke-opacity="0.200000" points="237.77,-388.47 242.3,-384.01 235.98,-384.67 237.77,-388.47"/>
</g>
<!-- src/machines/mymachine/mymachine.ts -->
<g id="node6" class="node">
<title>src/machines/mymachine/mymachine.ts</title>
<g id="a_node6"><a xlink:href="src/machines/mymachine/mymachine.ts" xlink:title="mymachine.ts">
<path fill="#ddfeff" stroke="black" d="M295,-234C295,-234 233,-234 233,-234 230,-234 227,-231 227,-228 227,-228 227,-222 227,-222 227,-219 230,-216 233,-216 233,-216 295,-216 295,-216 298,-216 301,-219 301,-222 301,-222 301,-228 301,-228 301,-231 298,-234 295,-234"/>
<text text-anchor="start" x="235" y="-222.8" font-family="Helvetica,sans-Serif" font-size="9.00">mymachine.ts</text>
</a>
</g>
</g>
<!-- src/addressspace.ts&#45;&gt;src/machines/mymachine/mymachine.ts -->
<g id="edge4" class="edge">
<title>src/addressspace.ts&#45;&gt;src/machines/mymachine/mymachine.ts</title>
<path fill="none" stroke="#000000" stroke-width="2" stroke-opacity="0.200000" d="M137.79,-455.92C137.56,-425.5 140.64,-325.65 188,-265 198.1,-252.06 213.58,-242.82 227.87,-236.49"/>
<polygon fill="#000000" fill-opacity="0.200000" stroke="#000000" stroke-width="2" stroke-opacity="0.200000" points="228.76,-238.4 233.47,-234.13 227.13,-234.53 228.76,-238.4"/>
</g>
<!-- src/machines/PlasticsRubber/40077.ts -->
<g id="node7" class="node">
<title>src/machines/PlasticsRubber/40077.ts</title>
<g id="a_node7"><a xlink:href="src/machines/PlasticsRubber/40077.ts" xlink:title="40077.ts">
<path fill="#ddfeff" stroke="black" d="M285,-564C285,-564 243,-564 243,-564 240,-564 237,-561 237,-558 237,-558 237,-552 237,-552 237,-549 240,-546 243,-546 243,-546 285,-546 285,-546 288,-546 291,-549 291,-552 291,-552 291,-558 291,-558 291,-561 288,-564 285,-564"/>
<text text-anchor="start" x="245.5" y="-552.8" font-family="Helvetica,sans-Serif" font-size="9.00">40077.ts</text>
</a>
</g>
</g>
<!-- src/addressspace.ts&#45;&gt;src/machines/PlasticsRubber/40077.ts -->
<g id="edge5" class="edge">
<title>src/addressspace.ts&#45;&gt;src/machines/PlasticsRubber/40077.ts</title>
<path fill="none" stroke="#000000" stroke-width="2" stroke-opacity="0.200000" d="M141.33,-474.09C147.72,-490.16 163.29,-523.46 188,-540 200.44,-548.33 216.47,-552.23 230.51,-553.99"/>
<polygon fill="#000000" fill-opacity="0.200000" stroke="#000000" stroke-width="2" stroke-opacity="0.200000" points="230.61,-556.11 236.8,-554.66 231.06,-551.94 230.61,-556.11"/>
</g>
<!-- src/machines/PlasticsRubber/40079.ts -->
<g id="node8" class="node">
<title>src/machines/PlasticsRubber/40079.ts</title>
<g id="a_node8"><a xlink:href="src/machines/PlasticsRubber/40079.ts" xlink:title="40079.ts">
<path fill="#ddfeff" stroke="black" d="M285,-534C285,-534 243,-534 243,-534 240,-534 237,-531 237,-528 237,-528 237,-522 237,-522 237,-519 240,-516 243,-516 243,-516 285,-516 285,-516 288,-516 291,-519 291,-522 291,-522 291,-528 291,-528 291,-531 288,-534 285,-534"/>
<text text-anchor="start" x="245.5" y="-522.8" font-family="Helvetica,sans-Serif" font-size="9.00">40079.ts</text>
</a>
</g>
</g>
<!-- src/addressspace.ts&#45;&gt;src/machines/PlasticsRubber/40079.ts -->
<g id="edge6" class="edge">
<title>src/addressspace.ts&#45;&gt;src/machines/PlasticsRubber/40079.ts</title>
<path fill="none" stroke="#000000" stroke-width="2" stroke-opacity="0.200000" d="M145.45,-474.18C154.41,-484.57 170.46,-501.2 188,-510 201.17,-516.61 217.02,-520.31 230.75,-522.38"/>
<polygon fill="#000000" fill-opacity="0.200000" stroke="#000000" stroke-width="2" stroke-opacity="0.200000" points="230.66,-524.48 236.89,-523.22 231.23,-520.32 230.66,-524.48"/>
</g>
<!-- src/machines/PlasticsRubber/40082&#45;1.ts -->
<g id="node9" class="node">
<title>src/machines/PlasticsRubber/40082&#45;1.ts</title>
<g id="a_node9"><a xlink:href="src/machines/PlasticsRubber/40082-1.ts" xlink:title="40082&#45;1.ts">
<path fill="#ddfeff" stroke="black" d="M288.5,-504C288.5,-504 239.5,-504 239.5,-504 236.5,-504 233.5,-501 233.5,-498 233.5,-498 233.5,-492 233.5,-492 233.5,-489 236.5,-486 239.5,-486 239.5,-486 288.5,-486 288.5,-486 291.5,-486 294.5,-489 294.5,-492 294.5,-492 294.5,-498 294.5,-498 294.5,-501 291.5,-504 288.5,-504"/>
<text text-anchor="start" x="241.5" y="-492.8" font-family="Helvetica,sans-Serif" font-size="9.00">40082&#45;1.ts</text>
</a>
</g>
</g>
<!-- src/addressspace.ts&#45;&gt;src/machines/PlasticsRubber/40082&#45;1.ts -->
<g id="edge7" class="edge">
<title>src/addressspace.ts&#45;&gt;src/machines/PlasticsRubber/40082&#45;1.ts</title>
<path fill="none" stroke="#000000" stroke-width="2" stroke-opacity="0.200000" d="M166.43,-474.03C173.44,-476.12 180.97,-478.25 188,-480 200.73,-483.18 214.81,-486.14 227.3,-488.57"/>
<polygon fill="#000000" fill-opacity="0.200000" stroke="#000000" stroke-width="2" stroke-opacity="0.200000" points="227,-490.65 233.29,-489.72 227.8,-486.53 227,-490.65"/>
</g>
<!-- src/machines/PlasticsRubber/40082&#45;2.ts -->
<g id="node10" class="node">
<title>src/machines/PlasticsRubber/40082&#45;2.ts</title>
<g id="a_node10"><a xlink:href="src/machines/PlasticsRubber/40082-2.ts" xlink:title="40082&#45;2.ts">
<path fill="#ddfeff" stroke="black" d="M288.5,-474C288.5,-474 239.5,-474 239.5,-474 236.5,-474 233.5,-471 233.5,-468 233.5,-468 233.5,-462 233.5,-462 233.5,-459 236.5,-456 239.5,-456 239.5,-456 288.5,-456 288.5,-456 291.5,-456 294.5,-459 294.5,-462 294.5,-462 294.5,-468 294.5,-468 294.5,-471 291.5,-474 288.5,-474"/>
<text text-anchor="start" x="241.5" y="-462.8" font-family="Helvetica,sans-Serif" font-size="9.00">40082&#45;2.ts</text>
</a>
</g>
</g>
<!-- src/addressspace.ts&#45;&gt;src/machines/PlasticsRubber/40082&#45;2.ts -->
<g id="edge8" class="edge">
<title>src/addressspace.ts&#45;&gt;src/machines/PlasticsRubber/40082&#45;2.ts</title>
<path fill="none" stroke="#000000" stroke-width="2" stroke-opacity="0.200000" d="M180.32,-465C195.56,-465 212.6,-465 227.24,-465"/>
<polygon fill="#000000" fill-opacity="0.200000" stroke="#000000" stroke-width="2" stroke-opacity="0.200000" points="227.35,-467.1 233.35,-465 227.35,-462.9 227.35,-467.1"/>
</g>
<!-- src/machines/PlasticsRubber/40082&#45;3.ts -->
<g id="node11" class="node">
<title>src/machines/PlasticsRubber/40082&#45;3.ts</title>
<g id="a_node11"><a xlink:href="src/machines/PlasticsRubber/40082-3.ts" xlink:title="40082&#45;3.ts">
<path fill="#ddfeff" stroke="black" d="M288.5,-444C288.5,-444 239.5,-444 239.5,-444 236.5,-444 233.5,-441 233.5,-438 233.5,-438 233.5,-432 233.5,-432 233.5,-429 236.5,-426 239.5,-426 239.5,-426 288.5,-426 288.5,-426 291.5,-426 294.5,-429 294.5,-432 294.5,-432 294.5,-438 294.5,-438 294.5,-441 291.5,-444 288.5,-444"/>
<text text-anchor="start" x="241.5" y="-432.8" font-family="Helvetica,sans-Serif" font-size="9.00">40082&#45;3.ts</text>
</a>
</g>
</g>
<!-- src/addressspace.ts&#45;&gt;src/machines/PlasticsRubber/40082&#45;3.ts -->
<g id="edge9" class="edge">
<title>src/addressspace.ts&#45;&gt;src/machines/PlasticsRubber/40082&#45;3.ts</title>
<path fill="none" stroke="#000000" stroke-width="2" stroke-opacity="0.200000" d="M166.43,-455.97C173.44,-453.88 180.97,-451.75 188,-450 200.73,-446.82 214.81,-443.86 227.3,-441.43"/>
<polygon fill="#000000" fill-opacity="0.200000" stroke="#000000" stroke-width="2" stroke-opacity="0.200000" points="227.8,-443.47 233.29,-440.28 227,-439.35 227.8,-443.47"/>
</g>
<!-- src/machines/PlasticsRubber/40084&#45;11.ts -->
<g id="node12" class="node">
<title>src/machines/PlasticsRubber/40084&#45;11.ts</title>
<g id="a_node12"><a xlink:href="src/machines/PlasticsRubber/40084-11.ts" xlink:title="40084&#45;11.ts">
<path fill="#ddfeff" stroke="black" d="M291,-684C291,-684 237,-684 237,-684 234,-684 231,-681 231,-678 231,-678 231,-672 231,-672 231,-669 234,-666 237,-666 237,-666 291,-666 291,-666 294,-666 297,-669 297,-672 297,-672 297,-678 297,-678 297,-681 294,-684 291,-684"/>
<text text-anchor="start" x="239" y="-672.8" font-family="Helvetica,sans-Serif" font-size="9.00">40084&#45;11.ts</text>
</a>
</g>
</g>
<!-- src/addressspace.ts&#45;&gt;src/machines/PlasticsRubber/40084&#45;11.ts -->
<g id="edge10" class="edge">
<title>src/addressspace.ts&#45;&gt;src/machines/PlasticsRubber/40084&#45;11.ts</title>
<path fill="none" stroke="#000000" stroke-width="2" stroke-opacity="0.200000" d="M139.09,-474.39C143.38,-509.68 160.22,-633.67 188,-660 197.69,-669.18 211.34,-673.47 224.34,-675.28"/>
<polygon fill="#000000" fill-opacity="0.200000" stroke="#000000" stroke-width="2" stroke-opacity="0.200000" points="224.46,-677.41 230.65,-675.99 224.92,-673.24 224.46,-677.41"/>
</g>
<!-- src/machines/PlasticsRubber/40084&#45;3.ts -->
<g id="node13" class="node">
<title>src/machines/PlasticsRubber/40084&#45;3.ts</title>
<g id="a_node13"><a xlink:href="src/machines/PlasticsRubber/40084-3.ts" xlink:title="40084&#45;3.ts">
<path fill="#ddfeff" stroke="black" d="M288.5,-654C288.5,-654 239.5,-654 239.5,-654 236.5,-654 233.5,-651 233.5,-648 233.5,-648 233.5,-642 233.5,-642 233.5,-639 236.5,-636 239.5,-636 239.5,-636 288.5,-636 288.5,-636 291.5,-636 294.5,-639 294.5,-642 294.5,-642 294.5,-648 294.5,-648 294.5,-651 291.5,-654 288.5,-654"/>
<text text-anchor="start" x="241.5" y="-642.8" font-family="Helvetica,sans-Serif" font-size="9.00">40084&#45;3.ts</text>
</a>
</g>
</g>
<!-- src/addressspace.ts&#45;&gt;src/machines/PlasticsRubber/40084&#45;3.ts -->
<g id="edge11" class="edge">
<title>src/addressspace.ts&#45;&gt;src/machines/PlasticsRubber/40084&#45;3.ts</title>
<path fill="none" stroke="#000000" stroke-width="2" stroke-opacity="0.200000" d="M137.76,-474.17C137.56,-502.18 141.01,-587.35 188,-630 198.57,-639.6 213.5,-643.78 227.25,-645.4"/>
<polygon fill="#000000" fill-opacity="0.200000" stroke="#000000" stroke-width="2" stroke-opacity="0.200000" points="227.3,-647.51 233.47,-645.97 227.69,-643.33 227.3,-647.51"/>
</g>
<!-- src/machines/PlasticsRubber/40084&#45;9.ts -->
<g id="node14" class="node">
<title>src/machines/PlasticsRubber/40084&#45;9.ts</title>
<g id="a_node14"><a xlink:href="src/machines/PlasticsRubber/40084-9.ts" xlink:title="40084&#45;9.ts">
<path fill="#ddfeff" stroke="black" d="M288.5,-624C288.5,-624 239.5,-624 239.5,-624 236.5,-624 233.5,-621 233.5,-618 233.5,-618 233.5,-612 233.5,-612 233.5,-609 236.5,-606 239.5,-606 239.5,-606 288.5,-606 288.5,-606 291.5,-606 294.5,-609 294.5,-612 294.5,-612 294.5,-618 294.5,-618 294.5,-621 291.5,-624 288.5,-624"/>
<text text-anchor="start" x="241.5" y="-612.8" font-family="Helvetica,sans-Serif" font-size="9.00">40084&#45;9.ts</text>
</a>
</g>
</g>
<!-- src/addressspace.ts&#45;&gt;src/machines/PlasticsRubber/40084&#45;9.ts -->
<g id="edge12" class="edge">
<title>src/addressspace.ts&#45;&gt;src/machines/PlasticsRubber/40084&#45;9.ts</title>
<path fill="none" stroke="#000000" stroke-width="2" stroke-opacity="0.200000" d="M138.47,-474.25C140.25,-498.87 148.66,-566.4 188,-600 198.77,-609.2 213.59,-613.33 227.21,-615.03"/>
<polygon fill="#000000" fill-opacity="0.200000" stroke="#000000" stroke-width="2" stroke-opacity="0.200000" points="227.18,-617.14 233.36,-615.65 227.6,-612.96 227.18,-617.14"/>
</g>
<!-- src/machines/PlasticsRubber/generic.ts -->
<g id="node15" class="node">
<title>src/machines/PlasticsRubber/generic.ts</title>
<g id="a_node15"><a xlink:href="src/machines/PlasticsRubber/generic.ts" xlink:title="generic.ts">
<path fill="#ddfeff" stroke="black" d="M286.5,-594C286.5,-594 241.5,-594 241.5,-594 238.5,-594 235.5,-591 235.5,-588 235.5,-588 235.5,-582 235.5,-582 235.5,-579 238.5,-576 241.5,-576 241.5,-576 286.5,-576 286.5,-576 289.5,-576 292.5,-579 292.5,-582 292.5,-582 292.5,-588 292.5,-588 292.5,-591 289.5,-594 286.5,-594"/>
<text text-anchor="start" x="243.5" y="-582.8" font-family="Helvetica,sans-Serif" font-size="9.00">generic.ts</text>
</a>
</g>
</g>
<!-- src/addressspace.ts&#45;&gt;src/machines/PlasticsRubber/generic.ts -->
<g id="edge13" class="edge">
<title>src/addressspace.ts&#45;&gt;src/machines/PlasticsRubber/generic.ts</title>
<path fill="none" stroke="#000000" stroke-width="2" stroke-opacity="0.200000" d="M139.5,-474C143.42,-494.55 155.99,-545.06 188,-570 199.54,-578.99 215.03,-583.02 228.94,-584.69"/>
<polygon fill="#000000" fill-opacity="0.200000" stroke="#000000" stroke-width="2" stroke-opacity="0.200000" points="229.02,-586.81 235.19,-585.31 229.43,-582.63 229.02,-586.81"/>
</g>
<!-- src/machines/WoodWorking/ww_basic.ts -->
<g id="node16" class="node">
<title>src/machines/WoodWorking/ww_basic.ts</title>
<g id="a_node16"><a xlink:href="src/machines/WoodWorking/ww_basic.ts" xlink:title="ww_basic.ts">
<path fill="#ddfeff" stroke="black" d="M292,-324C292,-324 236,-324 236,-324 233,-324 230,-321 230,-318 230,-318 230,-312 230,-312 230,-309 233,-306 236,-306 236,-306 292,-306 292,-306 295,-306 298,-309 298,-312 298,-312 298,-318 298,-318 298,-321 295,-324 292,-324"/>
<text text-anchor="start" x="238" y="-312.8" font-family="Helvetica,sans-Serif" font-size="9.00">ww_basic.ts</text>
</a>
</g>
</g>
<!-- src/addressspace.ts&#45;&gt;src/machines/WoodWorking/ww_basic.ts -->
<g id="edge14" class="edge">
<title>src/addressspace.ts&#45;&gt;src/machines/WoodWorking/ww_basic.ts</title>
<path fill="none" stroke="#000000" stroke-width="2" stroke-opacity="0.200000" d="M140.01,-455.9C144.92,-435.52 159.29,-385.59 188,-355 199.77,-342.46 216.36,-333.05 230.95,-326.52"/>
<polygon fill="#000000" fill-opacity="0.200000" stroke="#000000" stroke-width="2" stroke-opacity="0.200000" points="231.96,-328.37 236.64,-324.07 230.3,-324.51 231.96,-328.37"/>
</g>
<!-- src/machines/WoodWorking/ww_full.ts -->
<g id="node17" class="node">
<title>src/machines/WoodWorking/ww_full.ts</title>
<g id="a_node17"><a xlink:href="src/machines/WoodWorking/ww_full.ts" xlink:title="ww_full.ts">
<path fill="#ddfeff" stroke="black" d="M286.5,-294C286.5,-294 241.5,-294 241.5,-294 238.5,-294 235.5,-291 235.5,-288 235.5,-288 235.5,-282 235.5,-282 235.5,-279 238.5,-276 241.5,-276 241.5,-276 286.5,-276 286.5,-276 289.5,-276 292.5,-279 292.5,-282 292.5,-282 292.5,-288 292.5,-288 292.5,-291 289.5,-294 286.5,-294"/>
<text text-anchor="start" x="243.5" y="-282.8" font-family="Helvetica,sans-Serif" font-size="9.00">ww_full.ts</text>
</a>
</g>
</g>
<!-- src/addressspace.ts&#45;&gt;src/machines/WoodWorking/ww_full.ts -->
<g id="edge15" class="edge">
<title>src/addressspace.ts&#45;&gt;src/machines/WoodWorking/ww_full.ts</title>
<path fill="none" stroke="#000000" stroke-width="2" stroke-opacity="0.200000" d="M137.76,-455.83C137.56,-427.82 141.01,-342.65 188,-300 199.1,-289.93 214.99,-285.82 229.29,-284.38"/>
<polygon fill="#000000" fill-opacity="0.200000" stroke="#000000" stroke-width="2" stroke-opacity="0.200000" points="229.48,-286.47 235.3,-283.91 229.16,-282.28 229.48,-286.47"/>
</g>
<!-- src/serveraddressspace/serveraddressspace.ts -->
<g id="node18" class="node">
<title>src/serveraddressspace/serveraddressspace.ts</title>
<g id="a_node18"><a xlink:href="src/serveraddressspace/serveraddressspace.ts" xlink:title="serveraddressspace.ts">
<path fill="#ddfeff" stroke="black" d="M314,-770C314,-770 214,-770 214,-770 211,-770 208,-767 208,-764 208,-764 208,-758 208,-758 208,-755 211,-752 214,-752 214,-752 314,-752 314,-752 317,-752 320,-755 320,-758 320,-758 320,-764 320,-764 320,-767 317,-770 314,-770"/>
<text text-anchor="start" x="216" y="-758.8" font-family="Helvetica,sans-Serif" font-size="9.00">serveraddressspace.ts</text>
</a>
</g>
</g>
<!-- src/addressspace.ts&#45;&gt;src/serveraddressspace/serveraddressspace.ts -->
<g id="edge16" class="edge">
<title>src/addressspace.ts&#45;&gt;src/serveraddressspace/serveraddressspace.ts</title>
<path fill="none" stroke="#000000" stroke-width="2" stroke-opacity="0.200000" d="M138.87,-474.02C142.85,-513.69 160.28,-672.5 188,-713 199.12,-729.25 217.74,-741.21 233.64,-749.13"/>
<polygon fill="#000000" fill-opacity="0.200000" stroke="#000000" stroke-width="2" stroke-opacity="0.200000" points="233.04,-751.17 239.36,-751.86 234.85,-747.38 233.04,-751.17"/>
</g>
<!-- src/permissiongroups.ts -->
<g id="node21" class="node">
<title>src/permissiongroups.ts</title>
<g id="a_node21"><a xlink:href="src/permissiongroups.ts" xlink:title="permissiongroups.ts">
<path fill="#ddfeff" stroke="black" d="M459,-736C459,-736 368,-736 368,-736 365,-736 362,-733 362,-730 362,-730 362,-724 362,-724 362,-721 365,-718 368,-718 368,-718 459,-718 459,-718 462,-718 465,-721 465,-724 465,-724 465,-730 465,-730 465,-733 462,-736 459,-736"/>
<text text-anchor="start" x="370" y="-724.8" font-family="Helvetica,sans-Serif" font-size="9.00">permissiongroups.ts</text>
</a>
</g>
</g>
<!-- src/serveraddressspace/serveraddressspace.ts&#45;&gt;src/permissiongroups.ts -->
<g id="edge24" class="edge">
<title>src/serveraddressspace/serveraddressspace.ts&#45;&gt;src/permissiongroups.ts</title>
<path fill="none" stroke="#000000" stroke-width="2" stroke-opacity="0.200000" d="M301.73,-751.96C316.14,-748.46 332.83,-744.47 348,-741 353.25,-739.8 358.75,-738.57 364.22,-737.35"/>
<polygon fill="#000000" fill-opacity="0.200000" stroke="#000000" stroke-width="2" stroke-opacity="0.200000" points="364.73,-739.39 370.14,-736.05 363.83,-735.29 364.73,-739.39"/>
</g>
<!-- src/serveraddressspace/myfinitestatemachinetype.ts -->
<g id="node24" class="node">
<title>src/serveraddressspace/myfinitestatemachinetype.ts</title>
<g id="a_node24"><a xlink:href="src/serveraddressspace/myfinitestatemachinetype.ts" xlink:title="myfinitestatemachinetype.ts">
<path fill="#ddfeff" stroke="black" d="M473,-770C473,-770 354,-770 354,-770 351,-770 348,-767 348,-764 348,-764 348,-758 348,-758 348,-755 351,-752 354,-752 354,-752 473,-752 473,-752 476,-752 479,-755 479,-758 479,-758 479,-764 479,-764 479,-767 476,-770 473,-770"/>
<text text-anchor="start" x="356" y="-758.8" font-family="Helvetica,sans-Serif" font-size="9.00">myfinitestatemachinetype.ts</text>
</a>
</g>
</g>
<!-- src/serveraddressspace/serveraddressspace.ts&#45;&gt;src/serveraddressspace/myfinitestatemachinetype.ts -->
<g id="edge25" class="edge">
<title>src/serveraddressspace/serveraddressspace.ts&#45;&gt;src/serveraddressspace/myfinitestatemachinetype.ts</title>
<path fill="none" stroke="#000000" stroke-width="2" stroke-opacity="0.200000" d="M320.34,-761C327.37,-761 334.63,-761 341.85,-761"/>
<polygon fill="#000000" fill-opacity="0.200000" stroke="#000000" stroke-width="2" stroke-opacity="0.200000" points="341.91,-763.1 347.91,-761 341.91,-758.9 341.91,-763.1"/>
</g>
<!-- src/config.ts -->
<g id="node19" class="node">
<title>src/config.ts</title>
<g id="a_node19"><a xlink:href="src/config.ts" xlink:title="config.ts">
<path fill="#ddfeff" stroke="black" d="M158,-115C158,-115 116,-115 116,-115 113,-115 110,-112 110,-109 110,-109 110,-103 110,-103 110,-100 113,-97 116,-97 116,-97 158,-97 158,-97 161,-97 164,-100 164,-103 164,-103 164,-109 164,-109 164,-112 161,-115 158,-115"/>
<text text-anchor="start" x="119.5" y="-103.8" font-family="Helvetica,sans-Serif" font-size="9.00">config.ts</text>
</a>
</g>
</g>
<!-- src/config.ts&#45;&gt;src/utils/log.ts -->
<g id="edge19" class="edge">
<title>src/config.ts&#45;&gt;src/utils/log.ts</title>
<path fill="none" stroke="#000000" stroke-width="2" stroke-opacity="0.200000" d="M164.19,-108.49C171.85,-109.11 180.26,-109.69 188,-110 255.5,-112.7 272.95,-118.25 340,-110 343.64,-109.55 344.42,-108.81 348,-108 358.53,-105.62 370.07,-103.23 380.44,-101.16"/>
<polygon fill="#000000" fill-opacity="0.200000" stroke="#000000" stroke-width="2" stroke-opacity="0.200000" points="380.92,-103.21 386.39,-99.98 380.1,-99.09 380.92,-103.21"/>
</g>
<!-- src/user.ts -->
<g id="node20" class="node">
<title>src/user.ts</title>
<g id="a_node20"><a xlink:href="src/user.ts" xlink:title="user.ts">
<path fill="#ddfeff" stroke="black" d="M285,-104C285,-104 243,-104 243,-104 240,-104 237,-101 237,-98 237,-98 237,-92 237,-92 237,-89 240,-86 243,-86 243,-86 285,-86 285,-86 288,-86 291,-89 291,-92 291,-92 291,-98 291,-98 291,-101 288,-104 285,-104"/>
<text text-anchor="start" x="249.5" y="-92.8" font-family="Helvetica,sans-Serif" font-size="9.00">user.ts</text>
</a>
</g>
</g>
<!-- src/config.ts&#45;&gt;src/user.ts -->
<g id="edge18" class="edge">
<title>src/config.ts&#45;&gt;src/user.ts</title>
<path fill="none" stroke="#000000" stroke-width="2" stroke-opacity="0.200000" d="M164.2,-103.69C183.54,-101.99 209.96,-99.67 230.62,-97.85"/>
<polygon fill="#000000" fill-opacity="0.200000" stroke="#000000" stroke-width="2" stroke-opacity="0.200000" points="231.04,-99.92 236.83,-97.3 230.67,-95.74 231.04,-99.92"/>
</g>
<!-- src/user.ts&#45;&gt;src/utils/log.ts -->
<g id="edge27" class="edge">
<title>src/user.ts&#45;&gt;src/utils/log.ts</title>
<path fill="none" stroke="#000000" stroke-width="2" stroke-opacity="0.200000" d="M291.03,-95C315.84,-95 353.27,-95 380.02,-95"/>
<polygon fill="#000000" fill-opacity="0.200000" stroke="#000000" stroke-width="2" stroke-opacity="0.200000" points="380.23,-97.1 386.23,-95 380.23,-92.9 380.23,-97.1"/>
</g>
<!-- src/pubsub.ts -->
<g id="node22" class="node">
<title>src/pubsub.ts</title>
<g id="a_node22"><a xlink:href="src/pubsub.ts" xlink:title="pubsub.ts">
<path fill="#ddfeff" stroke="black" d="M160,-83C160,-83 114,-83 114,-83 111,-83 108,-80 108,-77 108,-77 108,-71 108,-71 108,-68 111,-65 114,-65 114,-65 160,-65 160,-65 163,-65 166,-68 166,-71 166,-71 166,-77 166,-77 166,-80 163,-83 160,-83"/>
<text text-anchor="start" x="116" y="-71.8" font-family="Helvetica,sans-Serif" font-size="9.00">pubsub.ts</text>
</a>
</g>
</g>
<!-- src/server.ts -->
<g id="node23" class="node">
<title>src/server.ts</title>
<g id="a_node23"><a xlink:href="src/server.ts" xlink:title="server.ts">
<path fill="#ddfeff" stroke="black" d="M72,-83C72,-83 30,-83 30,-83 27,-83 24,-80 24,-77 24,-77 24,-71 24,-71 24,-68 27,-65 30,-65 30,-65 72,-65 72,-65 75,-65 78,-68 78,-71 78,-71 78,-77 78,-77 78,-80 75,-83 72,-83"/>
<text text-anchor="start" x="33" y="-71.8" font-family="Helvetica,sans-Serif" font-size="9.00">server.ts</text>
</a>
</g>
</g>
<!-- src/server.ts&#45;&gt;src/utils/log.ts -->
<g id="edge23" class="edge">
<title>src/server.ts&#45;&gt;src/utils/log.ts</title>
<path fill="none" stroke="#000000" stroke-width="2" stroke-opacity="0.200000" d="M69.88,-64.91C95.34,-52.54 143.83,-31.01 188,-23 254.47,-10.95 289.02,21.33 340,-23 359.31,-39.78 330.73,-61.12 348,-80 356.19,-88.96 368.6,-93.08 380.35,-94.83"/>
<polygon fill="#000000" fill-opacity="0.200000" stroke="#000000" stroke-width="2" stroke-opacity="0.200000" points="380.21,-96.92 386.41,-95.54 380.7,-92.75 380.21,-96.92"/>
</g>
<!-- src/server.ts&#45;&gt;src/addressspace.ts -->
<g id="edge20" class="edge">
<title>src/server.ts&#45;&gt;src/addressspace.ts</title>
<path fill="none" stroke="#000000" stroke-width="2" stroke-opacity="0.200000" d="M78.17,-81.29C81.17,-83.07 83.9,-85.27 86,-88 91.66,-95.35 125.92,-380.37 134.2,-449.85"/>
<polygon fill="#000000" fill-opacity="0.200000" stroke="#000000" stroke-width="2" stroke-opacity="0.200000" points="132.12,-450.17 134.92,-455.88 136.29,-449.67 132.12,-450.17"/>
</g>
<!-- src/server.ts&#45;&gt;src/config.ts -->
<g id="edge21" class="edge">
<title>src/server.ts&#45;&gt;src/config.ts</title>
<path fill="none" stroke="#000000" stroke-width="2" stroke-opacity="0.200000" d="M75.85,-83.08C85.33,-86.7 96.35,-90.9 106.35,-94.7"/>
<polygon fill="#000000" fill-opacity="0.200000" stroke="#000000" stroke-width="2" stroke-opacity="0.200000" points="105.74,-96.72 112.09,-96.89 107.23,-92.79 105.74,-96.72"/>
</g>
<!-- src/server.ts&#45;&gt;src/pubsub.ts -->
<g id="edge22" class="edge">
<title>src/server.ts&#45;&gt;src/pubsub.ts</title>
<path fill="none" stroke="#000000" stroke-width="2" stroke-opacity="0.200000" d="M78.12,-74C85.49,-74 93.63,-74 101.42,-74"/>
<polygon fill="#000000" fill-opacity="0.200000" stroke="#000000" stroke-width="2" stroke-opacity="0.200000" points="101.86,-76.1 107.86,-74 101.86,-71.9 101.86,-76.1"/>
</g>
<!-- src/test/test.ts -->
<g id="node25" class="node">
<title>src/test/test.ts</title>
<g id="a_node25"><a xlink:href="src/test/test.ts" xlink:title="test.ts">
<path fill="#ddfeff" stroke="black" d="M72,-117C72,-117 30,-117 30,-117 27,-117 24,-114 24,-111 24,-111 24,-105 24,-105 24,-102 27,-99 30,-99 30,-99 72,-99 72,-99 75,-99 78,-102 78,-105 78,-105 78,-111 78,-111 78,-114 75,-117 72,-117"/>
<text text-anchor="start" x="38.5" y="-105.8" font-family="Helvetica,sans-Serif" font-size="9.00">test.ts</text>
</a>
</g>
</g>
<!-- src/test/test.ts&#45;&gt;src/config.ts -->
<g id="edge26" class="edge">
<title>src/test/test.ts&#45;&gt;src/config.ts</title>
<path fill="none" stroke="#000000" stroke-width="2" stroke-opacity="0.200000" d="M78.12,-107.38C86.18,-107.19 95.15,-106.97 103.58,-106.77"/>
<polygon fill="#000000" fill-opacity="0.200000" stroke="#000000" stroke-width="2" stroke-opacity="0.200000" points="103.95,-108.86 109.9,-106.62 103.85,-104.66 103.95,-108.86"/>
</g>
<!-- src/utils/userfile.ts -->
<g id="node26" class="node">
<title>src/utils/userfile.ts</title>
<g id="a_node26"><a xlink:href="src/utils/userfile.ts" xlink:title="userfile.ts">
<path fill="#ccffcc" stroke="black" d="M436,-74C436,-74 391,-74 391,-74 388,-74 385,-71 385,-68 385,-68 385,-62 385,-62 385,-59 388,-56 391,-56 391,-56 436,-56 436,-56 439,-56 442,-59 442,-62 442,-62 442,-68 442,-68 442,-71 439,-74 436,-74"/>
<text text-anchor="start" x="393" y="-62.8" font-family="Helvetica,sans-Serif" font-size="9.00">userfile.ts</text>
</a>
</g>
</g>
</g>
</svg>
