<?xml version="1.0" encoding="UTF-8" standalone="no"?>
<!DOCTYPE svg PUBLIC "-//W3C//DTD SVG 1.1//EN"
 "http://www.w3.org/Graphics/SVG/1.1/DTD/svg11.dtd">
<!-- Generated by graphviz version 2.46.0 (20210118.1747)
 -->
<!-- Title: dependency&#45;cruiser output Pages: 1 -->
<svg width="434pt" height="434pt"
 viewBox="0.00 0.00 434.00 434.00" xmlns="http://www.w3.org/2000/svg" xmlns:xlink="http://www.w3.org/1999/xlink">
<g id="graph0" class="graph" transform="scale(1 1) rotate(0) translate(4 430)">
<title>dependency&#45;cruiser output</title>
<polygon fill="white" stroke="transparent" points="-4,4 -4,-430 430,-430 430,4 -4,4"/>
<g id="clust1" class="cluster">
<title>cluster_src</title>
<path fill="#ffffff" stroke="black" stroke-width="2" d="M20,-8C20,-8 406,-8 406,-8 412,-8 418,-14 418,-20 418,-20 418,-406 418,-406 418,-412 412,-418 406,-418 406,-418 20,-418 20,-418 14,-418 8,-412 8,-406 8,-406 8,-20 8,-20 8,-14 14,-8 20,-8"/>
<text text-anchor="middle" x="213" y="-406.8" font-family="Helvetica,sans-Serif" font-weight="bold" font-size="9.00">src</text>
</g>
<g id="clust8" class="cluster">
<title>cluster_src/utils</title>
<path fill="#ffffff" stroke="black" stroke-width="2" d="M349,-146C349,-146 398,-146 398,-146 404,-146 410,-152 410,-158 410,-158 410,-216 410,-216 410,-222 404,-228 398,-228 398,-228 349,-228 349,-228 343,-228 337,-222 337,-216 337,-216 337,-158 337,-158 337,-152 343,-146 349,-146"/>
<text text-anchor="middle" x="373.5" y="-216.8" font-family="Helvetica,sans-Serif" font-weight="bold" font-size="9.00">utils</text>
</g>
<g id="clust2" class="cluster">
<title>cluster_src/LocalDiscoveryServer</title>
<path fill="#ffffff" stroke="black" stroke-width="2" d="M199,-340C199,-340 307,-340 307,-340 313,-340 319,-346 319,-352 319,-352 319,-380 319,-380 319,-386 313,-392 307,-392 307,-392 199,-392 199,-392 193,-392 187,-386 187,-380 187,-380 187,-352 187,-352 187,-346 193,-340 199,-340"/>
<text text-anchor="middle" x="253" y="-380.8" font-family="Helvetica,sans-Serif" font-weight="bold" font-size="9.00">LocalDiscoveryServer</text>
</g>
<g id="clust3" class="cluster">
<title>cluster_src/machines</title>
<path fill="#ffffff" stroke="black" stroke-width="2" d="M189,-40C189,-40 317,-40 317,-40 323,-40 329,-46 329,-52 329,-52 329,-234 329,-234 329,-240 323,-246 317,-246 317,-246 189,-246 189,-246 183,-246 177,-240 177,-234 177,-234 177,-52 177,-52 177,-46 183,-40 189,-40"/>
<text text-anchor="middle" x="253" y="-234.8" font-family="Helvetica,sans-Serif" font-weight="bold" font-size="9.00">machines</text>
</g>
<g id="clust4" class="cluster">
<title>cluster_src/machines/machinetool</title>
<path fill="#ffffff" stroke="black" stroke-width="2" d="M197,-168C197,-168 309,-168 309,-168 315,-168 321,-174 321,-180 321,-180 321,-208 321,-208 321,-214 315,-220 309,-220 309,-220 197,-220 197,-220 191,-220 185,-214 185,-208 185,-208 185,-180 185,-180 185,-174 191,-168 197,-168"/>
<text text-anchor="middle" x="253" y="-208.8" font-family="Helvetica,sans-Serif" font-weight="bold" font-size="9.00">machinetool</text>
</g>
<g id="clust5" class="cluster">
<title>cluster_src/machines/mymachine</title>
<path fill="#ffffff" stroke="black" stroke-width="2" d="M220,-108C220,-108 286,-108 286,-108 292,-108 298,-114 298,-120 298,-120 298,-148 298,-148 298,-154 292,-160 286,-160 286,-160 220,-160 220,-160 214,-160 208,-154 208,-148 208,-148 208,-120 208,-120 208,-114 214,-108 220,-108"/>
<text text-anchor="middle" x="253" y="-148.8" font-family="Helvetica,sans-Serif" font-weight="bold" font-size="9.00">mymachine</text>
</g>
<g id="clust6" class="cluster">
<title>cluster_src/machines/sample_imm</title>
<path fill="#ffffff" stroke="black" stroke-width="2" d="M216,-48C216,-48 290,-48 290,-48 296,-48 302,-54 302,-60 302,-60 302,-88 302,-88 302,-94 296,-100 290,-100 290,-100 216,-100 216,-100 210,-100 204,-94 204,-88 204,-88 204,-60 204,-60 204,-54 210,-48 216,-48"/>
<text text-anchor="middle" x="253" y="-88.8" font-family="Helvetica,sans-Serif" font-weight="bold" font-size="9.00">sample_imm</text>
</g>
<g id="clust7" class="cluster">
<title>cluster_src/serveraddressspace</title>
<path fill="#ffffff" stroke="black" stroke-width="2" d="M201,-254C201,-254 305,-254 305,-254 311,-254 317,-260 317,-266 317,-266 317,-294 317,-294 317,-300 311,-306 305,-306 305,-306 201,-306 201,-306 195,-306 189,-300 189,-294 189,-294 189,-266 189,-266 189,-260 195,-254 201,-254"/>
<text text-anchor="middle" x="253" y="-294.8" font-family="Helvetica,sans-Serif" font-weight="bold" font-size="9.00">serveraddressspace</text>
</g>
<!-- src/LocalDiscoveryServer/local&#45;discovery&#45;server.ts -->
<g id="node1" class="node">
<title>src/LocalDiscoveryServer/local&#45;discovery&#45;server.ts</title>
<g id="a_node1"><a xlink:href="src/LocalDiscoveryServer/local-discovery-server.ts" xlink:title="local&#45;discovery&#45;server.ts">
<path fill="#ddfeff" stroke="black" d="M305,-366C305,-366 201,-366 201,-366 198,-366 195,-363 195,-360 195,-360 195,-354 195,-354 195,-351 198,-348 201,-348 201,-348 305,-348 305,-348 308,-348 311,-351 311,-354 311,-354 311,-360 311,-360 311,-363 308,-366 305,-366"/>
<text text-anchor="middle" x="253" y="-354.8" font-family="Helvetica,sans-Serif" font-size="9.00">local&#45;discovery&#45;server.ts</text>
</a>
</g>
</g>
<!-- src/utils/log.ts -->
<g id="node2" class="node">
<title>src/utils/log.ts</title>
<g id="a_node2"><a xlink:href="src/utils/log.ts" xlink:title="log.ts">
<path fill="#ddfeff" stroke="black" d="M394.5,-202C394.5,-202 352.5,-202 352.5,-202 349.5,-202 346.5,-199 346.5,-196 346.5,-196 346.5,-190 346.5,-190 346.5,-187 349.5,-184 352.5,-184 352.5,-184 394.5,-184 394.5,-184 397.5,-184 400.5,-187 400.5,-190 400.5,-190 400.5,-196 400.5,-196 400.5,-199 397.5,-202 394.5,-202"/>
<text text-anchor="middle" x="373.5" y="-190.8" font-family="Helvetica,sans-Serif" font-size="9.00">log.ts</text>
</a>
</g>
</g>
<!-- src/LocalDiscoveryServer/local&#45;discovery&#45;server.ts&#45;&gt;src/utils/log.ts -->
<g id="edge1" class="edge">
<title>src/LocalDiscoveryServer/local&#45;discovery&#45;server.ts&#45;&gt;src/utils/log.ts</title>
<path fill="none" stroke="#000000" stroke-width="2" stroke-opacity="0.200000" d="M311.23,-354.13C317.75,-351.85 323.88,-348.59 329,-344 368.66,-308.44 373.13,-239.3 373.01,-208.47"/>
<polygon fill="#000000" fill-opacity="0.200000" stroke="#000000" stroke-width="2" stroke-opacity="0.200000" points="375.11,-208.14 372.92,-202.17 370.91,-208.2 375.11,-208.14"/>
</g>
<!-- src/addressspace.ts -->
<g id="node3" class="node">
<title>src/addressspace.ts</title>
<g id="a_node3"><a xlink:href="src/addressspace.ts" xlink:title="addressspace.ts">
<path fill="#ddfeff" stroke="black" d="M163,-134C163,-134 89,-134 89,-134 86,-134 83,-131 83,-128 83,-128 83,-122 83,-122 83,-119 86,-116 89,-116 89,-116 163,-116 163,-116 166,-116 169,-119 169,-122 169,-122 169,-128 169,-128 169,-131 166,-134 163,-134"/>
<text text-anchor="middle" x="126" y="-122.8" font-family="Helvetica,sans-Serif" font-size="9.00">addressspace.ts</text>
</a>
</g>
</g>
<!-- src/addressspace.ts&#45;&gt;src/utils/log.ts -->
<g id="edge6" class="edge">
<title>src/addressspace.ts&#45;&gt;src/utils/log.ts</title>
<path fill="none" stroke="#000000" stroke-width="2" stroke-opacity="0.200000" d="M129.49,-115.91C134.82,-98.4 149.21,-60.4 177,-45 206.54,-28.63 304.41,-21.84 329,-45 339.78,-55.15 328.45,-165.91 337,-178 338.2,-179.69 339.63,-181.2 341.21,-182.53"/>
<polygon fill="#000000" fill-opacity="0.200000" stroke="#000000" stroke-width="2" stroke-opacity="0.200000" points="340.23,-184.4 346.36,-186.05 342.59,-180.93 340.23,-184.4"/>
</g>
<!-- src/machines/machinetool/showcasemachinetool.ts -->
<g id="node4" class="node">
<title>src/machines/machinetool/showcasemachinetool.ts</title>
<g id="a_node4"><a xlink:href="src/machines/machinetool/showcasemachinetool.ts" xlink:title="showcasemachinetool.ts">
<path fill="#ddfeff" stroke="black" d="M307,-194C307,-194 199,-194 199,-194 196,-194 193,-191 193,-188 193,-188 193,-182 193,-182 193,-179 196,-176 199,-176 199,-176 307,-176 307,-176 310,-176 313,-179 313,-182 313,-182 313,-188 313,-188 313,-191 310,-194 307,-194"/>
<text text-anchor="middle" x="253" y="-182.8" font-family="Helvetica,sans-Serif" font-size="9.00">showcasemachinetool.ts</text>
</a>
</g>
</g>
<!-- src/addressspace.ts&#45;&gt;src/machines/machinetool/showcasemachinetool.ts -->
<g id="edge2" class="edge">
<title>src/addressspace.ts&#45;&gt;src/machines/machinetool/showcasemachinetool.ts</title>
<path fill="none" stroke="#000000" stroke-width="2" stroke-opacity="0.200000" d="M136.61,-134.03C146.18,-142.58 161.62,-155.24 177,-163 185.83,-167.46 195.71,-171.16 205.32,-174.18"/>
<polygon fill="#000000" fill-opacity="0.200000" stroke="#000000" stroke-width="2" stroke-opacity="0.200000" points="204.92,-176.25 211.27,-175.97 206.13,-172.22 204.92,-176.25"/>
</g>
<!-- src/machines/mymachine/mymachine.ts -->
<g id="node5" class="node">
<title>src/machines/mymachine/mymachine.ts</title>
<g id="a_node5"><a xlink:href="src/machines/mymachine/mymachine.ts" xlink:title="mymachine.ts">
<path fill="#ddfeff" stroke="black" d="M284,-134C284,-134 222,-134 222,-134 219,-134 216,-131 216,-128 216,-128 216,-122 216,-122 216,-119 219,-116 222,-116 222,-116 284,-116 284,-116 287,-116 290,-119 290,-122 290,-122 290,-128 290,-128 290,-131 287,-134 284,-134"/>
<text text-anchor="middle" x="253" y="-122.8" font-family="Helvetica,sans-Serif" font-size="9.00">mymachine.ts</text>
</a>
</g>
</g>
<!-- src/addressspace.ts&#45;&gt;src/machines/mymachine/mymachine.ts -->
<g id="edge3" class="edge">
<title>src/addressspace.ts&#45;&gt;src/machines/mymachine/mymachine.ts</title>
<path fill="none" stroke="#000000" stroke-width="2" stroke-opacity="0.200000" d="M169.32,-125C182.34,-125 196.68,-125 209.7,-125"/>
<polygon fill="#000000" fill-opacity="0.200000" stroke="#000000" stroke-width="2" stroke-opacity="0.200000" points="209.98,-127.1 215.98,-125 209.98,-122.9 209.98,-127.1"/>
</g>
<!-- src/machines/sample_imm/sample_imm.ts -->
<g id="node6" class="node">
<title>src/machines/sample_imm/sample_imm.ts</title>
<g id="a_node6"><a xlink:href="src/machines/sample_imm/sample_imm.ts" xlink:title="sample_imm.ts">
<path fill="#ddfeff" stroke="black" d="M288,-74C288,-74 218,-74 218,-74 215,-74 212,-71 212,-68 212,-68 212,-62 212,-62 212,-59 215,-56 218,-56 218,-56 288,-56 288,-56 291,-56 294,-59 294,-62 294,-62 294,-68 294,-68 294,-71 291,-74 288,-74"/>
<text text-anchor="middle" x="253" y="-62.8" font-family="Helvetica,sans-Serif" font-size="9.00">sample_imm.ts</text>
</a>
</g>
</g>
<!-- src/addressspace.ts&#45;&gt;src/machines/sample_imm/sample_imm.ts -->
<g id="edge4" class="edge">
<title>src/addressspace.ts&#45;&gt;src/machines/sample_imm/sample_imm.ts</title>
<path fill="none" stroke="#000000" stroke-width="2" stroke-opacity="0.200000" d="M145.98,-115.89C167.86,-105.39 203.86,-88.11 227.75,-76.64"/>
<polygon fill="#000000" fill-opacity="0.200000" stroke="#000000" stroke-width="2" stroke-opacity="0.200000" points="228.75,-78.49 233.25,-74 226.93,-74.71 228.75,-78.49"/>
</g>
<!-- src/serveraddressspace/serveraddressspace.ts -->
<g id="node7" class="node">
<title>src/serveraddressspace/serveraddressspace.ts</title>
<g id="a_node7"><a xlink:href="src/serveraddressspace/serveraddressspace.ts" xlink:title="serveraddressspace.ts">
<path fill="#ddfeff" stroke="black" d="M303,-280C303,-280 203,-280 203,-280 200,-280 197,-277 197,-274 197,-274 197,-268 197,-268 197,-265 200,-262 203,-262 203,-262 303,-262 303,-262 306,-262 309,-265 309,-268 309,-268 309,-274 309,-274 309,-277 306,-280 303,-280"/>
<text text-anchor="middle" x="253" y="-268.8" font-family="Helvetica,sans-Serif" font-size="9.00">serveraddressspace.ts</text>
</a>
</g>
</g>
<!-- src/addressspace.ts&#45;&gt;src/serveraddressspace/serveraddressspace.ts -->
<g id="edge5" class="edge">
<title>src/addressspace.ts&#45;&gt;src/serveraddressspace/serveraddressspace.ts</title>
<path fill="none" stroke="#000000" stroke-width="2" stroke-opacity="0.200000" d="M129.81,-134.06C135.9,-152.56 151.85,-195.27 177,-223 190.87,-238.3 210.69,-250.7 226.47,-259.06"/>
<polygon fill="#000000" fill-opacity="0.200000" stroke="#000000" stroke-width="2" stroke-opacity="0.200000" points="225.79,-261.08 232.09,-261.96 227.72,-257.34 225.79,-261.08"/>
</g>
<!-- src/config.ts -->
<g id="node8" class="node">
<title>src/config.ts</title>
<g id="a_node8"><a xlink:href="src/config.ts" xlink:title="config.ts">
<path fill="#ddfeff" stroke="black" d="M147,-248C147,-248 105,-248 105,-248 102,-248 99,-245 99,-242 99,-242 99,-236 99,-236 99,-233 102,-230 105,-230 105,-230 147,-230 147,-230 150,-230 153,-233 153,-236 153,-236 153,-242 153,-242 153,-245 150,-248 147,-248"/>
<text text-anchor="middle" x="126" y="-236.8" font-family="Helvetica,sans-Serif" font-size="9.00">config.ts</text>
</a>
</g>
</g>
<!-- src/user.ts -->
<g id="node9" class="node">
<title>src/user.ts</title>
<g id="a_node9"><a xlink:href="src/user.ts" xlink:title="user.ts">
<path fill="#ddfeff" stroke="black" d="M274,-332C274,-332 232,-332 232,-332 229,-332 226,-329 226,-326 226,-326 226,-320 226,-320 226,-317 229,-314 232,-314 232,-314 274,-314 274,-314 277,-314 280,-317 280,-320 280,-320 280,-326 280,-326 280,-329 277,-332 274,-332"/>
<text text-anchor="middle" x="253" y="-320.8" font-family="Helvetica,sans-Serif" font-size="9.00">user.ts</text>
</a>
</g>
</g>
<!-- src/config.ts&#45;&gt;src/user.ts -->
<g id="edge7" class="edge">
<title>src/config.ts&#45;&gt;src/user.ts</title>
<path fill="none" stroke="#000000" stroke-width="2" stroke-opacity="0.200000" d="M130.92,-248.49C137.8,-263.88 153.58,-294.07 177,-309 189.59,-317.03 205.64,-320.7 219.65,-322.3"/>
<polygon fill="#000000" fill-opacity="0.200000" stroke="#000000" stroke-width="2" stroke-opacity="0.200000" points="219.76,-324.42 225.93,-322.89 220.16,-320.23 219.76,-324.42"/>
</g>
<!-- src/user.ts&#45;&gt;src/utils/log.ts -->
<g id="edge11" class="edge">
<title>src/user.ts&#45;&gt;src/utils/log.ts</title>
<path fill="none" stroke="#000000" stroke-width="2" stroke-opacity="0.200000" d="M280.32,-324.24C296.09,-323.61 315.61,-320.24 329,-309 359.7,-283.23 368.75,-233.51 371.41,-208.37"/>
<polygon fill="#000000" fill-opacity="0.200000" stroke="#000000" stroke-width="2" stroke-opacity="0.200000" points="373.51,-208.42 371.98,-202.25 369.33,-208.03 373.51,-208.42"/>
</g>
<!-- src/server.ts -->
<g id="node10" class="node">
<title>src/server.ts</title>
<g id="a_node10"><a xlink:href="src/server.ts" xlink:title="server.ts">
<path fill="#ddfeff" stroke="black" d="M64,-134C64,-134 22,-134 22,-134 19,-134 16,-131 16,-128 16,-128 16,-122 16,-122 16,-119 19,-116 22,-116 22,-116 64,-116 64,-116 67,-116 70,-119 70,-122 70,-122 70,-128 70,-128 70,-131 67,-134 64,-134"/>
<text text-anchor="middle" x="43" y="-122.8" font-family="Helvetica,sans-Serif" font-size="9.00">server.ts</text>
</a>
</g>
</g>
<!-- src/server.ts&#45;&gt;src/utils/log.ts -->
<g id="edge10" class="edge">
<title>src/server.ts&#45;&gt;src/utils/log.ts</title>
<path fill="none" stroke="#000000" stroke-width="2" stroke-opacity="0.200000" d="M53.55,-115.79C92.98,-78.87 244.91,52.75 329,-27 341.19,-38.56 327.35,-164.25 337,-178 338.19,-179.7 339.62,-181.2 341.2,-182.54"/>
<polygon fill="#000000" fill-opacity="0.200000" stroke="#000000" stroke-width="2" stroke-opacity="0.200000" points="340.21,-184.41 346.34,-186.06 342.58,-180.94 340.21,-184.41"/>
</g>
<!-- src/server.ts&#45;&gt;src/addressspace.ts -->
<g id="edge8" class="edge">
<title>src/server.ts&#45;&gt;src/addressspace.ts</title>
<path fill="none" stroke="#000000" stroke-width="2" stroke-opacity="0.200000" d="M70.07,-125C72.24,-125 74.46,-125 76.72,-125"/>
<polygon fill="#000000" fill-opacity="0.200000" stroke="#000000" stroke-width="2" stroke-opacity="0.200000" points="76.76,-127.1 82.76,-125 76.76,-122.9 76.76,-127.1"/>
</g>
<!-- src/server.ts&#45;&gt;src/config.ts -->
<g id="edge9" class="edge">
<title>src/server.ts&#45;&gt;src/config.ts</title>
<path fill="none" stroke="#000000" stroke-width="2" stroke-opacity="0.200000" d="M50.63,-134.33C64.82,-154.3 98.21,-201.3 115,-224.92"/>
<polygon fill="#000000" fill-opacity="0.200000" stroke="#000000" stroke-width="2" stroke-opacity="0.200000" points="113.32,-226.19 118.51,-229.86 116.74,-223.75 113.32,-226.19"/>
</g>
<!-- src/utils/userfile.ts -->
<g id="node11" class="node">
<title>src/utils/userfile.ts</title>
<g id="a_node11"><a xlink:href="src/utils/userfile.ts" xlink:title="userfile.ts">
<path fill="#ccffcc" stroke="black" d="M396,-172C396,-172 351,-172 351,-172 348,-172 345,-169 345,-166 345,-166 345,-160 345,-160 345,-157 348,-154 351,-154 351,-154 396,-154 396,-154 399,-154 402,-157 402,-160 402,-160 402,-166 402,-166 402,-169 399,-172 396,-172"/>
<text text-anchor="middle" x="373.5" y="-160.8" font-family="Helvetica,sans-Serif" font-size="9.00">userfile.ts</text>
</a>
</g>
</g>
</g>
</svg>
