<?xml version="1.0" encoding="UTF-8" standalone="no"?>
<!DOCTYPE svg PUBLIC "-//W3C//DTD SVG 1.1//EN"
 "http://www.w3.org/Graphics/SVG/1.1/DTD/svg11.dtd">
<!-- Generated by graphviz version 12.2.0 (20241103.1931)
 -->
<!-- Title: dependency&#45;cruiser output Pages: 1 -->
<svg width="495pt" height="1193pt"
 viewBox="0.00 0.00 495.25 1193.00" xmlns="http://www.w3.org/2000/svg" xmlns:xlink="http://www.w3.org/1999/xlink">
<g id="graph0" class="graph" transform="scale(1 1) rotate(0) translate(4 1189)">
<title>dependency&#45;cruiser output</title>
<polygon fill="white" stroke="none" points="-4,4 -4,-1189 491.25,-1189 491.25,4 -4,4"/>
<g id="clust1" class="cluster">
<title>cluster_src</title>
<path fill="#ffffff" stroke="black" stroke-width="2" d="M20,-8C20,-8 467.25,-8 467.25,-8 473.25,-8 479.25,-14 479.25,-20 479.25,-20 479.25,-1165 479.25,-1165 479.25,-1171 473.25,-1177 467.25,-1177 467.25,-1177 20,-1177 20,-1177 14,-1177 8,-1171 8,-1165 8,-1165 8,-20 8,-20 8,-14 14,-8 20,-8"/>
<text text-anchor="middle" x="243.62" y="-1164.45" font-family="Helvetica,sans-Serif" font-weight="bold" font-size="9.00">src</text>
</g>
<g id="clust2" class="cluster">
<title>cluster_src/LocalDiscoveryServer</title>
<path fill="#ffffff" stroke="black" stroke-width="2" d="M206.62,-16C206.62,-16 312.88,-16 312.88,-16 318.88,-16 324.88,-22 324.88,-28 324.88,-28 324.88,-57 324.88,-57 324.88,-63 318.88,-69 312.88,-69 312.88,-69 206.62,-69 206.62,-69 200.62,-69 194.62,-63 194.62,-57 194.62,-57 194.62,-28 194.62,-28 194.62,-22 200.62,-16 206.62,-16"/>
<text text-anchor="middle" x="259.75" y="-56.45" font-family="Helvetica,sans-Serif" font-weight="bold" font-size="9.00">LocalDiscoveryServer</text>
</g>
<g id="clust3" class="cluster">
<title>cluster_src/machines</title>
<path fill="#ffffff" stroke="black" stroke-width="2" d="M196.75,-145C196.75,-145 438.38,-145 438.38,-145 444.38,-145 450.38,-151 450.38,-157 450.38,-157 450.38,-1051 450.38,-1051 450.38,-1057 444.38,-1063 438.38,-1063 438.38,-1063 196.75,-1063 196.75,-1063 190.75,-1063 184.75,-1057 184.75,-1051 184.75,-1051 184.75,-157 184.75,-157 184.75,-151 190.75,-145 196.75,-145"/>
<text text-anchor="middle" x="317.56" y="-1050.45" font-family="Helvetica,sans-Serif" font-weight="bold" font-size="9.00">machines</text>
</g>
<g id="clust4" class="cluster">
<title>cluster_src/machines/LaserSystem</title>
<path fill="#ffffff" stroke="black" stroke-width="2" d="M224.62,-153C224.62,-153 294.88,-153 294.88,-153 300.88,-153 306.88,-159 306.88,-165 306.88,-165 306.88,-194 306.88,-194 306.88,-200 300.88,-206 294.88,-206 294.88,-206 224.62,-206 224.62,-206 218.62,-206 212.62,-200 212.62,-194 212.62,-194 212.62,-165 212.62,-165 212.62,-159 218.62,-153 224.62,-153"/>
<text text-anchor="middle" x="259.75" y="-193.45" font-family="Helvetica,sans-Serif" font-weight="bold" font-size="9.00">LaserSystem</text>
</g>
<g id="clust5" class="cluster">
<title>cluster_src/machines/MetalForming</title>
<path fill="#ffffff" stroke="black" stroke-width="2" d="M205.5,-214C205.5,-214 314,-214 314,-214 320,-214 326,-220 326,-226 326,-226 326,-255 326,-255 326,-261 320,-267 314,-267 314,-267 205.5,-267 205.5,-267 199.5,-267 193.5,-261 193.5,-255 193.5,-255 193.5,-226 193.5,-226 193.5,-220 199.5,-214 205.5,-214"/>
<text text-anchor="middle" x="259.75" y="-254.45" font-family="Helvetica,sans-Serif" font-weight="bold" font-size="9.00">MetalForming</text>
</g>
<g id="clust6" class="cluster">
<title>cluster_src/machines/MyControledMachine</title>
<path fill="#ffffff" stroke="black" stroke-width="2" d="M231,-275C231,-275 422,-275 422,-275 428,-275 434,-281 434,-287 434,-287 434,-347 434,-347 434,-353 428,-359 422,-359 422,-359 231,-359 231,-359 225,-359 219,-353 219,-347 219,-347 219,-287 219,-287 219,-281 225,-275 231,-275"/>
<text text-anchor="middle" x="326.5" y="-346.45" font-family="Helvetica,sans-Serif" font-weight="bold" font-size="9.00">MyControledMachine</text>
</g>
<g id="clust7" class="cluster">
<title>cluster_src/machines/PlasticsRubber</title>
<path fill="#ffffff" stroke="black" stroke-width="2" d="M231.25,-367C231.25,-367 289.25,-367 289.25,-367 295.25,-367 301.25,-373 301.25,-379 301.25,-379 301.25,-656 301.25,-656 301.25,-662 295.25,-668 289.25,-668 289.25,-668 231.25,-668 231.25,-668 225.25,-668 219.25,-662 219.25,-656 219.25,-656 219.25,-379 219.25,-379 219.25,-373 225.25,-367 231.25,-367"/>
<text text-anchor="middle" x="260.25" y="-655.45" font-family="Helvetica,sans-Serif" font-weight="bold" font-size="9.00">PlasticsRubber</text>
</g>
<g id="clust8" class="cluster">
<title>cluster_src/machines/WoodWorking</title>
<path fill="#ffffff" stroke="black" stroke-width="2" d="M231,-676C231,-676 288.5,-676 288.5,-676 294.5,-676 300.5,-682 300.5,-688 300.5,-688 300.5,-748 300.5,-748 300.5,-754 294.5,-760 288.5,-760 288.5,-760 231,-760 231,-760 225,-760 219,-754 219,-748 219,-748 219,-688 219,-688 219,-682 225,-676 231,-676"/>
<text text-anchor="middle" x="259.75" y="-747.45" font-family="Helvetica,sans-Serif" font-weight="bold" font-size="9.00">WoodWorking</text>
</g>
<g id="clust9" class="cluster">
<title>cluster_src/machines/machinetool</title>
<path fill="#ffffff" stroke="black" stroke-width="2" d="M204.75,-768C204.75,-768 314.75,-768 314.75,-768 320.75,-768 326.75,-774 326.75,-780 326.75,-780 326.75,-902 326.75,-902 326.75,-908 320.75,-914 314.75,-914 314.75,-914 204.75,-914 204.75,-914 198.75,-914 192.75,-908 192.75,-902 192.75,-902 192.75,-780 192.75,-780 192.75,-774 198.75,-768 204.75,-768"/>
<text text-anchor="middle" x="259.75" y="-901.45" font-family="Helvetica,sans-Serif" font-weight="bold" font-size="9.00">machinetool</text>
</g>
<g id="clust10" class="cluster">
<title>cluster_src/machines/motiondevicesystem</title>
<path fill="#ffffff" stroke="black" stroke-width="2" d="M209.62,-922C209.62,-922 309.88,-922 309.88,-922 315.88,-922 321.88,-928 321.88,-934 321.88,-934 321.88,-963 321.88,-963 321.88,-969 315.88,-975 309.88,-975 309.88,-975 209.62,-975 209.62,-975 203.62,-975 197.62,-969 197.62,-963 197.62,-963 197.62,-934 197.62,-934 197.62,-928 203.62,-922 209.62,-922"/>
<text text-anchor="middle" x="259.75" y="-962.45" font-family="Helvetica,sans-Serif" font-weight="bold" font-size="9.00">motiondevicesystem</text>
</g>
<g id="clust11" class="cluster">
<title>cluster_src/machines/mymachine</title>
<path fill="#ffffff" stroke="black" stroke-width="2" d="M227.62,-983C227.62,-983 430.38,-983 430.38,-983 436.38,-983 442.38,-989 442.38,-995 442.38,-995 442.38,-1024 442.38,-1024 442.38,-1030 436.38,-1036 430.38,-1036 430.38,-1036 227.62,-1036 227.62,-1036 221.62,-1036 215.62,-1030 215.62,-1024 215.62,-1024 215.62,-995 215.62,-995 215.62,-989 221.62,-983 227.62,-983"/>
<text text-anchor="middle" x="329" y="-1023.45" font-family="Helvetica,sans-Serif" font-weight="bold" font-size="9.00">mymachine</text>
</g>
<g id="clust12" class="cluster">
<title>cluster_src/serveraddressspace</title>
<path fill="#ffffff" stroke="black" stroke-width="2" d="M209.62,-1097C209.62,-1097 459.25,-1097 459.25,-1097 465.25,-1097 471.25,-1103 471.25,-1109 471.25,-1109 471.25,-1138 471.25,-1138 471.25,-1144 465.25,-1150 459.25,-1150 459.25,-1150 209.62,-1150 209.62,-1150 203.62,-1150 197.62,-1144 197.62,-1138 197.62,-1138 197.62,-1109 197.62,-1109 197.62,-1103 203.62,-1097 209.62,-1097"/>
<text text-anchor="middle" x="334.44" y="-1137.45" font-family="Helvetica,sans-Serif" font-weight="bold" font-size="9.00">serveraddressspace</text>
</g>
<g id="clust13" class="cluster">
<title>cluster_src/test</title>
<path fill="#ffffff" stroke="black" stroke-width="2" d="M28,-45C28,-45 74,-45 74,-45 80,-45 86,-51 86,-57 86,-57 86,-86 86,-86 86,-92 80,-98 74,-98 74,-98 28,-98 28,-98 22,-98 16,-92 16,-86 16,-86 16,-57 16,-57 16,-51 22,-45 28,-45"/>
<text text-anchor="middle" x="51" y="-85.45" font-family="Helvetica,sans-Serif" font-weight="bold" font-size="9.00">test</text>
</g>
<g id="clust14" class="cluster">
<title>cluster_src/utils</title>
<path fill="#ffffff" stroke="black" stroke-width="2" d="M375.5,-53C375.5,-53 422.5,-53 422.5,-53 428.5,-53 434.5,-59 434.5,-65 434.5,-65 434.5,-125 434.5,-125 434.5,-131 428.5,-137 422.5,-137 422.5,-137 375.5,-137 375.5,-137 369.5,-137 363.5,-131 363.5,-125 363.5,-125 363.5,-65 363.5,-65 363.5,-59 369.5,-53 375.5,-53"/>
<text text-anchor="middle" x="399" y="-124.45" font-family="Helvetica,sans-Serif" font-weight="bold" font-size="9.00">utils</text>
</g>
<!-- src/LocalDiscoveryServer/local&#45;discovery&#45;server.ts -->
<g id="node1" class="node">
<title>src/LocalDiscoveryServer/local&#45;discovery&#45;server.ts</title>
<g id="a_node1"><a xlink:href="src/LocalDiscoveryServer/local-discovery-server.ts" xlink:title="local&#45;discovery&#45;server.ts">
<path fill="#ddfeff" stroke="black" d="M310.71,-42.25C310.71,-42.25 208.79,-42.25 208.79,-42.25 205.71,-42.25 202.62,-39.17 202.62,-36.08 202.62,-36.08 202.62,-29.92 202.62,-29.92 202.62,-26.83 205.71,-23.75 208.79,-23.75 208.79,-23.75 310.71,-23.75 310.71,-23.75 313.79,-23.75 316.88,-26.83 316.88,-29.92 316.88,-29.92 316.88,-36.08 316.88,-36.08 316.88,-39.17 313.79,-42.25 310.71,-42.25"/>
<text text-anchor="start" x="210.62" y="-29.7" font-family="Helvetica,sans-Serif" font-size="9.00">local&#45;discovery&#45;server.ts</text>
</a>
</g>
</g>
<!-- src/utils/log.ts -->
<g id="node2" class="node">
<title>src/utils/log.ts</title>
<g id="a_node2"><a xlink:href="src/utils/log.ts" xlink:title="log.ts">
<path fill="#ddfeff" stroke="black" d="M419.83,-79.25C419.83,-79.25 378.17,-79.25 378.17,-79.25 375.08,-79.25 372,-76.17 372,-73.08 372,-73.08 372,-66.92 372,-66.92 372,-63.83 375.08,-60.75 378.17,-60.75 378.17,-60.75 419.83,-60.75 419.83,-60.75 422.92,-60.75 426,-63.83 426,-66.92 426,-66.92 426,-73.08 426,-73.08 426,-76.17 422.92,-79.25 419.83,-79.25"/>
<text text-anchor="start" x="388.12" y="-66.7" font-family="Helvetica,sans-Serif" font-size="9.00">log.ts</text>
</a>
</g>
</g>
<!-- src/LocalDiscoveryServer/local&#45;discovery&#45;server.ts&#45;&gt;src/utils/log.ts -->
<g id="edge1" class="edge">
<title>src/LocalDiscoveryServer/local&#45;discovery&#45;server.ts&#45;&gt;src/utils/log.ts</title>
<path fill="none" stroke="#000000" stroke-width="2" stroke-opacity="0.200000" d="M313.49,-42.75C317.99,-43.77 322.46,-44.86 326.75,-46 338.81,-49.21 351.81,-53.36 363.35,-57.32"/>
<polygon fill="#000000" fill-opacity="0.200000" stroke="#000000" stroke-width="2" stroke-opacity="0.200000" points="362.64,-59.29 369,-59.29 364.02,-55.33 362.64,-59.29"/>
</g>
<!-- src/addressspace.ts -->
<g id="node3" class="node">
<title>src/addressspace.ts</title>
<g id="a_node3"><a xlink:href="src/addressspace.ts" xlink:title="addressspace.ts">
<path fill="#ddfeff" stroke="black" d="M170.58,-579.25C170.58,-579.25 100.17,-579.25 100.17,-579.25 97.08,-579.25 94,-576.17 94,-573.08 94,-573.08 94,-566.92 94,-566.92 94,-563.83 97.08,-560.75 100.17,-560.75 100.17,-560.75 170.58,-560.75 170.58,-560.75 173.67,-560.75 176.75,-563.83 176.75,-566.92 176.75,-566.92 176.75,-573.08 176.75,-573.08 176.75,-576.17 173.67,-579.25 170.58,-579.25"/>
<text text-anchor="start" x="102" y="-566.7" font-family="Helvetica,sans-Serif" font-size="9.00">addressspace.ts</text>
</a>
</g>
</g>
<!-- src/addressspace.ts&#45;&gt;src/utils/log.ts -->
<g id="edge23" class="edge">
<title>src/addressspace.ts&#45;&gt;src/utils/log.ts</title>
<path fill="none" stroke="#000000" stroke-width="2" stroke-opacity="0.200000" d="M136.8,-560.43C139.53,-500.73 155.45,-180.89 184.75,-150 228.8,-103.56 280.82,-170.58 326.75,-126 339.76,-113.37 322.26,-99.14 334.75,-86 342.13,-78.24 352.68,-74.03 363.06,-71.81"/>
<polygon fill="#000000" fill-opacity="0.200000" stroke="#000000" stroke-width="2" stroke-opacity="0.200000" points="363.1,-73.93 368.68,-70.87 362.41,-69.78 363.1,-73.93"/>
</g>
<!-- src/machines/LaserSystem/LaserSystem.ts -->
<g id="node4" class="node">
<title>src/machines/LaserSystem/LaserSystem.ts</title>
<g id="a_node4"><a xlink:href="src/machines/LaserSystem/LaserSystem.ts" xlink:title="LaserSystem.ts">
<path fill="#ddfeff" stroke="black" d="M292.71,-179.25C292.71,-179.25 226.79,-179.25 226.79,-179.25 223.71,-179.25 220.62,-176.17 220.62,-173.08 220.62,-173.08 220.62,-166.92 220.62,-166.92 220.62,-163.83 223.71,-160.75 226.79,-160.75 226.79,-160.75 292.71,-160.75 292.71,-160.75 295.79,-160.75 298.88,-163.83 298.88,-166.92 298.88,-166.92 298.88,-173.08 298.88,-173.08 298.88,-176.17 295.79,-179.25 292.71,-179.25"/>
<text text-anchor="start" x="228.62" y="-166.7" font-family="Helvetica,sans-Serif" font-size="9.00">LaserSystem.ts</text>
</a>
</g>
</g>
<!-- src/addressspace.ts&#45;&gt;src/machines/LaserSystem/LaserSystem.ts -->
<g id="edge2" class="edge">
<title>src/addressspace.ts&#45;&gt;src/machines/LaserSystem/LaserSystem.ts</title>
<path fill="none" stroke="#000000" stroke-width="2" stroke-opacity="0.200000" d="M136.53,-560.52C137.5,-509.76 144.22,-270.33 184.75,-211 193.19,-198.65 206.63,-189.63 219.75,-183.26"/>
<polygon fill="#000000" fill-opacity="0.200000" stroke="#000000" stroke-width="2" stroke-opacity="0.200000" points="220.46,-185.24 225.07,-180.86 218.74,-181.41 220.46,-185.24"/>
</g>
<!-- src/machines/machinetool/brownfieldmachinetool.ts -->
<g id="node5" class="node">
<title>src/machines/machinetool/brownfieldmachinetool.ts</title>
<g id="a_node5"><a xlink:href="src/machines/machinetool/brownfieldmachinetool.ts" xlink:title="brownfieldmachinetool.ts">
<path fill="#ddfeff" stroke="black" d="M312.58,-794.25C312.58,-794.25 206.92,-794.25 206.92,-794.25 203.83,-794.25 200.75,-791.17 200.75,-788.08 200.75,-788.08 200.75,-781.92 200.75,-781.92 200.75,-778.83 203.83,-775.75 206.92,-775.75 206.92,-775.75 312.58,-775.75 312.58,-775.75 315.67,-775.75 318.75,-778.83 318.75,-781.92 318.75,-781.92 318.75,-788.08 318.75,-788.08 318.75,-791.17 315.67,-794.25 312.58,-794.25"/>
<text text-anchor="start" x="208.75" y="-781.7" font-family="Helvetica,sans-Serif" font-size="9.00">brownfieldmachinetool.ts</text>
</a>
</g>
</g>
<!-- src/addressspace.ts&#45;&gt;src/machines/machinetool/brownfieldmachinetool.ts -->
<g id="edge3" class="edge">
<title>src/addressspace.ts&#45;&gt;src/machines/machinetool/brownfieldmachinetool.ts</title>
<path fill="none" stroke="#000000" stroke-width="2" stroke-opacity="0.200000" d="M137.53,-579.7C141.94,-614.97 158.71,-735.8 184.75,-763 187.72,-766.1 191.11,-768.78 194.76,-771.07"/>
<polygon fill="#000000" fill-opacity="0.200000" stroke="#000000" stroke-width="2" stroke-opacity="0.200000" points="193.64,-772.86 199.92,-773.85 195.64,-769.16 193.64,-772.86"/>
</g>
<!-- src/machines/machinetool/machinetool&#45;example.ts -->
<g id="node6" class="node">
<title>src/machines/machinetool/machinetool&#45;example.ts</title>
<g id="a_node6"><a xlink:href="src/machines/machinetool/machinetool-example.ts" xlink:title="machinetool&#45;example.ts">
<path fill="#ddfeff" stroke="black" d="M310.33,-825.25C310.33,-825.25 209.17,-825.25 209.17,-825.25 206.08,-825.25 203,-822.17 203,-819.08 203,-819.08 203,-812.92 203,-812.92 203,-809.83 206.08,-806.75 209.17,-806.75 209.17,-806.75 310.33,-806.75 310.33,-806.75 313.42,-806.75 316.5,-809.83 316.5,-812.92 316.5,-812.92 316.5,-819.08 316.5,-819.08 316.5,-822.17 313.42,-825.25 310.33,-825.25"/>
<text text-anchor="start" x="211" y="-812.7" font-family="Helvetica,sans-Serif" font-size="9.00">machinetool&#45;example.ts</text>
</a>
</g>
</g>
<!-- src/addressspace.ts&#45;&gt;src/machines/machinetool/machinetool&#45;example.ts -->
<g id="edge4" class="edge">
<title>src/addressspace.ts&#45;&gt;src/machines/machinetool/machinetool&#45;example.ts</title>
<path fill="none" stroke="#000000" stroke-width="2" stroke-opacity="0.200000" d="M137.04,-579.66C139.95,-619.18 152.89,-767.96 184.75,-800 187.64,-802.91 190.93,-805.35 194.48,-807.39"/>
<polygon fill="#000000" fill-opacity="0.200000" stroke="#000000" stroke-width="2" stroke-opacity="0.200000" points="193.53,-809.26 199.85,-809.94 195.33,-805.47 193.53,-809.26"/>
</g>
<!-- src/machines/machinetool/showcasemachinetool.ts -->
<g id="node7" class="node">
<title>src/machines/machinetool/showcasemachinetool.ts</title>
<g id="a_node7"><a xlink:href="src/machines/machinetool/showcasemachinetool.ts" xlink:title="showcasemachinetool.ts">
<path fill="#ddfeff" stroke="black" d="M311.83,-856.25C311.83,-856.25 207.67,-856.25 207.67,-856.25 204.58,-856.25 201.5,-853.17 201.5,-850.08 201.5,-850.08 201.5,-843.92 201.5,-843.92 201.5,-840.83 204.58,-837.75 207.67,-837.75 207.67,-837.75 311.83,-837.75 311.83,-837.75 314.92,-837.75 318,-840.83 318,-843.92 318,-843.92 318,-850.08 318,-850.08 318,-853.17 314.92,-856.25 311.83,-856.25"/>
<text text-anchor="start" x="209.5" y="-843.7" font-family="Helvetica,sans-Serif" font-size="9.00">showcasemachinetool.ts</text>
</a>
</g>
</g>
<!-- src/addressspace.ts&#45;&gt;src/machines/machinetool/showcasemachinetool.ts -->
<g id="edge5" class="edge">
<title>src/addressspace.ts&#45;&gt;src/machines/machinetool/showcasemachinetool.ts</title>
<path fill="none" stroke="#000000" stroke-width="2" stroke-opacity="0.200000" d="M136.77,-579.48C138.73,-621.91 148.8,-793.97 184.75,-831 187.25,-833.58 190.07,-835.79 193.09,-837.68"/>
<polygon fill="#000000" fill-opacity="0.200000" stroke="#000000" stroke-width="2" stroke-opacity="0.200000" points="192.02,-839.49 198.32,-840.37 193.94,-835.76 192.02,-839.49"/>
</g>
<!-- src/machines/machinetool/UGGgrindingmachine.ts -->
<g id="node8" class="node">
<title>src/machines/machinetool/UGGgrindingmachine.ts</title>
<g id="a_node8"><a xlink:href="src/machines/machinetool/UGGgrindingmachine.ts" xlink:title="UGGgrindingmachine.ts">
<path fill="#ddfeff" stroke="black" d="M310.71,-887.25C310.71,-887.25 208.79,-887.25 208.79,-887.25 205.71,-887.25 202.62,-884.17 202.62,-881.08 202.62,-881.08 202.62,-874.92 202.62,-874.92 202.62,-871.83 205.71,-868.75 208.79,-868.75 208.79,-868.75 310.71,-868.75 310.71,-868.75 313.79,-868.75 316.88,-871.83 316.88,-874.92 316.88,-874.92 316.88,-881.08 316.88,-881.08 316.88,-884.17 313.79,-887.25 310.71,-887.25"/>
<text text-anchor="start" x="210.62" y="-874.7" font-family="Helvetica,sans-Serif" font-size="9.00">UGGgrindingmachine.ts</text>
</a>
</g>
</g>
<!-- src/addressspace.ts&#45;&gt;src/machines/machinetool/UGGgrindingmachine.ts -->
<g id="edge6" class="edge">
<title>src/addressspace.ts&#45;&gt;src/machines/machinetool/UGGgrindingmachine.ts</title>
<path fill="none" stroke="#000000" stroke-width="2" stroke-opacity="0.200000" d="M136.57,-579.66C137.69,-625.44 144.79,-820.05 184.75,-862 187.58,-864.97 190.82,-867.46 194.33,-869.53"/>
<polygon fill="#000000" fill-opacity="0.200000" stroke="#000000" stroke-width="2" stroke-opacity="0.200000" points="193.34,-871.38 199.66,-872.11 195.18,-867.61 193.34,-871.38"/>
</g>
<!-- src/machines/MetalForming/MetalFormingMachine.ts -->
<g id="node9" class="node">
<title>src/machines/MetalForming/MetalFormingMachine.ts</title>
<g id="a_node9"><a xlink:href="src/machines/MetalForming/MetalFormingMachine.ts" xlink:title="MetalFormingMachine.ts">
<path fill="#ddfeff" stroke="black" d="M311.83,-240.25C311.83,-240.25 207.67,-240.25 207.67,-240.25 204.58,-240.25 201.5,-237.17 201.5,-234.08 201.5,-234.08 201.5,-227.92 201.5,-227.92 201.5,-224.83 204.58,-221.75 207.67,-221.75 207.67,-221.75 311.83,-221.75 311.83,-221.75 314.92,-221.75 318,-224.83 318,-227.92 318,-227.92 318,-234.08 318,-234.08 318,-237.17 314.92,-240.25 311.83,-240.25"/>
<text text-anchor="start" x="209.5" y="-227.7" font-family="Helvetica,sans-Serif" font-size="9.00">MetalFormingMachine.ts</text>
</a>
</g>
</g>
<!-- src/addressspace.ts&#45;&gt;src/machines/MetalForming/MetalFormingMachine.ts -->
<g id="edge7" class="edge">
<title>src/addressspace.ts&#45;&gt;src/machines/MetalForming/MetalFormingMachine.ts</title>
<path fill="none" stroke="#000000" stroke-width="2" stroke-opacity="0.200000" d="M136.82,-560.38C139.12,-514.74 150.76,-320.34 184.75,-272 193.36,-259.76 206.83,-250.77 219.93,-244.38"/>
<polygon fill="#000000" fill-opacity="0.200000" stroke="#000000" stroke-width="2" stroke-opacity="0.200000" points="220.64,-246.37 225.24,-241.98 218.91,-242.54 220.64,-246.37"/>
</g>
<!-- src/machines/motiondevicesystem/motiondevicesystem.ts -->
<g id="node10" class="node">
<title>src/machines/motiondevicesystem/motiondevicesystem.ts</title>
<g id="a_node10"><a xlink:href="src/machines/motiondevicesystem/motiondevicesystem.ts" xlink:title="motiondevicesystem.ts">
<path fill="#ddfeff" stroke="black" d="M307.71,-948.25C307.71,-948.25 211.79,-948.25 211.79,-948.25 208.71,-948.25 205.62,-945.17 205.62,-942.08 205.62,-942.08 205.62,-935.92 205.62,-935.92 205.62,-932.83 208.71,-929.75 211.79,-929.75 211.79,-929.75 307.71,-929.75 307.71,-929.75 310.79,-929.75 313.88,-932.83 313.88,-935.92 313.88,-935.92 313.88,-942.08 313.88,-942.08 313.88,-945.17 310.79,-948.25 307.71,-948.25"/>
<text text-anchor="start" x="213.62" y="-935.7" font-family="Helvetica,sans-Serif" font-size="9.00">motiondevicesystem.ts</text>
</a>
</g>
</g>
<!-- src/addressspace.ts&#45;&gt;src/machines/motiondevicesystem/motiondevicesystem.ts -->
<g id="edge8" class="edge">
<title>src/addressspace.ts&#45;&gt;src/machines/motiondevicesystem/motiondevicesystem.ts</title>
<path fill="none" stroke="#000000" stroke-width="2" stroke-opacity="0.200000" d="M136.36,-579.66C136.49,-630.25 139.54,-864.42 184.75,-917 188.36,-921.2 192.74,-924.62 197.54,-927.4"/>
<polygon fill="#000000" fill-opacity="0.200000" stroke="#000000" stroke-width="2" stroke-opacity="0.200000" points="196.35,-929.15 202.66,-929.92 198.21,-925.39 196.35,-929.15"/>
</g>
<!-- src/machines/MyControledMachine/jobcontrol.ts -->
<g id="node11" class="node">
<title>src/machines/MyControledMachine/jobcontrol.ts</title>
<g id="a_node11"><a xlink:href="src/machines/MyControledMachine/jobcontrol.ts" xlink:title="jobcontrol.ts">
<path fill="#ddfeff" stroke="black" d="M286.33,-301.25C286.33,-301.25 233.17,-301.25 233.17,-301.25 230.08,-301.25 227,-298.17 227,-295.08 227,-295.08 227,-288.92 227,-288.92 227,-285.83 230.08,-282.75 233.17,-282.75 233.17,-282.75 286.33,-282.75 286.33,-282.75 289.42,-282.75 292.5,-285.83 292.5,-288.92 292.5,-288.92 292.5,-295.08 292.5,-295.08 292.5,-298.17 289.42,-301.25 286.33,-301.25"/>
<text text-anchor="start" x="235" y="-288.7" font-family="Helvetica,sans-Serif" font-size="9.00">jobcontrol.ts</text>
</a>
</g>
</g>
<!-- src/addressspace.ts&#45;&gt;src/machines/MyControledMachine/jobcontrol.ts -->
<g id="edge9" class="edge">
<title>src/addressspace.ts&#45;&gt;src/machines/MyControledMachine/jobcontrol.ts</title>
<path fill="none" stroke="#000000" stroke-width="2" stroke-opacity="0.200000" d="M136.76,-560.49C138.69,-517.89 148.68,-345.18 184.75,-308 193.44,-299.04 205.86,-294.53 218.06,-292.39"/>
<polygon fill="#000000" fill-opacity="0.200000" stroke="#000000" stroke-width="2" stroke-opacity="0.200000" points="218.16,-294.5 223.84,-291.63 217.61,-290.33 218.16,-294.5"/>
</g>
<!-- src/machines/mymachine/mymachine.ts -->
<g id="node12" class="node">
<title>src/machines/mymachine/mymachine.ts</title>
<g id="a_node12"><a xlink:href="src/machines/mymachine/mymachine.ts" xlink:title="mymachine.ts">
<path fill="#ddfeff" stroke="black" d="M289.71,-1009.25C289.71,-1009.25 229.79,-1009.25 229.79,-1009.25 226.71,-1009.25 223.62,-1006.17 223.62,-1003.08 223.62,-1003.08 223.62,-996.92 223.62,-996.92 223.62,-993.83 226.71,-990.75 229.79,-990.75 229.79,-990.75 289.71,-990.75 289.71,-990.75 292.79,-990.75 295.88,-993.83 295.88,-996.92 295.88,-996.92 295.88,-1003.08 295.88,-1003.08 295.88,-1006.17 292.79,-1009.25 289.71,-1009.25"/>
<text text-anchor="start" x="231.62" y="-996.7" font-family="Helvetica,sans-Serif" font-size="9.00">mymachine.ts</text>
</a>
</g>
</g>
<!-- src/addressspace.ts&#45;&gt;src/machines/mymachine/mymachine.ts -->
<g id="edge10" class="edge">
<title>src/addressspace.ts&#45;&gt;src/machines/mymachine/mymachine.ts</title>
<path fill="none" stroke="#000000" stroke-width="2" stroke-opacity="0.200000" d="M136.14,-579.47C134.98,-634.71 131.8,-915.12 184.75,-978 192.32,-986.99 203.38,-992.4 214.65,-995.63"/>
<polygon fill="#000000" fill-opacity="0.200000" stroke="#000000" stroke-width="2" stroke-opacity="0.200000" points="214,-997.63 220.32,-996.99 214.98,-993.55 214,-997.63"/>
</g>
<!-- src/machines/PlasticsRubber/40077.ts -->
<g id="node13" class="node">
<title>src/machines/PlasticsRubber/40077.ts</title>
<g id="a_node13"><a xlink:href="src/machines/PlasticsRubber/40077.ts" xlink:title="40077.ts">
<path fill="#ddfeff" stroke="black" d="M280.58,-393.25C280.58,-393.25 238.92,-393.25 238.92,-393.25 235.83,-393.25 232.75,-390.17 232.75,-387.08 232.75,-387.08 232.75,-380.92 232.75,-380.92 232.75,-377.83 235.83,-374.75 238.92,-374.75 238.92,-374.75 280.58,-374.75 280.58,-374.75 283.67,-374.75 286.75,-377.83 286.75,-380.92 286.75,-380.92 286.75,-387.08 286.75,-387.08 286.75,-390.17 283.67,-393.25 280.58,-393.25"/>
<text text-anchor="start" x="242.12" y="-380.7" font-family="Helvetica,sans-Serif" font-size="9.00">40077.ts</text>
</a>
</g>
</g>
<!-- src/addressspace.ts&#45;&gt;src/machines/PlasticsRubber/40077.ts -->
<g id="edge11" class="edge">
<title>src/addressspace.ts&#45;&gt;src/machines/PlasticsRubber/40077.ts</title>
<path fill="none" stroke="#000000" stroke-width="2" stroke-opacity="0.200000" d="M135.97,-560.6C135.26,-531.88 137.3,-444.5 184.75,-400 195.13,-390.26 209.97,-385.9 223.64,-384.11"/>
<polygon fill="#000000" fill-opacity="0.200000" stroke="#000000" stroke-width="2" stroke-opacity="0.200000" points="223.61,-386.22 229.38,-383.56 223.21,-382.04 223.61,-386.22"/>
</g>
<!-- src/machines/PlasticsRubber/40079.ts -->
<g id="node14" class="node">
<title>src/machines/PlasticsRubber/40079.ts</title>
<g id="a_node14"><a xlink:href="src/machines/PlasticsRubber/40079.ts" xlink:title="40079.ts">
<path fill="#ddfeff" stroke="black" d="M280.58,-424.25C280.58,-424.25 238.92,-424.25 238.92,-424.25 235.83,-424.25 232.75,-421.17 232.75,-418.08 232.75,-418.08 232.75,-411.92 232.75,-411.92 232.75,-408.83 235.83,-405.75 238.92,-405.75 238.92,-405.75 280.58,-405.75 280.58,-405.75 283.67,-405.75 286.75,-408.83 286.75,-411.92 286.75,-411.92 286.75,-418.08 286.75,-418.08 286.75,-421.17 283.67,-424.25 280.58,-424.25"/>
<text text-anchor="start" x="242.12" y="-411.7" font-family="Helvetica,sans-Serif" font-size="9.00">40079.ts</text>
</a>
</g>
</g>
<!-- src/addressspace.ts&#45;&gt;src/machines/PlasticsRubber/40079.ts -->
<g id="edge12" class="edge">
<title>src/addressspace.ts&#45;&gt;src/machines/PlasticsRubber/40079.ts</title>
<path fill="none" stroke="#000000" stroke-width="2" stroke-opacity="0.200000" d="M136.66,-560.52C137.96,-535.3 145.14,-466.05 184.75,-431 195.33,-421.64 210.06,-417.32 223.6,-415.45"/>
<polygon fill="#000000" fill-opacity="0.200000" stroke="#000000" stroke-width="2" stroke-opacity="0.200000" points="223.51,-417.58 229.26,-414.87 223.08,-413.4 223.51,-417.58"/>
</g>
<!-- src/machines/PlasticsRubber/40082&#45;1.ts -->
<g id="node15" class="node">
<title>src/machines/PlasticsRubber/40082&#45;1.ts</title>
<g id="a_node15"><a xlink:href="src/machines/PlasticsRubber/40082-1.ts" xlink:title="40082&#45;1.ts">
<path fill="#ddfeff" stroke="black" d="M283.33,-455.25C283.33,-455.25 236.17,-455.25 236.17,-455.25 233.08,-455.25 230,-452.17 230,-449.08 230,-449.08 230,-442.92 230,-442.92 230,-439.83 233.08,-436.75 236.17,-436.75 236.17,-436.75 283.33,-436.75 283.33,-436.75 286.42,-436.75 289.5,-439.83 289.5,-442.92 289.5,-442.92 289.5,-449.08 289.5,-449.08 289.5,-452.17 286.42,-455.25 283.33,-455.25"/>
<text text-anchor="start" x="238" y="-442.7" font-family="Helvetica,sans-Serif" font-size="9.00">40082&#45;1.ts</text>
</a>
</g>
</g>
<!-- src/addressspace.ts&#45;&gt;src/machines/PlasticsRubber/40082&#45;1.ts -->
<g id="edge13" class="edge">
<title>src/addressspace.ts&#45;&gt;src/machines/PlasticsRubber/40082&#45;1.ts</title>
<path fill="none" stroke="#000000" stroke-width="2" stroke-opacity="0.200000" d="M137.72,-560.47C141.26,-539.24 152.83,-487.88 184.75,-462 194.95,-453.73 208.47,-449.47 221.15,-447.36"/>
<polygon fill="#000000" fill-opacity="0.200000" stroke="#000000" stroke-width="2" stroke-opacity="0.200000" points="221.08,-449.49 226.75,-446.62 220.53,-445.33 221.08,-449.49"/>
</g>
<!-- src/machines/PlasticsRubber/40082&#45;2.ts -->
<g id="node16" class="node">
<title>src/machines/PlasticsRubber/40082&#45;2.ts</title>
<g id="a_node16"><a xlink:href="src/machines/PlasticsRubber/40082-2.ts" xlink:title="40082&#45;2.ts">
<path fill="#ddfeff" stroke="black" d="M283.33,-486.25C283.33,-486.25 236.17,-486.25 236.17,-486.25 233.08,-486.25 230,-483.17 230,-480.08 230,-480.08 230,-473.92 230,-473.92 230,-470.83 233.08,-467.75 236.17,-467.75 236.17,-467.75 283.33,-467.75 283.33,-467.75 286.42,-467.75 289.5,-470.83 289.5,-473.92 289.5,-473.92 289.5,-480.08 289.5,-480.08 289.5,-483.17 286.42,-486.25 283.33,-486.25"/>
<text text-anchor="start" x="238" y="-473.7" font-family="Helvetica,sans-Serif" font-size="9.00">40082&#45;2.ts</text>
</a>
</g>
</g>
<!-- src/addressspace.ts&#45;&gt;src/machines/PlasticsRubber/40082&#45;2.ts -->
<g id="edge14" class="edge">
<title>src/addressspace.ts&#45;&gt;src/machines/PlasticsRubber/40082&#45;2.ts</title>
<path fill="none" stroke="#000000" stroke-width="2" stroke-opacity="0.200000" d="M139.56,-560.46C145.59,-543.93 160.32,-510.13 184.75,-493 195.23,-485.65 208.44,-481.58 220.79,-479.35"/>
<polygon fill="#000000" fill-opacity="0.200000" stroke="#000000" stroke-width="2" stroke-opacity="0.200000" points="220.97,-481.45 226.59,-478.49 220.34,-477.3 220.97,-481.45"/>
</g>
<!-- src/machines/PlasticsRubber/40082&#45;3.ts -->
<g id="node17" class="node">
<title>src/machines/PlasticsRubber/40082&#45;3.ts</title>
<g id="a_node17"><a xlink:href="src/machines/PlasticsRubber/40082-3.ts" xlink:title="40082&#45;3.ts">
<path fill="#ddfeff" stroke="black" d="M283.33,-517.25C283.33,-517.25 236.17,-517.25 236.17,-517.25 233.08,-517.25 230,-514.17 230,-511.08 230,-511.08 230,-504.92 230,-504.92 230,-501.83 233.08,-498.75 236.17,-498.75 236.17,-498.75 283.33,-498.75 283.33,-498.75 286.42,-498.75 289.5,-501.83 289.5,-504.92 289.5,-504.92 289.5,-511.08 289.5,-511.08 289.5,-514.17 286.42,-517.25 283.33,-517.25"/>
<text text-anchor="start" x="238" y="-504.7" font-family="Helvetica,sans-Serif" font-size="9.00">40082&#45;3.ts</text>
</a>
</g>
</g>
<!-- src/addressspace.ts&#45;&gt;src/machines/PlasticsRubber/40082&#45;3.ts -->
<g id="edge15" class="edge">
<title>src/addressspace.ts&#45;&gt;src/machines/PlasticsRubber/40082&#45;3.ts</title>
<path fill="none" stroke="#000000" stroke-width="2" stroke-opacity="0.200000" d="M143.8,-560.28C152.45,-549.67 167.74,-533 184.75,-524 195.88,-518.11 209.03,-514.39 221.14,-512.04"/>
<polygon fill="#000000" fill-opacity="0.200000" stroke="#000000" stroke-width="2" stroke-opacity="0.200000" points="221.19,-514.16 226.75,-511.07 220.48,-510.02 221.19,-514.16"/>
</g>
<!-- src/machines/PlasticsRubber/40084&#45;11.ts -->
<g id="node18" class="node">
<title>src/machines/PlasticsRubber/40084&#45;11.ts</title>
<g id="a_node18"><a xlink:href="src/machines/PlasticsRubber/40084-11.ts" xlink:title="40084&#45;11.ts">
<path fill="#ddfeff" stroke="black" d="M285.58,-548.25C285.58,-548.25 233.92,-548.25 233.92,-548.25 230.83,-548.25 227.75,-545.17 227.75,-542.08 227.75,-542.08 227.75,-535.92 227.75,-535.92 227.75,-532.83 230.83,-529.75 233.92,-529.75 233.92,-529.75 285.58,-529.75 285.58,-529.75 288.67,-529.75 291.75,-532.83 291.75,-535.92 291.75,-535.92 291.75,-542.08 291.75,-542.08 291.75,-545.17 288.67,-548.25 285.58,-548.25"/>
<text text-anchor="start" x="235.75" y="-535.7" font-family="Helvetica,sans-Serif" font-size="9.00">40084&#45;11.ts</text>
</a>
</g>
</g>
<!-- src/addressspace.ts&#45;&gt;src/machines/PlasticsRubber/40084&#45;11.ts -->
<g id="edge16" class="edge">
<title>src/addressspace.ts&#45;&gt;src/machines/PlasticsRubber/40084&#45;11.ts</title>
<path fill="none" stroke="#000000" stroke-width="2" stroke-opacity="0.200000" d="M166.19,-560.31C172.3,-558.45 178.71,-556.59 184.75,-555 195.68,-552.13 207.62,-549.38 218.66,-547"/>
<polygon fill="#000000" fill-opacity="0.200000" stroke="#000000" stroke-width="2" stroke-opacity="0.200000" points="218.88,-549.1 224.32,-545.8 218.01,-544.99 218.88,-549.1"/>
</g>
<!-- src/machines/PlasticsRubber/40084&#45;3.ts -->
<g id="node19" class="node">
<title>src/machines/PlasticsRubber/40084&#45;3.ts</title>
<g id="a_node19"><a xlink:href="src/machines/PlasticsRubber/40084-3.ts" xlink:title="40084&#45;3.ts">
<path fill="#ddfeff" stroke="black" d="M283.33,-579.25C283.33,-579.25 236.17,-579.25 236.17,-579.25 233.08,-579.25 230,-576.17 230,-573.08 230,-573.08 230,-566.92 230,-566.92 230,-563.83 233.08,-560.75 236.17,-560.75 236.17,-560.75 283.33,-560.75 283.33,-560.75 286.42,-560.75 289.5,-563.83 289.5,-566.92 289.5,-566.92 289.5,-573.08 289.5,-573.08 289.5,-576.17 286.42,-579.25 283.33,-579.25"/>
<text text-anchor="start" x="238" y="-566.7" font-family="Helvetica,sans-Serif" font-size="9.00">40084&#45;3.ts</text>
</a>
</g>
</g>
<!-- src/addressspace.ts&#45;&gt;src/machines/PlasticsRubber/40084&#45;3.ts -->
<g id="edge17" class="edge">
<title>src/addressspace.ts&#45;&gt;src/machines/PlasticsRubber/40084&#45;3.ts</title>
<path fill="none" stroke="#000000" stroke-width="2" stroke-opacity="0.200000" d="M177.12,-570C191.27,-570 207.06,-570 220.96,-570"/>
<polygon fill="#000000" fill-opacity="0.200000" stroke="#000000" stroke-width="2" stroke-opacity="0.200000" points="220.75,-572.1 226.75,-570 220.75,-567.9 220.75,-572.1"/>
</g>
<!-- src/machines/PlasticsRubber/40084&#45;9.ts -->
<g id="node20" class="node">
<title>src/machines/PlasticsRubber/40084&#45;9.ts</title>
<g id="a_node20"><a xlink:href="src/machines/PlasticsRubber/40084-9.ts" xlink:title="40084&#45;9.ts">
<path fill="#ddfeff" stroke="black" d="M283.33,-610.25C283.33,-610.25 236.17,-610.25 236.17,-610.25 233.08,-610.25 230,-607.17 230,-604.08 230,-604.08 230,-597.92 230,-597.92 230,-594.83 233.08,-591.75 236.17,-591.75 236.17,-591.75 283.33,-591.75 283.33,-591.75 286.42,-591.75 289.5,-594.83 289.5,-597.92 289.5,-597.92 289.5,-604.08 289.5,-604.08 289.5,-607.17 286.42,-610.25 283.33,-610.25"/>
<text text-anchor="start" x="238" y="-597.7" font-family="Helvetica,sans-Serif" font-size="9.00">40084&#45;9.ts</text>
</a>
</g>
</g>
<!-- src/addressspace.ts&#45;&gt;src/machines/PlasticsRubber/40084&#45;9.ts -->
<g id="edge18" class="edge">
<title>src/addressspace.ts&#45;&gt;src/machines/PlasticsRubber/40084&#45;9.ts</title>
<path fill="none" stroke="#000000" stroke-width="2" stroke-opacity="0.200000" d="M166.19,-579.69C172.3,-581.55 178.71,-583.41 184.75,-585 196.5,-588.09 209.41,-591.03 221.12,-593.53"/>
<polygon fill="#000000" fill-opacity="0.200000" stroke="#000000" stroke-width="2" stroke-opacity="0.200000" points="220.53,-595.55 226.83,-594.73 221.39,-591.44 220.53,-595.55"/>
</g>
<!-- src/machines/PlasticsRubber/generic.ts -->
<g id="node21" class="node">
<title>src/machines/PlasticsRubber/generic.ts</title>
<g id="a_node21"><a xlink:href="src/machines/PlasticsRubber/generic.ts" xlink:title="generic.ts">
<path fill="#ddfeff" stroke="black" d="M281.46,-641.25C281.46,-641.25 238.04,-641.25 238.04,-641.25 234.96,-641.25 231.88,-638.17 231.88,-635.08 231.88,-635.08 231.88,-628.92 231.88,-628.92 231.88,-625.83 234.96,-622.75 238.04,-622.75 238.04,-622.75 281.46,-622.75 281.46,-622.75 284.54,-622.75 287.62,-625.83 287.62,-628.92 287.62,-628.92 287.62,-635.08 287.62,-635.08 287.62,-638.17 284.54,-641.25 281.46,-641.25"/>
<text text-anchor="start" x="239.88" y="-628.7" font-family="Helvetica,sans-Serif" font-size="9.00">generic.ts</text>
</a>
</g>
</g>
<!-- src/addressspace.ts&#45;&gt;src/machines/PlasticsRubber/generic.ts -->
<g id="edge19" class="edge">
<title>src/addressspace.ts&#45;&gt;src/machines/PlasticsRubber/generic.ts</title>
<path fill="none" stroke="#000000" stroke-width="2" stroke-opacity="0.200000" d="M143.8,-579.72C152.45,-590.33 167.74,-607 184.75,-616 196.34,-622.13 210.14,-625.92 222.66,-628.25"/>
<polygon fill="#000000" fill-opacity="0.200000" stroke="#000000" stroke-width="2" stroke-opacity="0.200000" points="222.26,-630.31 228.52,-629.21 222.94,-626.17 222.26,-630.31"/>
</g>
<!-- src/machines/WoodWorking/ww_basic.ts -->
<g id="node22" class="node">
<title>src/machines/WoodWorking/ww_basic.ts</title>
<g id="a_node22"><a xlink:href="src/machines/WoodWorking/ww_basic.ts" xlink:title="ww_basic.ts">
<path fill="#ddfeff" stroke="black" d="M286.33,-702.25C286.33,-702.25 233.17,-702.25 233.17,-702.25 230.08,-702.25 227,-699.17 227,-696.08 227,-696.08 227,-689.92 227,-689.92 227,-686.83 230.08,-683.75 233.17,-683.75 233.17,-683.75 286.33,-683.75 286.33,-683.75 289.42,-683.75 292.5,-686.83 292.5,-689.92 292.5,-689.92 292.5,-696.08 292.5,-696.08 292.5,-699.17 289.42,-702.25 286.33,-702.25"/>
<text text-anchor="start" x="235" y="-689.7" font-family="Helvetica,sans-Serif" font-size="9.00">ww_basic.ts</text>
</a>
</g>
</g>
<!-- src/addressspace.ts&#45;&gt;src/machines/WoodWorking/ww_basic.ts -->
<g id="edge20" class="edge">
<title>src/addressspace.ts&#45;&gt;src/machines/WoodWorking/ww_basic.ts</title>
<path fill="none" stroke="#000000" stroke-width="2" stroke-opacity="0.200000" d="M138.26,-579.66C142.68,-599.73 155.62,-646.13 184.75,-671 194.18,-679.05 206.47,-684.16 218.31,-687.39"/>
<polygon fill="#000000" fill-opacity="0.200000" stroke="#000000" stroke-width="2" stroke-opacity="0.200000" points="217.53,-689.37 223.86,-688.73 218.52,-685.29 217.53,-689.37"/>
</g>
<!-- src/machines/WoodWorking/ww_full.ts -->
<g id="node23" class="node">
<title>src/machines/WoodWorking/ww_full.ts</title>
<g id="a_node23"><a xlink:href="src/machines/WoodWorking/ww_full.ts" xlink:title="ww_full.ts">
<path fill="#ddfeff" stroke="black" d="M281.46,-733.25C281.46,-733.25 238.04,-733.25 238.04,-733.25 234.96,-733.25 231.88,-730.17 231.88,-727.08 231.88,-727.08 231.88,-720.92 231.88,-720.92 231.88,-717.83 234.96,-714.75 238.04,-714.75 238.04,-714.75 281.46,-714.75 281.46,-714.75 284.54,-714.75 287.62,-717.83 287.62,-720.92 287.62,-720.92 287.62,-727.08 287.62,-727.08 287.62,-730.17 284.54,-733.25 281.46,-733.25"/>
<text text-anchor="start" x="239.88" y="-720.7" font-family="Helvetica,sans-Serif" font-size="9.00">ww_full.ts</text>
</a>
</g>
</g>
<!-- src/addressspace.ts&#45;&gt;src/machines/WoodWorking/ww_full.ts -->
<g id="edge21" class="edge">
<title>src/addressspace.ts&#45;&gt;src/machines/WoodWorking/ww_full.ts</title>
<path fill="none" stroke="#000000" stroke-width="2" stroke-opacity="0.200000" d="M136.68,-579.41C138.04,-604.46 145.35,-673.22 184.75,-708 195.08,-717.12 209.35,-721.45 222.61,-723.39"/>
<polygon fill="#000000" fill-opacity="0.200000" stroke="#000000" stroke-width="2" stroke-opacity="0.200000" points="222.37,-725.48 228.56,-724.05 222.83,-721.3 222.37,-725.48"/>
</g>
<!-- src/serveraddressspace/serveraddressspace.ts -->
<g id="node24" class="node">
<title>src/serveraddressspace/serveraddressspace.ts</title>
<g id="a_node24"><a xlink:href="src/serveraddressspace/serveraddressspace.ts" xlink:title="serveraddressspace.ts">
<path fill="#ddfeff" stroke="black" d="M307.71,-1123.25C307.71,-1123.25 211.79,-1123.25 211.79,-1123.25 208.71,-1123.25 205.62,-1120.17 205.62,-1117.08 205.62,-1117.08 205.62,-1110.92 205.62,-1110.92 205.62,-1107.83 208.71,-1104.75 211.79,-1104.75 211.79,-1104.75 307.71,-1104.75 307.71,-1104.75 310.79,-1104.75 313.88,-1107.83 313.88,-1110.92 313.88,-1110.92 313.88,-1117.08 313.88,-1117.08 313.88,-1120.17 310.79,-1123.25 307.71,-1123.25"/>
<text text-anchor="start" x="213.62" y="-1110.7" font-family="Helvetica,sans-Serif" font-size="9.00">serveraddressspace.ts</text>
</a>
</g>
</g>
<!-- src/addressspace.ts&#45;&gt;src/serveraddressspace/serveraddressspace.ts -->
<g id="edge22" class="edge">
<title>src/addressspace.ts&#45;&gt;src/serveraddressspace/serveraddressspace.ts</title>
<path fill="none" stroke="#000000" stroke-width="2" stroke-opacity="0.200000" d="M136.51,-579.71C137.45,-639.07 144.33,-953.31 184.75,-1039 196.49,-1063.9 220.01,-1085.44 237.39,-1098.97"/>
<polygon fill="#000000" fill-opacity="0.200000" stroke="#000000" stroke-width="2" stroke-opacity="0.200000" points="235.94,-1100.51 241.99,-1102.44 238.47,-1097.15 235.94,-1100.51"/>
</g>
<!-- src/machines/machinetool/machinetool&#45;example.ts&#45;&gt;src/utils/log.ts -->
<g id="edge29" class="edge">
<title>src/machines/machinetool/machinetool&#45;example.ts&#45;&gt;src/utils/log.ts</title>
<path fill="none" stroke="#000000" stroke-width="2" stroke-opacity="0.200000" d="M316.75,-808.58C320.54,-806.32 323.96,-803.51 326.75,-800 339.1,-784.48 322.48,-101.58 334.75,-86 341.48,-77.45 352.07,-73.06 362.68,-70.92"/>
<polygon fill="#000000" fill-opacity="0.200000" stroke="#000000" stroke-width="2" stroke-opacity="0.200000" points="362.88,-73.01 368.51,-70.05 362.26,-68.86 362.88,-73.01"/>
</g>
<!-- src/machines/MyControledMachine/jobcontrol.ts&#45;&gt;src/utils/log.ts -->
<g id="edge27" class="edge">
<title>src/machines/MyControledMachine/jobcontrol.ts&#45;&gt;src/utils/log.ts</title>
<path fill="none" stroke="#000000" stroke-width="2" stroke-opacity="0.200000" d="M292.86,-289.04C305.44,-286.16 318.75,-280.61 326.75,-270 339.07,-253.66 321.83,-101.87 334.75,-86 341.62,-77.56 352.25,-73.2 362.84,-71.05"/>
<polygon fill="#000000" fill-opacity="0.200000" stroke="#000000" stroke-width="2" stroke-opacity="0.200000" points="363.03,-73.14 368.65,-70.17 362.41,-68.99 363.03,-73.14"/>
</g>
<!-- src/machines/MyControledMachine/enums.ts -->
<g id="node27" class="node">
<title>src/machines/MyControledMachine/enums.ts</title>
<g id="a_node27"><a xlink:href="src/machines/MyControledMachine/enums.ts" xlink:title="enums.ts">
<path fill="#ddfeff" stroke="black" d="M419.83,-301.25C419.83,-301.25 378.17,-301.25 378.17,-301.25 375.08,-301.25 372,-298.17 372,-295.08 372,-295.08 372,-288.92 372,-288.92 372,-285.83 375.08,-282.75 378.17,-282.75 378.17,-282.75 419.83,-282.75 419.83,-282.75 422.92,-282.75 426,-285.83 426,-288.92 426,-288.92 426,-295.08 426,-295.08 426,-298.17 422.92,-301.25 419.83,-301.25"/>
<text text-anchor="start" x="380.62" y="-288.7" font-family="Helvetica,sans-Serif" font-size="9.00">enums.ts</text>
</a>
</g>
</g>
<!-- src/machines/MyControledMachine/jobcontrol.ts&#45;&gt;src/machines/MyControledMachine/enums.ts -->
<g id="edge28" class="edge">
<title>src/machines/MyControledMachine/jobcontrol.ts&#45;&gt;src/machines/MyControledMachine/enums.ts</title>
<path fill="none" stroke="#000000" stroke-width="2" stroke-opacity="0.200000" d="M292.93,-292C313.87,-292 341.18,-292 362.71,-292"/>
<polygon fill="#000000" fill-opacity="0.200000" stroke="#000000" stroke-width="2" stroke-opacity="0.200000" points="362.52,-294.1 368.52,-292 362.52,-289.9 362.52,-294.1"/>
</g>
<!-- src/permissiongroups.ts -->
<g id="node29" class="node">
<title>src/permissiongroups.ts</title>
<g id="a_node29"><a xlink:href="src/permissiongroups.ts" xlink:title="permissiongroups.ts">
<path fill="#ddfeff" stroke="black" d="M442.08,-1089.25C442.08,-1089.25 355.92,-1089.25 355.92,-1089.25 352.83,-1089.25 349.75,-1086.17 349.75,-1083.08 349.75,-1083.08 349.75,-1076.92 349.75,-1076.92 349.75,-1073.83 352.83,-1070.75 355.92,-1070.75 355.92,-1070.75 442.08,-1070.75 442.08,-1070.75 445.17,-1070.75 448.25,-1073.83 448.25,-1076.92 448.25,-1076.92 448.25,-1083.08 448.25,-1083.08 448.25,-1086.17 445.17,-1089.25 442.08,-1089.25"/>
<text text-anchor="start" x="357.75" y="-1076.7" font-family="Helvetica,sans-Serif" font-size="9.00">permissiongroups.ts</text>
</a>
</g>
</g>
<!-- src/machines/MyControledMachine/jobcontrol.ts&#45;&gt;src/permissiongroups.ts -->
<g id="edge26" class="edge">
<title>src/machines/MyControledMachine/jobcontrol.ts&#45;&gt;src/permissiongroups.ts</title>
<path fill="none" stroke="#000000" stroke-width="2" stroke-opacity="0.200000" d="M292.79,-291.77C305.36,-293.47 318.68,-297.85 326.75,-308 339.39,-323.89 324.96,-1021.21 334.75,-1039 341.26,-1050.83 352.8,-1059.78 364.26,-1066.26"/>
<polygon fill="#000000" fill-opacity="0.200000" stroke="#000000" stroke-width="2" stroke-opacity="0.200000" points="363.13,-1068.04 369.43,-1068.95 365.08,-1064.32 363.13,-1068.04"/>
</g>
<!-- src/machines/mymachine/mymachine.ts&#45;&gt;src/permissiongroups.ts -->
<g id="edge30" class="edge">
<title>src/machines/mymachine/mymachine.ts&#45;&gt;src/permissiongroups.ts</title>
<path fill="none" stroke="#000000" stroke-width="2" stroke-opacity="0.200000" d="M277.31,-1009.65C301.32,-1023.64 345.95,-1049.66 373.7,-1065.84"/>
<polygon fill="#000000" fill-opacity="0.200000" stroke="#000000" stroke-width="2" stroke-opacity="0.200000" points="372.53,-1067.58 378.77,-1068.79 374.64,-1063.96 372.53,-1067.58"/>
</g>
<!-- src/machines/mymachine/datasource.ts -->
<g id="node30" class="node">
<title>src/machines/mymachine/datasource.ts</title>
<g id="a_node30"><a xlink:href="src/machines/mymachine/datasource.ts" xlink:title="datasource.ts">
<path fill="#ddfeff" stroke="black" d="M428.21,-1009.25C428.21,-1009.25 369.79,-1009.25 369.79,-1009.25 366.71,-1009.25 363.62,-1006.17 363.62,-1003.08 363.62,-1003.08 363.62,-996.92 363.62,-996.92 363.62,-993.83 366.71,-990.75 369.79,-990.75 369.79,-990.75 428.21,-990.75 428.21,-990.75 431.29,-990.75 434.38,-993.83 434.38,-996.92 434.38,-996.92 434.38,-1003.08 434.38,-1003.08 434.38,-1006.17 431.29,-1009.25 428.21,-1009.25"/>
<text text-anchor="start" x="371.62" y="-996.7" font-family="Helvetica,sans-Serif" font-size="9.00">datasource.ts</text>
</a>
</g>
</g>
<!-- src/machines/mymachine/mymachine.ts&#45;&gt;src/machines/mymachine/datasource.ts -->
<g id="edge31" class="edge">
<title>src/machines/mymachine/mymachine.ts&#45;&gt;src/machines/mymachine/datasource.ts</title>
<path fill="none" stroke="#000000" stroke-width="2" stroke-opacity="0.200000" d="M296.1,-1000C313.84,-1000 335.51,-1000 354.29,-1000"/>
<polygon fill="#000000" fill-opacity="0.200000" stroke="#000000" stroke-width="2" stroke-opacity="0.200000" points="354.22,-1002.1 360.22,-1000 354.22,-997.9 354.22,-1002.1"/>
</g>
<!-- src/serveraddressspace/serveraddressspace.ts&#45;&gt;src/permissiongroups.ts -->
<g id="edge35" class="edge">
<title>src/serveraddressspace/serveraddressspace.ts&#45;&gt;src/permissiongroups.ts</title>
<path fill="none" stroke="#000000" stroke-width="2" stroke-opacity="0.200000" d="M295.3,-1104.31C307.71,-1100.92 321.83,-1097.17 334.75,-1094 337.88,-1093.23 341.11,-1092.46 344.37,-1091.69"/>
<polygon fill="#000000" fill-opacity="0.200000" stroke="#000000" stroke-width="2" stroke-opacity="0.200000" points="344.7,-1093.77 350.07,-1090.37 343.75,-1089.68 344.7,-1093.77"/>
</g>
<!-- src/serveraddressspace/myfinitestatemachinetype.ts -->
<g id="node33" class="node">
<title>src/serveraddressspace/myfinitestatemachinetype.ts</title>
<g id="a_node33"><a xlink:href="src/serveraddressspace/myfinitestatemachinetype.ts" xlink:title="myfinitestatemachinetype.ts">
<path fill="#ddfeff" stroke="black" d="M457.08,-1123.25C457.08,-1123.25 340.92,-1123.25 340.92,-1123.25 337.83,-1123.25 334.75,-1120.17 334.75,-1117.08 334.75,-1117.08 334.75,-1110.92 334.75,-1110.92 334.75,-1107.83 337.83,-1104.75 340.92,-1104.75 340.92,-1104.75 457.08,-1104.75 457.08,-1104.75 460.17,-1104.75 463.25,-1107.83 463.25,-1110.92 463.25,-1110.92 463.25,-1117.08 463.25,-1117.08 463.25,-1120.17 460.17,-1123.25 457.08,-1123.25"/>
<text text-anchor="start" x="342.75" y="-1110.7" font-family="Helvetica,sans-Serif" font-size="9.00">myfinitestatemachinetype.ts</text>
</a>
</g>
</g>
<!-- src/serveraddressspace/serveraddressspace.ts&#45;&gt;src/serveraddressspace/myfinitestatemachinetype.ts -->
<g id="edge36" class="edge">
<title>src/serveraddressspace/serveraddressspace.ts&#45;&gt;src/serveraddressspace/myfinitestatemachinetype.ts</title>
<path fill="none" stroke="#000000" stroke-width="2" stroke-opacity="0.200000" d="M314.21,-1114C317.93,-1114 321.72,-1114 325.53,-1114"/>
<polygon fill="#000000" fill-opacity="0.200000" stroke="#000000" stroke-width="2" stroke-opacity="0.200000" points="325.38,-1116.1 331.38,-1114 325.38,-1111.9 325.38,-1116.1"/>
</g>
<!-- src/config.ts -->
<g id="node25" class="node">
<title>src/config.ts</title>
<g id="a_node25"><a xlink:href="src/config.ts" xlink:title="config.ts">
<path fill="#ddfeff" stroke="black" d="M156.21,-102.25C156.21,-102.25 114.54,-102.25 114.54,-102.25 111.46,-102.25 108.38,-99.17 108.38,-96.08 108.38,-96.08 108.38,-89.92 108.38,-89.92 108.38,-86.83 111.46,-83.75 114.54,-83.75 114.54,-83.75 156.21,-83.75 156.21,-83.75 159.29,-83.75 162.38,-86.83 162.38,-89.92 162.38,-89.92 162.38,-96.08 162.38,-96.08 162.38,-99.17 159.29,-102.25 156.21,-102.25"/>
<text text-anchor="start" x="118.5" y="-89.7" font-family="Helvetica,sans-Serif" font-size="9.00">config.ts</text>
</a>
</g>
</g>
<!-- src/config.ts&#45;&gt;src/utils/log.ts -->
<g id="edge25" class="edge">
<title>src/config.ts&#45;&gt;src/utils/log.ts</title>
<path fill="none" stroke="#000000" stroke-width="2" stroke-opacity="0.200000" d="M162.64,-98.15C169.78,-99.33 177.54,-100.41 184.75,-101 247.65,-106.17 272.63,-133.47 326.75,-101 333.23,-97.11 328.8,-90.66 334.75,-86 342.74,-79.74 352.88,-75.91 362.69,-73.56"/>
<polygon fill="#000000" fill-opacity="0.200000" stroke="#000000" stroke-width="2" stroke-opacity="0.200000" points="363.09,-75.62 368.57,-72.39 362.27,-71.51 363.09,-75.62"/>
</g>
<!-- src/user.ts -->
<g id="node26" class="node">
<title>src/user.ts</title>
<g id="a_node26"><a xlink:href="src/user.ts" xlink:title="user.ts">
<path fill="#ddfeff" stroke="black" d="M280.58,-95.25C280.58,-95.25 238.92,-95.25 238.92,-95.25 235.83,-95.25 232.75,-92.17 232.75,-89.08 232.75,-89.08 232.75,-82.92 232.75,-82.92 232.75,-79.83 235.83,-76.75 238.92,-76.75 238.92,-76.75 280.58,-76.75 280.58,-76.75 283.67,-76.75 286.75,-79.83 286.75,-82.92 286.75,-82.92 286.75,-89.08 286.75,-89.08 286.75,-92.17 283.67,-95.25 280.58,-95.25"/>
<text text-anchor="start" x="246.62" y="-82.7" font-family="Helvetica,sans-Serif" font-size="9.00">user.ts</text>
</a>
</g>
</g>
<!-- src/config.ts&#45;&gt;src/user.ts -->
<g id="edge24" class="edge">
<title>src/config.ts&#45;&gt;src/user.ts</title>
<path fill="none" stroke="#000000" stroke-width="2" stroke-opacity="0.200000" d="M162.63,-91.5C180.45,-90.48 204.23,-89.12 223.67,-88.01"/>
<polygon fill="#000000" fill-opacity="0.200000" stroke="#000000" stroke-width="2" stroke-opacity="0.200000" points="223.65,-90.11 229.52,-87.67 223.41,-85.92 223.65,-90.11"/>
</g>
<!-- src/user.ts&#45;&gt;src/utils/log.ts -->
<g id="edge38" class="edge">
<title>src/user.ts&#45;&gt;src/utils/log.ts</title>
<path fill="none" stroke="#000000" stroke-width="2" stroke-opacity="0.200000" d="M287.21,-82.92C308.76,-80.4 339.37,-76.83 362.96,-74.09"/>
<polygon fill="#000000" fill-opacity="0.200000" stroke="#000000" stroke-width="2" stroke-opacity="0.200000" points="362.89,-76.21 368.61,-73.43 362.41,-72.03 362.89,-76.21"/>
</g>
<!-- src/machines/MyControledMachine/interfaces.ts -->
<g id="node28" class="node">
<title>src/machines/MyControledMachine/interfaces.ts</title>
<g id="a_node28"><a xlink:href="src/machines/MyControledMachine/interfaces.ts" xlink:title="interfaces.ts">
<path fill="#ccffcc" stroke="black" d="M285.96,-332.25C285.96,-332.25 233.54,-332.25 233.54,-332.25 230.46,-332.25 227.38,-329.17 227.38,-326.08 227.38,-326.08 227.38,-319.92 227.38,-319.92 227.38,-316.83 230.46,-313.75 233.54,-313.75 233.54,-313.75 285.96,-313.75 285.96,-313.75 289.04,-313.75 292.12,-316.83 292.12,-319.92 292.12,-319.92 292.12,-326.08 292.12,-326.08 292.12,-329.17 289.04,-332.25 285.96,-332.25"/>
<text text-anchor="start" x="235.38" y="-319.7" font-family="Helvetica,sans-Serif" font-size="9.00">interfaces.ts</text>
</a>
</g>
</g>
<!-- src/pubsub.ts -->
<g id="node31" class="node">
<title>src/pubsub.ts</title>
<g id="a_node31"><a xlink:href="src/pubsub.ts" xlink:title="pubsub.ts">
<path fill="#ccffcc" stroke="black" d="M72.71,-124.25C72.71,-124.25 29.29,-124.25 29.29,-124.25 26.21,-124.25 23.12,-121.17 23.12,-118.08 23.12,-118.08 23.12,-111.92 23.12,-111.92 23.12,-108.83 26.21,-105.75 29.29,-105.75 29.29,-105.75 72.71,-105.75 72.71,-105.75 75.79,-105.75 78.88,-108.83 78.88,-111.92 78.88,-111.92 78.88,-118.08 78.88,-118.08 78.88,-121.17 75.79,-124.25 72.71,-124.25"/>
<text text-anchor="start" x="31.12" y="-111.7" font-family="Helvetica,sans-Serif" font-size="9.00">pubsub.ts</text>
</a>
</g>
</g>
<!-- src/server.ts -->
<g id="node32" class="node">
<title>src/server.ts</title>
<g id="a_node32"><a xlink:href="src/server.ts" xlink:title="server.ts">
<path fill="#ddfeff" stroke="black" d="M71.83,-155.25C71.83,-155.25 30.17,-155.25 30.17,-155.25 27.08,-155.25 24,-152.17 24,-149.08 24,-149.08 24,-142.92 24,-142.92 24,-139.83 27.08,-136.75 30.17,-136.75 30.17,-136.75 71.83,-136.75 71.83,-136.75 74.92,-136.75 78,-139.83 78,-142.92 78,-142.92 78,-149.08 78,-149.08 78,-152.17 74.92,-155.25 71.83,-155.25"/>
<text text-anchor="start" x="34.12" y="-142.7" font-family="Helvetica,sans-Serif" font-size="9.00">server.ts</text>
</a>
</g>
</g>
<!-- src/server.ts&#45;&gt;src/utils/log.ts -->
<g id="edge34" class="edge">
<title>src/server.ts&#45;&gt;src/utils/log.ts</title>
<path fill="none" stroke="#000000" stroke-width="2" stroke-opacity="0.200000" d="M78.4,-141.87C105.16,-137.77 147.77,-131.47 184.75,-127 216.23,-123.2 302.31,-133.2 326.75,-113 336.4,-105.03 325.72,-94.67 334.75,-86 342.33,-78.72 352.73,-74.61 362.91,-72.34"/>
<polygon fill="#000000" fill-opacity="0.200000" stroke="#000000" stroke-width="2" stroke-opacity="0.200000" points="363.19,-74.42 368.73,-71.31 362.46,-70.28 363.19,-74.42"/>
</g>
<!-- src/server.ts&#45;&gt;src/addressspace.ts -->
<g id="edge32" class="edge">
<title>src/server.ts&#45;&gt;src/addressspace.ts</title>
<path fill="none" stroke="#000000" stroke-width="2" stroke-opacity="0.200000" d="M53.88,-155.65C64.46,-210.15 116.8,-479.53 130.88,-552.01"/>
<polygon fill="#000000" fill-opacity="0.200000" stroke="#000000" stroke-width="2" stroke-opacity="0.200000" points="128.76,-552.09 131.96,-557.58 132.88,-551.28 128.76,-552.09"/>
</g>
<!-- src/server.ts&#45;&gt;src/config.ts -->
<g id="edge33" class="edge">
<title>src/server.ts&#45;&gt;src/config.ts</title>
<path fill="none" stroke="#000000" stroke-width="2" stroke-opacity="0.200000" d="M76.76,-136.33C80.05,-134.49 83.23,-132.38 86,-130 90.86,-125.82 89.39,-122.46 94,-118 98.05,-114.09 102.8,-110.49 107.61,-107.31"/>
<polygon fill="#000000" fill-opacity="0.200000" stroke="#000000" stroke-width="2" stroke-opacity="0.200000" points="108.52,-109.21 112.52,-104.26 106.31,-105.64 108.52,-109.21"/>
</g>
<!-- src/test/test.ts -->
<g id="node34" class="node">
<title>src/test/test.ts</title>
<g id="a_node34"><a xlink:href="src/test/test.ts" xlink:title="test.ts">
<path fill="#ddfeff" stroke="black" d="M71.83,-71.25C71.83,-71.25 30.17,-71.25 30.17,-71.25 27.08,-71.25 24,-68.17 24,-65.08 24,-65.08 24,-58.92 24,-58.92 24,-55.83 27.08,-52.75 30.17,-52.75 30.17,-52.75 71.83,-52.75 71.83,-52.75 74.92,-52.75 78,-55.83 78,-58.92 78,-58.92 78,-65.08 78,-65.08 78,-68.17 74.92,-71.25 71.83,-71.25"/>
<text text-anchor="start" x="39.38" y="-58.7" font-family="Helvetica,sans-Serif" font-size="9.00">test.ts</text>
</a>
</g>
</g>
<!-- src/test/test.ts&#45;&gt;src/config.ts -->
<g id="edge37" class="edge">
<title>src/test/test.ts&#45;&gt;src/config.ts</title>
<path fill="none" stroke="#000000" stroke-width="2" stroke-opacity="0.200000" d="M77.61,-71.64C84.83,-74.35 92.79,-77.35 100.41,-80.22"/>
<polygon fill="#000000" fill-opacity="0.200000" stroke="#000000" stroke-width="2" stroke-opacity="0.200000" points="99.31,-82.05 105.66,-82.19 100.79,-78.12 99.31,-82.05"/>
</g>
<!-- src/utils/userfile.ts -->
<g id="node35" class="node">
<title>src/utils/userfile.ts</title>
<g id="a_node35"><a xlink:href="src/utils/userfile.ts" xlink:title="userfile.ts">
<path fill="#ccffcc" stroke="black" d="M420.33,-110.25C420.33,-110.25 377.67,-110.25 377.67,-110.25 374.58,-110.25 371.5,-107.17 371.5,-104.08 371.5,-104.08 371.5,-97.92 371.5,-97.92 371.5,-94.83 374.58,-91.75 377.67,-91.75 377.67,-91.75 420.33,-91.75 420.33,-91.75 423.42,-91.75 426.5,-94.83 426.5,-97.92 426.5,-97.92 426.5,-104.08 426.5,-104.08 426.5,-107.17 423.42,-110.25 420.33,-110.25"/>
<text text-anchor="start" x="379.5" y="-97.7" font-family="Helvetica,sans-Serif" font-size="9.00">userfile.ts</text>
</a>
</g>
</g>
</g>
</svg>
