<?xml version="1.0" encoding="UTF-8" standalone="no"?>
<!DOCTYPE svg PUBLIC "-//W3C//DTD SVG 1.1//EN"
 "http://www.w3.org/Graphics/SVG/1.1/DTD/svg11.dtd">
<!-- Generated by graphviz version 2.46.0 (20210118.1747)
 -->
<!-- Title: dependency&#45;cruiser output Pages: 1 -->
<svg width="475pt" height="508pt"
 viewBox="0.00 0.00 475.00 508.00" xmlns="http://www.w3.org/2000/svg" xmlns:xlink="http://www.w3.org/1999/xlink">
<g id="graph0" class="graph" transform="scale(1 1) rotate(0) translate(4 504)">
<title>dependency&#45;cruiser output</title>
<polygon fill="white" stroke="transparent" points="-4,4 -4,-504 471,-504 471,4 -4,4"/>
<g id="clust1" class="cluster">
<title>cluster_src</title>
<path fill="#ffffff" stroke="black" stroke-width="2" d="M20,-8C20,-8 447,-8 447,-8 453,-8 459,-14 459,-20 459,-20 459,-480 459,-480 459,-486 453,-492 447,-492 447,-492 20,-492 20,-492 14,-492 8,-486 8,-480 8,-480 8,-20 8,-20 8,-14 14,-8 20,-8"/>
<text text-anchor="middle" x="233.5" y="-480.8" font-family="Helvetica,sans-Serif" font-weight="bold" font-size="9.00">src</text>
</g>
<g id="clust2" class="cluster">
<title>cluster_src/LocalDiscoveryServer</title>
<path fill="#ffffff" stroke="black" stroke-width="2" d="M210,-360C210,-360 318,-360 318,-360 324,-360 330,-366 330,-372 330,-372 330,-400 330,-400 330,-406 324,-412 318,-412 318,-412 210,-412 210,-412 204,-412 198,-406 198,-400 198,-400 198,-372 198,-372 198,-366 204,-360 210,-360"/>
<text text-anchor="middle" x="264" y="-400.8" font-family="Helvetica,sans-Serif" font-weight="bold" font-size="9.00">LocalDiscoveryServer</text>
</g>
<g id="clust3" class="cluster">
<title>cluster_src/machines</title>
<path fill="#ffffff" stroke="black" stroke-width="2" d="M200,-16C200,-16 328,-16 328,-16 334,-16 340,-22 340,-28 340,-28 340,-270 340,-270 340,-276 334,-282 328,-282 328,-282 200,-282 200,-282 194,-282 188,-276 188,-270 188,-270 188,-28 188,-28 188,-22 194,-16 200,-16"/>
<text text-anchor="middle" x="264" y="-270.8" font-family="Helvetica,sans-Serif" font-weight="bold" font-size="9.00">machines</text>
</g>
<g id="clust6" class="cluster">
<title>cluster_src/machines/mymachine</title>
<path fill="#ffffff" stroke="black" stroke-width="2" d="M231,-204C231,-204 297,-204 297,-204 303,-204 309,-210 309,-216 309,-216 309,-244 309,-244 309,-250 303,-256 297,-256 297,-256 231,-256 231,-256 225,-256 219,-250 219,-244 219,-244 219,-216 219,-216 219,-210 225,-204 231,-204"/>
<text text-anchor="middle" x="264" y="-244.8" font-family="Helvetica,sans-Serif" font-weight="bold" font-size="9.00">mymachine</text>
</g>
<g id="clust4" class="cluster">
<title>cluster_src/machines/machinetool</title>
<path fill="#ffffff" stroke="black" stroke-width="2" d="M208,-144C208,-144 320,-144 320,-144 326,-144 332,-150 332,-156 332,-156 332,-184 332,-184 332,-190 326,-196 320,-196 320,-196 208,-196 208,-196 202,-196 196,-190 196,-184 196,-184 196,-156 196,-156 196,-150 202,-144 208,-144"/>
<text text-anchor="middle" x="264" y="-184.8" font-family="Helvetica,sans-Serif" font-weight="bold" font-size="9.00">machinetool</text>
</g>
<g id="clust5" class="cluster">
<title>cluster_src/machines/motiondevicesystem</title>
<path fill="#ffffff" stroke="black" stroke-width="2" d="M212.5,-84C212.5,-84 315.5,-84 315.5,-84 321.5,-84 327.5,-90 327.5,-96 327.5,-96 327.5,-124 327.5,-124 327.5,-130 321.5,-136 315.5,-136 315.5,-136 212.5,-136 212.5,-136 206.5,-136 200.5,-130 200.5,-124 200.5,-124 200.5,-96 200.5,-96 200.5,-90 206.5,-84 212.5,-84"/>
<text text-anchor="middle" x="264" y="-124.8" font-family="Helvetica,sans-Serif" font-weight="bold" font-size="9.00">motiondevicesystem</text>
</g>
<g id="clust7" class="cluster">
<title>cluster_src/machines/sample_imm</title>
<path fill="#ffffff" stroke="black" stroke-width="2" d="M227,-24C227,-24 301,-24 301,-24 307,-24 313,-30 313,-36 313,-36 313,-64 313,-64 313,-70 307,-76 301,-76 301,-76 227,-76 227,-76 221,-76 215,-70 215,-64 215,-64 215,-36 215,-36 215,-30 221,-24 227,-24"/>
<text text-anchor="middle" x="264" y="-64.8" font-family="Helvetica,sans-Serif" font-weight="bold" font-size="9.00">sample_imm</text>
</g>
<g id="clust10" class="cluster">
<title>cluster_src/utils</title>
<path fill="#ffffff" stroke="black" stroke-width="2" d="M375,-374C375,-374 424,-374 424,-374 430,-374 436,-380 436,-386 436,-386 436,-444 436,-444 436,-450 430,-456 424,-456 424,-456 375,-456 375,-456 369,-456 363,-450 363,-444 363,-444 363,-386 363,-386 363,-380 369,-374 375,-374"/>
<text text-anchor="middle" x="399.5" y="-444.8" font-family="Helvetica,sans-Serif" font-weight="bold" font-size="9.00">utils</text>
</g>
<g id="clust8" class="cluster">
<title>cluster_src/serveraddressspace</title>
<path fill="#ffffff" stroke="black" stroke-width="2" d="M212,-290C212,-290 316,-290 316,-290 322,-290 328,-296 328,-302 328,-302 328,-330 328,-330 328,-336 322,-342 316,-342 316,-342 212,-342 212,-342 206,-342 200,-336 200,-330 200,-330 200,-302 200,-302 200,-296 206,-290 212,-290"/>
<text text-anchor="middle" x="264" y="-330.8" font-family="Helvetica,sans-Serif" font-weight="bold" font-size="9.00">serveraddressspace</text>
</g>
<g id="clust9" class="cluster">
<title>cluster_src/test</title>
<path fill="#ffffff" stroke="black" stroke-width="2" d="M28,-414C28,-414 74,-414 74,-414 80,-414 86,-420 86,-426 86,-426 86,-454 86,-454 86,-460 80,-466 74,-466 74,-466 28,-466 28,-466 22,-466 16,-460 16,-454 16,-454 16,-426 16,-426 16,-420 22,-414 28,-414"/>
<text text-anchor="middle" x="51" y="-454.8" font-family="Helvetica,sans-Serif" font-weight="bold" font-size="9.00">test</text>
</g>
<!-- src/LocalDiscoveryServer/local&#45;discovery&#45;server.ts -->
<g id="node1" class="node">
<title>src/LocalDiscoveryServer/local&#45;discovery&#45;server.ts</title>
<g id="a_node1"><a xlink:href="src/LocalDiscoveryServer/local-discovery-server.ts" xlink:title="local&#45;discovery&#45;server.ts">
<path fill="#ddfeff" stroke="black" d="M316,-386C316,-386 212,-386 212,-386 209,-386 206,-383 206,-380 206,-380 206,-374 206,-374 206,-371 209,-368 212,-368 212,-368 316,-368 316,-368 319,-368 322,-371 322,-374 322,-374 322,-380 322,-380 322,-383 319,-386 316,-386"/>
<text text-anchor="middle" x="264" y="-374.8" font-family="Helvetica,sans-Serif" font-size="9.00">local&#45;discovery&#45;server.ts</text>
</a>
</g>
</g>
<!-- src/utils/log.ts -->
<g id="node2" class="node">
<title>src/utils/log.ts</title>
<g id="a_node2"><a xlink:href="src/utils/log.ts" xlink:title="log.ts">
<path fill="#ddfeff" stroke="black" d="M420.5,-430C420.5,-430 378.5,-430 378.5,-430 375.5,-430 372.5,-427 372.5,-424 372.5,-424 372.5,-418 372.5,-418 372.5,-415 375.5,-412 378.5,-412 378.5,-412 420.5,-412 420.5,-412 423.5,-412 426.5,-415 426.5,-418 426.5,-418 426.5,-424 426.5,-424 426.5,-427 423.5,-430 420.5,-430"/>
<text text-anchor="middle" x="399.5" y="-418.8" font-family="Helvetica,sans-Serif" font-size="9.00">log.ts</text>
</a>
</g>
</g>
<!-- src/LocalDiscoveryServer/local&#45;discovery&#45;server.ts&#45;&gt;src/utils/log.ts -->
<g id="edge1" class="edge">
<title>src/LocalDiscoveryServer/local&#45;discovery&#45;server.ts&#45;&gt;src/utils/log.ts</title>
<path fill="none" stroke="#000000" stroke-width="2" stroke-opacity="0.200000" d="M322.23,-381.05C328.61,-383.16 334.7,-386.06 340,-390 346.38,-394.74 341.91,-400.89 348,-406 353.26,-410.41 359.77,-413.52 366.35,-415.72"/>
<polygon fill="#000000" fill-opacity="0.200000" stroke="#000000" stroke-width="2" stroke-opacity="0.200000" points="366.03,-417.82 372.38,-417.49 367.22,-413.79 366.03,-417.82"/>
</g>
<!-- src/addressspace.ts -->
<g id="node3" class="node">
<title>src/addressspace.ts</title>
<g id="a_node3"><a xlink:href="src/addressspace.ts" xlink:title="addressspace.ts">
<path fill="#ddfeff" stroke="black" d="M174,-230C174,-230 100,-230 100,-230 97,-230 94,-227 94,-224 94,-224 94,-218 94,-218 94,-215 97,-212 100,-212 100,-212 174,-212 174,-212 177,-212 180,-215 180,-218 180,-218 180,-224 180,-224 180,-227 177,-230 174,-230"/>
<text text-anchor="middle" x="137" y="-218.8" font-family="Helvetica,sans-Serif" font-size="9.00">addressspace.ts</text>
</a>
</g>
</g>
<!-- src/addressspace.ts&#45;&gt;src/utils/log.ts -->
<g id="edge7" class="edge">
<title>src/addressspace.ts&#45;&gt;src/utils/log.ts</title>
<path fill="none" stroke="#000000" stroke-width="2" stroke-opacity="0.200000" d="M138.57,-230.11C140.57,-253.66 149.45,-316.71 188,-345 215.32,-365.05 315.07,-334.06 340,-357 356.24,-371.94 333.42,-389.44 348,-406 352.82,-411.47 359.53,-414.99 366.49,-417.24"/>
<polygon fill="#000000" fill-opacity="0.200000" stroke="#000000" stroke-width="2" stroke-opacity="0.200000" points="366.01,-419.29 372.36,-418.85 367.12,-415.24 366.01,-419.29"/>
</g>
<!-- src/machines/machinetool/showcasemachinetool.ts -->
<g id="node4" class="node">
<title>src/machines/machinetool/showcasemachinetool.ts</title>
<g id="a_node4"><a xlink:href="src/machines/machinetool/showcasemachinetool.ts" xlink:title="showcasemachinetool.ts">
<path fill="#ddfeff" stroke="black" d="M318,-170C318,-170 210,-170 210,-170 207,-170 204,-167 204,-164 204,-164 204,-158 204,-158 204,-155 207,-152 210,-152 210,-152 318,-152 318,-152 321,-152 324,-155 324,-158 324,-158 324,-164 324,-164 324,-167 321,-170 318,-170"/>
<text text-anchor="middle" x="264" y="-158.8" font-family="Helvetica,sans-Serif" font-size="9.00">showcasemachinetool.ts</text>
</a>
</g>
</g>
<!-- src/addressspace.ts&#45;&gt;src/machines/machinetool/showcasemachinetool.ts -->
<g id="edge2" class="edge">
<title>src/addressspace.ts&#45;&gt;src/machines/machinetool/showcasemachinetool.ts</title>
<path fill="none" stroke="#000000" stroke-width="2" stroke-opacity="0.200000" d="M156.98,-211.89C178.86,-201.39 214.86,-184.11 238.75,-172.64"/>
<polygon fill="#000000" fill-opacity="0.200000" stroke="#000000" stroke-width="2" stroke-opacity="0.200000" points="239.75,-174.49 244.25,-170 237.93,-170.71 239.75,-174.49"/>
</g>
<!-- src/machines/motiondevicesystem/motiondevicesystem.ts -->
<g id="node5" class="node">
<title>src/machines/motiondevicesystem/motiondevicesystem.ts</title>
<g id="a_node5"><a xlink:href="src/machines/motiondevicesystem/motiondevicesystem.ts" xlink:title="motiondevicesystem.ts">
<path fill="#ddfeff" stroke="black" d="M313.5,-110C313.5,-110 214.5,-110 214.5,-110 211.5,-110 208.5,-107 208.5,-104 208.5,-104 208.5,-98 208.5,-98 208.5,-95 211.5,-92 214.5,-92 214.5,-92 313.5,-92 313.5,-92 316.5,-92 319.5,-95 319.5,-98 319.5,-98 319.5,-104 319.5,-104 319.5,-107 316.5,-110 313.5,-110"/>
<text text-anchor="middle" x="264" y="-98.8" font-family="Helvetica,sans-Serif" font-size="9.00">motiondevicesystem.ts</text>
</a>
</g>
</g>
<!-- src/addressspace.ts&#45;&gt;src/machines/motiondevicesystem/motiondevicesystem.ts -->
<g id="edge3" class="edge">
<title>src/addressspace.ts&#45;&gt;src/machines/motiondevicesystem/motiondevicesystem.ts</title>
<path fill="none" stroke="#000000" stroke-width="2" stroke-opacity="0.200000" d="M141.83,-211.77C148.9,-195.66 165.37,-162.12 188,-141 200.95,-128.91 218.25,-119.36 232.97,-112.63"/>
<polygon fill="#000000" fill-opacity="0.200000" stroke="#000000" stroke-width="2" stroke-opacity="0.200000" points="234.05,-114.45 238.68,-110.1 232.34,-110.61 234.05,-114.45"/>
</g>
<!-- src/machines/mymachine/mymachine.ts -->
<g id="node6" class="node">
<title>src/machines/mymachine/mymachine.ts</title>
<g id="a_node6"><a xlink:href="src/machines/mymachine/mymachine.ts" xlink:title="mymachine.ts">
<path fill="#ddfeff" stroke="black" d="M295,-230C295,-230 233,-230 233,-230 230,-230 227,-227 227,-224 227,-224 227,-218 227,-218 227,-215 230,-212 233,-212 233,-212 295,-212 295,-212 298,-212 301,-215 301,-218 301,-218 301,-224 301,-224 301,-227 298,-230 295,-230"/>
<text text-anchor="middle" x="264" y="-218.8" font-family="Helvetica,sans-Serif" font-size="9.00">mymachine.ts</text>
</a>
</g>
</g>
<!-- src/addressspace.ts&#45;&gt;src/machines/mymachine/mymachine.ts -->
<g id="edge4" class="edge">
<title>src/addressspace.ts&#45;&gt;src/machines/mymachine/mymachine.ts</title>
<path fill="none" stroke="#000000" stroke-width="2" stroke-opacity="0.200000" d="M180.32,-221C193.34,-221 207.68,-221 220.7,-221"/>
<polygon fill="#000000" fill-opacity="0.200000" stroke="#000000" stroke-width="2" stroke-opacity="0.200000" points="220.98,-223.1 226.98,-221 220.98,-218.9 220.98,-223.1"/>
</g>
<!-- src/machines/sample_imm/sample_imm.ts -->
<g id="node7" class="node">
<title>src/machines/sample_imm/sample_imm.ts</title>
<g id="a_node7"><a xlink:href="src/machines/sample_imm/sample_imm.ts" xlink:title="sample_imm.ts">
<path fill="#ddfeff" stroke="black" d="M299,-50C299,-50 229,-50 229,-50 226,-50 223,-47 223,-44 223,-44 223,-38 223,-38 223,-35 226,-32 229,-32 229,-32 299,-32 299,-32 302,-32 305,-35 305,-38 305,-38 305,-44 305,-44 305,-47 302,-50 299,-50"/>
<text text-anchor="middle" x="264" y="-38.8" font-family="Helvetica,sans-Serif" font-size="9.00">sample_imm.ts</text>
</a>
</g>
</g>
<!-- src/addressspace.ts&#45;&gt;src/machines/sample_imm/sample_imm.ts -->
<g id="edge5" class="edge">
<title>src/addressspace.ts&#45;&gt;src/machines/sample_imm/sample_imm.ts</title>
<path fill="none" stroke="#000000" stroke-width="2" stroke-opacity="0.200000" d="M139,-211.67C142.06,-187.38 153.27,-121.25 188,-81 198.98,-68.28 215.03,-58.96 229.47,-52.53"/>
<polygon fill="#000000" fill-opacity="0.200000" stroke="#000000" stroke-width="2" stroke-opacity="0.200000" points="230.42,-54.41 235.12,-50.12 228.78,-50.54 230.42,-54.41"/>
</g>
<!-- src/serveraddressspace/serveraddressspace.ts -->
<g id="node8" class="node">
<title>src/serveraddressspace/serveraddressspace.ts</title>
<g id="a_node8"><a xlink:href="src/serveraddressspace/serveraddressspace.ts" xlink:title="serveraddressspace.ts">
<path fill="#ddfeff" stroke="black" d="M314,-316C314,-316 214,-316 214,-316 211,-316 208,-313 208,-310 208,-310 208,-304 208,-304 208,-301 211,-298 214,-298 214,-298 314,-298 314,-298 317,-298 320,-301 320,-304 320,-304 320,-310 320,-310 320,-313 317,-316 314,-316"/>
<text text-anchor="middle" x="264" y="-304.8" font-family="Helvetica,sans-Serif" font-size="9.00">serveraddressspace.ts</text>
</a>
</g>
</g>
<!-- src/addressspace.ts&#45;&gt;src/serveraddressspace/serveraddressspace.ts -->
<g id="edge6" class="edge">
<title>src/addressspace.ts&#45;&gt;src/serveraddressspace/serveraddressspace.ts</title>
<path fill="none" stroke="#000000" stroke-width="2" stroke-opacity="0.200000" d="M149.32,-230.02C159.33,-237.89 174.41,-249.51 188,-259 206.17,-271.69 227.52,-285.22 242.78,-294.67"/>
<polygon fill="#000000" fill-opacity="0.200000" stroke="#000000" stroke-width="2" stroke-opacity="0.200000" points="241.9,-296.6 248.11,-297.96 244.11,-293.03 241.9,-296.6"/>
</g>
<!-- src/permissiongroups.ts -->
<g id="node11" class="node">
<title>src/permissiongroups.ts</title>
<g id="a_node11"><a xlink:href="src/permissiongroups.ts" xlink:title="permissiongroups.ts">
<path fill="#ddfeff" stroke="black" d="M445,-316C445,-316 354,-316 354,-316 351,-316 348,-313 348,-310 348,-310 348,-304 348,-304 348,-301 351,-298 354,-298 354,-298 445,-298 445,-298 448,-298 451,-301 451,-304 451,-304 451,-310 451,-310 451,-313 448,-316 445,-316"/>
<text text-anchor="middle" x="399.5" y="-304.8" font-family="Helvetica,sans-Serif" font-size="9.00">permissiongroups.ts</text>
</a>
</g>
</g>
<!-- src/serveraddressspace/serveraddressspace.ts&#45;&gt;src/permissiongroups.ts -->
<g id="edge13" class="edge">
<title>src/serveraddressspace/serveraddressspace.ts&#45;&gt;src/permissiongroups.ts</title>
<path fill="none" stroke="#000000" stroke-width="2" stroke-opacity="0.200000" d="M320.07,-307C327.25,-307 334.62,-307 341.83,-307"/>
<polygon fill="#000000" fill-opacity="0.200000" stroke="#000000" stroke-width="2" stroke-opacity="0.200000" points="341.84,-309.1 347.84,-307 341.84,-304.9 341.84,-309.1"/>
</g>
<!-- src/config.ts -->
<g id="node9" class="node">
<title>src/config.ts</title>
<g id="a_node9"><a xlink:href="src/config.ts" xlink:title="config.ts">
<path fill="#ddfeff" stroke="black" d="M158,-452C158,-452 116,-452 116,-452 113,-452 110,-449 110,-446 110,-446 110,-440 110,-440 110,-437 113,-434 116,-434 116,-434 158,-434 158,-434 161,-434 164,-437 164,-440 164,-440 164,-446 164,-446 164,-449 161,-452 158,-452"/>
<text text-anchor="middle" x="137" y="-440.8" font-family="Helvetica,sans-Serif" font-size="9.00">config.ts</text>
</a>
</g>
</g>
<!-- src/config.ts&#45;&gt;src/utils/log.ts -->
<g id="edge9" class="edge">
<title>src/config.ts&#45;&gt;src/utils/log.ts</title>
<path fill="none" stroke="#000000" stroke-width="2" stroke-opacity="0.200000" d="M164.41,-440.77C212.51,-436.71 314.24,-428.12 366.31,-423.72"/>
<polygon fill="#000000" fill-opacity="0.200000" stroke="#000000" stroke-width="2" stroke-opacity="0.200000" points="366.6,-425.8 372.41,-423.2 366.25,-421.62 366.6,-425.8"/>
</g>
<!-- src/user.ts -->
<g id="node10" class="node">
<title>src/user.ts</title>
<g id="a_node10"><a xlink:href="src/user.ts" xlink:title="user.ts">
<path fill="#ddfeff" stroke="black" d="M285,-466C285,-466 243,-466 243,-466 240,-466 237,-463 237,-460 237,-460 237,-454 237,-454 237,-451 240,-448 243,-448 243,-448 285,-448 285,-448 288,-448 291,-451 291,-454 291,-454 291,-460 291,-460 291,-463 288,-466 285,-466"/>
<text text-anchor="middle" x="264" y="-454.8" font-family="Helvetica,sans-Serif" font-size="9.00">user.ts</text>
</a>
</g>
</g>
<!-- src/config.ts&#45;&gt;src/user.ts -->
<g id="edge8" class="edge">
<title>src/config.ts&#45;&gt;src/user.ts</title>
<path fill="none" stroke="#000000" stroke-width="2" stroke-opacity="0.200000" d="M164.2,-445.93C183.54,-448.1 209.96,-451.06 230.62,-453.37"/>
<polygon fill="#000000" fill-opacity="0.200000" stroke="#000000" stroke-width="2" stroke-opacity="0.200000" points="230.63,-455.49 236.83,-454.07 231.1,-451.31 230.63,-455.49"/>
</g>
<!-- src/user.ts&#45;&gt;src/utils/log.ts -->
<g id="edge15" class="edge">
<title>src/user.ts&#45;&gt;src/utils/log.ts</title>
<path fill="none" stroke="#000000" stroke-width="2" stroke-opacity="0.200000" d="M291.14,-451.15C305.6,-447.81 323.85,-443.42 340,-439 348.66,-436.63 357.98,-433.86 366.57,-431.22"/>
<polygon fill="#000000" fill-opacity="0.200000" stroke="#000000" stroke-width="2" stroke-opacity="0.200000" points="367.28,-433.2 372.39,-429.42 366.04,-429.19 367.28,-433.2"/>
</g>
<!-- src/server.ts -->
<g id="node12" class="node">
<title>src/server.ts</title>
<g id="a_node12"><a xlink:href="src/server.ts" xlink:title="server.ts">
<path fill="#ddfeff" stroke="black" d="M72,-406C72,-406 30,-406 30,-406 27,-406 24,-403 24,-400 24,-400 24,-394 24,-394 24,-391 27,-388 30,-388 30,-388 72,-388 72,-388 75,-388 78,-391 78,-394 78,-394 78,-400 78,-400 78,-403 75,-406 72,-406"/>
<text text-anchor="middle" x="51" y="-394.8" font-family="Helvetica,sans-Serif" font-size="9.00">server.ts</text>
</a>
</g>
</g>
<!-- src/server.ts&#45;&gt;src/utils/log.ts -->
<g id="edge12" class="edge">
<title>src/server.ts&#45;&gt;src/utils/log.ts</title>
<path fill="none" stroke="#000000" stroke-width="2" stroke-opacity="0.200000" d="M78.24,-401.29C105.57,-405.57 149.66,-411.92 188,-415 250.91,-420.05 324.7,-421.02 366.09,-421.11"/>
<polygon fill="#000000" fill-opacity="0.200000" stroke="#000000" stroke-width="2" stroke-opacity="0.200000" points="366.2,-423.21 372.2,-421.12 366.2,-419.01 366.2,-423.21"/>
</g>
<!-- src/server.ts&#45;&gt;src/addressspace.ts -->
<g id="edge10" class="edge">
<title>src/server.ts&#45;&gt;src/addressspace.ts</title>
<path fill="none" stroke="#000000" stroke-width="2" stroke-opacity="0.200000" d="M56.52,-387.54C70.37,-358.51 112.32,-270.61 129.03,-235.61"/>
<polygon fill="#000000" fill-opacity="0.200000" stroke="#000000" stroke-width="2" stroke-opacity="0.200000" points="130.98,-236.4 131.66,-230.08 127.18,-234.59 130.98,-236.4"/>
</g>
<!-- src/server.ts&#45;&gt;src/config.ts -->
<g id="edge11" class="edge">
<title>src/server.ts&#45;&gt;src/config.ts</title>
<path fill="none" stroke="#000000" stroke-width="2" stroke-opacity="0.200000" d="M78.3,-405.7C81.06,-407.22 83.7,-408.98 86,-411 91.38,-415.73 88.65,-420.23 94,-425 97.02,-427.7 100.51,-430.03 104.16,-432.05"/>
<polygon fill="#000000" fill-opacity="0.200000" stroke="#000000" stroke-width="2" stroke-opacity="0.200000" points="103.28,-433.95 109.58,-434.77 105.16,-430.2 103.28,-433.95"/>
</g>
<!-- src/test/test.ts -->
<g id="node13" class="node">
<title>src/test/test.ts</title>
<g id="a_node13"><a xlink:href="src/test/test.ts" xlink:title="test.ts">
<path fill="#ddfeff" stroke="black" d="M72,-440C72,-440 30,-440 30,-440 27,-440 24,-437 24,-434 24,-434 24,-428 24,-428 24,-425 27,-422 30,-422 30,-422 72,-422 72,-422 75,-422 78,-425 78,-428 78,-428 78,-434 78,-434 78,-437 75,-440 72,-440"/>
<text text-anchor="middle" x="51" y="-428.8" font-family="Helvetica,sans-Serif" font-size="9.00">test.ts</text>
</a>
</g>
</g>
<!-- src/test/test.ts&#45;&gt;src/config.ts -->
<g id="edge14" class="edge">
<title>src/test/test.ts&#45;&gt;src/config.ts</title>
<path fill="none" stroke="#000000" stroke-width="2" stroke-opacity="0.200000" d="M78.12,-434.73C86.18,-435.88 95.15,-437.16 103.58,-438.37"/>
<polygon fill="#000000" fill-opacity="0.200000" stroke="#000000" stroke-width="2" stroke-opacity="0.200000" points="103.66,-440.5 109.9,-439.27 104.26,-436.34 103.66,-440.5"/>
</g>
<!-- src/utils/userfile.ts -->
<g id="node14" class="node">
<title>src/utils/userfile.ts</title>
<g id="a_node14"><a xlink:href="src/utils/userfile.ts" xlink:title="userfile.ts">
<path fill="#ccffcc" stroke="black" d="M422,-400C422,-400 377,-400 377,-400 374,-400 371,-397 371,-394 371,-394 371,-388 371,-388 371,-385 374,-382 377,-382 377,-382 422,-382 422,-382 425,-382 428,-385 428,-388 428,-388 428,-394 428,-394 428,-397 425,-400 422,-400"/>
<text text-anchor="middle" x="399.5" y="-388.8" font-family="Helvetica,sans-Serif" font-size="9.00">userfile.ts</text>
</a>
</g>
</g>
</g>
</svg>
