<?xml version="1.0" encoding="UTF-8" standalone="no"?>
<!DOCTYPE svg PUBLIC "-//W3C//DTD SVG 1.1//EN"
 "http://www.w3.org/Graphics/SVG/1.1/DTD/svg11.dtd">
<!-- Generated by graphviz version 2.46.0 (20210118.1747)
 -->
<!-- Title: dependency&#45;cruiser output Pages: 1 -->
<svg width="511pt" height="508pt"
 viewBox="0.00 0.00 511.00 508.00" xmlns="http://www.w3.org/2000/svg" xmlns:xlink="http://www.w3.org/1999/xlink">
<g id="graph0" class="graph" transform="scale(1 1) rotate(0) translate(4 504)">
<title>dependency&#45;cruiser output</title>
<polygon fill="white" stroke="transparent" points="-4,4 -4,-504 507,-504 507,4 -4,4"/>
<g id="clust1" class="cluster">
<title>cluster_src</title>
<path fill="#ffffff" stroke="black" stroke-width="2" d="M20,-8C20,-8 483,-8 483,-8 489,-8 495,-14 495,-20 495,-20 495,-480 495,-480 495,-486 489,-492 483,-492 483,-492 20,-492 20,-492 14,-492 8,-486 8,-480 8,-480 8,-20 8,-20 8,-14 14,-8 20,-8"/>
<text text-anchor="middle" x="251.5" y="-480.8" font-family="Helvetica,sans-Serif" font-weight="bold" font-size="9.00">src</text>
</g>
<g id="clust3" class="cluster">
<title>cluster_src/machines</title>
<path fill="#ffffff" stroke="black" stroke-width="2" d="M200,-16C200,-16 328,-16 328,-16 334,-16 340,-22 340,-28 340,-28 340,-270 340,-270 340,-276 334,-282 328,-282 328,-282 200,-282 200,-282 194,-282 188,-276 188,-270 188,-270 188,-28 188,-28 188,-22 194,-16 200,-16"/>
<text text-anchor="middle" x="264" y="-270.8" font-family="Helvetica,sans-Serif" font-weight="bold" font-size="9.00">machines</text>
</g>
<g id="clust5" class="cluster">
<title>cluster_src/machines/motiondevicesystem</title>
<path fill="#ffffff" stroke="black" stroke-width="2" d="M212.5,-204C212.5,-204 315.5,-204 315.5,-204 321.5,-204 327.5,-210 327.5,-216 327.5,-216 327.5,-244 327.5,-244 327.5,-250 321.5,-256 315.5,-256 315.5,-256 212.5,-256 212.5,-256 206.5,-256 200.5,-250 200.5,-244 200.5,-244 200.5,-216 200.5,-216 200.5,-210 206.5,-204 212.5,-204"/>
<text text-anchor="middle" x="264" y="-244.8" font-family="Helvetica,sans-Serif" font-weight="bold" font-size="9.00">motiondevicesystem</text>
</g>
<g id="clust4" class="cluster">
<title>cluster_src/machines/machinetool</title>
<path fill="#ffffff" stroke="black" stroke-width="2" d="M208,-144C208,-144 320,-144 320,-144 326,-144 332,-150 332,-156 332,-156 332,-184 332,-184 332,-190 326,-196 320,-196 320,-196 208,-196 208,-196 202,-196 196,-190 196,-184 196,-184 196,-156 196,-156 196,-150 202,-144 208,-144"/>
<text text-anchor="middle" x="264" y="-184.8" font-family="Helvetica,sans-Serif" font-weight="bold" font-size="9.00">machinetool</text>
</g>
<g id="clust7" class="cluster">
<title>cluster_src/machines/sample_imm</title>
<path fill="#ffffff" stroke="black" stroke-width="2" d="M227,-84C227,-84 301,-84 301,-84 307,-84 313,-90 313,-96 313,-96 313,-124 313,-124 313,-130 307,-136 301,-136 301,-136 227,-136 227,-136 221,-136 215,-130 215,-124 215,-124 215,-96 215,-96 215,-90 221,-84 227,-84"/>
<text text-anchor="middle" x="264" y="-124.8" font-family="Helvetica,sans-Serif" font-weight="bold" font-size="9.00">sample_imm</text>
</g>
<g id="clust6" class="cluster">
<title>cluster_src/machines/mymachine</title>
<path fill="#ffffff" stroke="black" stroke-width="2" d="M231,-24C231,-24 297,-24 297,-24 303,-24 309,-30 309,-36 309,-36 309,-64 309,-64 309,-70 303,-76 297,-76 297,-76 231,-76 231,-76 225,-76 219,-70 219,-64 219,-64 219,-36 219,-36 219,-30 225,-24 231,-24"/>
<text text-anchor="middle" x="264" y="-64.8" font-family="Helvetica,sans-Serif" font-weight="bold" font-size="9.00">mymachine</text>
</g>
<g id="clust2" class="cluster">
<title>cluster_src/LocalDiscoveryServer</title>
<path fill="#ffffff" stroke="black" stroke-width="2" d="M210,-360C210,-360 318,-360 318,-360 324,-360 330,-366 330,-372 330,-372 330,-400 330,-400 330,-406 324,-412 318,-412 318,-412 210,-412 210,-412 204,-412 198,-406 198,-400 198,-400 198,-372 198,-372 198,-366 204,-360 210,-360"/>
<text text-anchor="middle" x="264" y="-400.8" font-family="Helvetica,sans-Serif" font-weight="bold" font-size="9.00">LocalDiscoveryServer</text>
</g>
<g id="clust8" class="cluster">
<title>cluster_src/serveraddressspace</title>
<path fill="#ffffff" stroke="black" stroke-width="2" d="M212,-290C212,-290 475,-290 475,-290 481,-290 487,-296 487,-302 487,-302 487,-330 487,-330 487,-336 481,-342 475,-342 475,-342 212,-342 212,-342 206,-342 200,-336 200,-330 200,-330 200,-302 200,-302 200,-296 206,-290 212,-290"/>
<text text-anchor="middle" x="343.5" y="-330.8" font-family="Helvetica,sans-Serif" font-weight="bold" font-size="9.00">serveraddressspace</text>
</g>
<g id="clust10" class="cluster">
<title>cluster_src/utils</title>
<path fill="#ffffff" stroke="black" stroke-width="2" d="M389,-376C389,-376 438,-376 438,-376 444,-376 450,-382 450,-388 450,-388 450,-446 450,-446 450,-452 444,-458 438,-458 438,-458 389,-458 389,-458 383,-458 377,-452 377,-446 377,-446 377,-388 377,-388 377,-382 383,-376 389,-376"/>
<text text-anchor="middle" x="413.5" y="-446.8" font-family="Helvetica,sans-Serif" font-weight="bold" font-size="9.00">utils</text>
</g>
<g id="clust9" class="cluster">
<title>cluster_src/test</title>
<path fill="#ffffff" stroke="black" stroke-width="2" d="M28,-414C28,-414 74,-414 74,-414 80,-414 86,-420 86,-426 86,-426 86,-454 86,-454 86,-460 80,-466 74,-466 74,-466 28,-466 28,-466 22,-466 16,-460 16,-454 16,-454 16,-426 16,-426 16,-420 22,-414 28,-414"/>
<text text-anchor="middle" x="51" y="-454.8" font-family="Helvetica,sans-Serif" font-weight="bold" font-size="9.00">test</text>
</g>
<!-- src/LocalDiscoveryServer/local&#45;discovery&#45;server.ts -->
<g id="node1" class="node">
<title>src/LocalDiscoveryServer/local&#45;discovery&#45;server.ts</title>
<g id="a_node1"><a xlink:href="src/LocalDiscoveryServer/local-discovery-server.ts" xlink:title="local&#45;discovery&#45;server.ts">
<path fill="#ddfeff" stroke="black" d="M316,-386C316,-386 212,-386 212,-386 209,-386 206,-383 206,-380 206,-380 206,-374 206,-374 206,-371 209,-368 212,-368 212,-368 316,-368 316,-368 319,-368 322,-371 322,-374 322,-374 322,-380 322,-380 322,-383 319,-386 316,-386"/>
<text text-anchor="middle" x="264" y="-374.8" font-family="Helvetica,sans-Serif" font-size="9.00">local&#45;discovery&#45;server.ts</text>
</a>
</g>
</g>
<!-- src/utils/log.ts -->
<g id="node2" class="node">
<title>src/utils/log.ts</title>
<g id="a_node2"><a xlink:href="src/utils/log.ts" xlink:title="log.ts">
<path fill="#ddfeff" stroke="black" d="M434.5,-432C434.5,-432 392.5,-432 392.5,-432 389.5,-432 386.5,-429 386.5,-426 386.5,-426 386.5,-420 386.5,-420 386.5,-417 389.5,-414 392.5,-414 392.5,-414 434.5,-414 434.5,-414 437.5,-414 440.5,-417 440.5,-420 440.5,-420 440.5,-426 440.5,-426 440.5,-429 437.5,-432 434.5,-432"/>
<text text-anchor="middle" x="413.5" y="-420.8" font-family="Helvetica,sans-Serif" font-size="9.00">log.ts</text>
</a>
</g>
</g>
<!-- src/LocalDiscoveryServer/local&#45;discovery&#45;server.ts&#45;&gt;src/utils/log.ts -->
<g id="edge1" class="edge">
<title>src/LocalDiscoveryServer/local&#45;discovery&#45;server.ts&#45;&gt;src/utils/log.ts</title>
<path fill="none" stroke="#000000" stroke-width="2" stroke-opacity="0.200000" d="M322.03,-380.69C328.51,-382.85 334.68,-385.86 340,-390 346.9,-395.38 341.25,-402.42 348,-408 356.97,-415.41 368.94,-419.31 380.12,-421.31"/>
<polygon fill="#000000" fill-opacity="0.200000" stroke="#000000" stroke-width="2" stroke-opacity="0.200000" points="379.99,-423.41 386.24,-422.24 380.62,-419.26 379.99,-423.41"/>
</g>
<!-- src/addressspace.ts -->
<g id="node3" class="node">
<title>src/addressspace.ts</title>
<g id="a_node3"><a xlink:href="src/addressspace.ts" xlink:title="addressspace.ts">
<path fill="#ddfeff" stroke="black" d="M174,-230C174,-230 100,-230 100,-230 97,-230 94,-227 94,-224 94,-224 94,-218 94,-218 94,-215 97,-212 100,-212 100,-212 174,-212 174,-212 177,-212 180,-215 180,-218 180,-218 180,-224 180,-224 180,-227 177,-230 174,-230"/>
<text text-anchor="middle" x="137" y="-218.8" font-family="Helvetica,sans-Serif" font-size="9.00">addressspace.ts</text>
</a>
</g>
</g>
<!-- src/addressspace.ts&#45;&gt;src/utils/log.ts -->
<g id="edge7" class="edge">
<title>src/addressspace.ts&#45;&gt;src/utils/log.ts</title>
<path fill="none" stroke="#000000" stroke-width="2" stroke-opacity="0.200000" d="M138.57,-230.11C140.57,-253.66 149.45,-316.71 188,-345 215.32,-365.05 315.14,-333.98 340,-357 356.83,-372.59 332.38,-391.2 348,-408 356.27,-416.89 368.69,-421 380.43,-422.76"/>
<polygon fill="#000000" fill-opacity="0.200000" stroke="#000000" stroke-width="2" stroke-opacity="0.200000" points="380.27,-424.85 386.48,-423.48 380.77,-420.68 380.27,-424.85"/>
</g>
<!-- src/machines/machinetool/showcasemachinetool.ts -->
<g id="node4" class="node">
<title>src/machines/machinetool/showcasemachinetool.ts</title>
<g id="a_node4"><a xlink:href="src/machines/machinetool/showcasemachinetool.ts" xlink:title="showcasemachinetool.ts">
<path fill="#ddfeff" stroke="black" d="M318,-170C318,-170 210,-170 210,-170 207,-170 204,-167 204,-164 204,-164 204,-158 204,-158 204,-155 207,-152 210,-152 210,-152 318,-152 318,-152 321,-152 324,-155 324,-158 324,-158 324,-164 324,-164 324,-167 321,-170 318,-170"/>
<text text-anchor="middle" x="264" y="-158.8" font-family="Helvetica,sans-Serif" font-size="9.00">showcasemachinetool.ts</text>
</a>
</g>
</g>
<!-- src/addressspace.ts&#45;&gt;src/machines/machinetool/showcasemachinetool.ts -->
<g id="edge2" class="edge">
<title>src/addressspace.ts&#45;&gt;src/machines/machinetool/showcasemachinetool.ts</title>
<path fill="none" stroke="#000000" stroke-width="2" stroke-opacity="0.200000" d="M156.98,-211.89C178.86,-201.39 214.86,-184.11 238.75,-172.64"/>
<polygon fill="#000000" fill-opacity="0.200000" stroke="#000000" stroke-width="2" stroke-opacity="0.200000" points="239.75,-174.49 244.25,-170 237.93,-170.71 239.75,-174.49"/>
</g>
<!-- src/machines/motiondevicesystem/motiondevicesystem.ts -->
<g id="node5" class="node">
<title>src/machines/motiondevicesystem/motiondevicesystem.ts</title>
<g id="a_node5"><a xlink:href="src/machines/motiondevicesystem/motiondevicesystem.ts" xlink:title="motiondevicesystem.ts">
<path fill="#ddfeff" stroke="black" d="M313.5,-230C313.5,-230 214.5,-230 214.5,-230 211.5,-230 208.5,-227 208.5,-224 208.5,-224 208.5,-218 208.5,-218 208.5,-215 211.5,-212 214.5,-212 214.5,-212 313.5,-212 313.5,-212 316.5,-212 319.5,-215 319.5,-218 319.5,-218 319.5,-224 319.5,-224 319.5,-227 316.5,-230 313.5,-230"/>
<text text-anchor="middle" x="264" y="-218.8" font-family="Helvetica,sans-Serif" font-size="9.00">motiondevicesystem.ts</text>
</a>
</g>
</g>
<!-- src/addressspace.ts&#45;&gt;src/machines/motiondevicesystem/motiondevicesystem.ts -->
<g id="edge3" class="edge">
<title>src/addressspace.ts&#45;&gt;src/machines/motiondevicesystem/motiondevicesystem.ts</title>
<path fill="none" stroke="#000000" stroke-width="2" stroke-opacity="0.200000" d="M180.32,-221C187.29,-221 194.64,-221 201.96,-221"/>
<polygon fill="#000000" fill-opacity="0.200000" stroke="#000000" stroke-width="2" stroke-opacity="0.200000" points="202.09,-223.1 208.09,-221 202.09,-218.9 202.09,-223.1"/>
</g>
<!-- src/machines/mymachine/mymachine.ts -->
<g id="node6" class="node">
<title>src/machines/mymachine/mymachine.ts</title>
<g id="a_node6"><a xlink:href="src/machines/mymachine/mymachine.ts" xlink:title="mymachine.ts">
<path fill="#ddfeff" stroke="black" d="M295,-50C295,-50 233,-50 233,-50 230,-50 227,-47 227,-44 227,-44 227,-38 227,-38 227,-35 230,-32 233,-32 233,-32 295,-32 295,-32 298,-32 301,-35 301,-38 301,-38 301,-44 301,-44 301,-47 298,-50 295,-50"/>
<text text-anchor="middle" x="264" y="-38.8" font-family="Helvetica,sans-Serif" font-size="9.00">mymachine.ts</text>
</a>
</g>
</g>
<!-- src/addressspace.ts&#45;&gt;src/machines/mymachine/mymachine.ts -->
<g id="edge4" class="edge">
<title>src/addressspace.ts&#45;&gt;src/machines/mymachine/mymachine.ts</title>
<path fill="none" stroke="#000000" stroke-width="2" stroke-opacity="0.200000" d="M139,-211.67C142.06,-187.38 153.27,-121.25 188,-81 198.98,-68.28 215.03,-58.96 229.47,-52.53"/>
<polygon fill="#000000" fill-opacity="0.200000" stroke="#000000" stroke-width="2" stroke-opacity="0.200000" points="230.42,-54.41 235.12,-50.12 228.78,-50.54 230.42,-54.41"/>
</g>
<!-- src/machines/sample_imm/sample_imm.ts -->
<g id="node7" class="node">
<title>src/machines/sample_imm/sample_imm.ts</title>
<g id="a_node7"><a xlink:href="src/machines/sample_imm/sample_imm.ts" xlink:title="sample_imm.ts">
<path fill="#ddfeff" stroke="black" d="M299,-110C299,-110 229,-110 229,-110 226,-110 223,-107 223,-104 223,-104 223,-98 223,-98 223,-95 226,-92 229,-92 229,-92 299,-92 299,-92 302,-92 305,-95 305,-98 305,-98 305,-104 305,-104 305,-107 302,-110 299,-110"/>
<text text-anchor="middle" x="264" y="-98.8" font-family="Helvetica,sans-Serif" font-size="9.00">sample_imm.ts</text>
</a>
</g>
</g>
<!-- src/addressspace.ts&#45;&gt;src/machines/sample_imm/sample_imm.ts -->
<g id="edge5" class="edge">
<title>src/addressspace.ts&#45;&gt;src/machines/sample_imm/sample_imm.ts</title>
<path fill="none" stroke="#000000" stroke-width="2" stroke-opacity="0.200000" d="M141.83,-211.77C148.9,-195.66 165.37,-162.12 188,-141 200.95,-128.91 218.25,-119.36 232.97,-112.63"/>
<polygon fill="#000000" fill-opacity="0.200000" stroke="#000000" stroke-width="2" stroke-opacity="0.200000" points="234.05,-114.45 238.68,-110.1 232.34,-110.61 234.05,-114.45"/>
</g>
<!-- src/serveraddressspace/serveraddressspace.ts -->
<g id="node8" class="node">
<title>src/serveraddressspace/serveraddressspace.ts</title>
<g id="a_node8"><a xlink:href="src/serveraddressspace/serveraddressspace.ts" xlink:title="serveraddressspace.ts">
<path fill="#ddfeff" stroke="black" d="M314,-316C314,-316 214,-316 214,-316 211,-316 208,-313 208,-310 208,-310 208,-304 208,-304 208,-301 211,-298 214,-298 214,-298 314,-298 314,-298 317,-298 320,-301 320,-304 320,-304 320,-310 320,-310 320,-313 317,-316 314,-316"/>
<text text-anchor="middle" x="264" y="-304.8" font-family="Helvetica,sans-Serif" font-size="9.00">serveraddressspace.ts</text>
</a>
</g>
</g>
<!-- src/addressspace.ts&#45;&gt;src/serveraddressspace/serveraddressspace.ts -->
<g id="edge6" class="edge">
<title>src/addressspace.ts&#45;&gt;src/serveraddressspace/serveraddressspace.ts</title>
<path fill="none" stroke="#000000" stroke-width="2" stroke-opacity="0.200000" d="M149.32,-230.02C159.33,-237.89 174.41,-249.51 188,-259 206.17,-271.69 227.52,-285.22 242.78,-294.67"/>
<polygon fill="#000000" fill-opacity="0.200000" stroke="#000000" stroke-width="2" stroke-opacity="0.200000" points="241.9,-296.6 248.11,-297.96 244.11,-293.03 241.9,-296.6"/>
</g>
<!-- src/permissiongroups.ts -->
<g id="node11" class="node">
<title>src/permissiongroups.ts</title>
<g id="a_node11"><a xlink:href="src/permissiongroups.ts" xlink:title="permissiongroups.ts">
<path fill="#ddfeff" stroke="black" d="M459,-368C459,-368 368,-368 368,-368 365,-368 362,-365 362,-362 362,-362 362,-356 362,-356 362,-353 365,-350 368,-350 368,-350 459,-350 459,-350 462,-350 465,-353 465,-356 465,-356 465,-362 465,-362 465,-365 462,-368 459,-368"/>
<text text-anchor="middle" x="413.5" y="-356.8" font-family="Helvetica,sans-Serif" font-size="9.00">permissiongroups.ts</text>
</a>
</g>
</g>
<!-- src/serveraddressspace/serveraddressspace.ts&#45;&gt;src/permissiongroups.ts -->
<g id="edge13" class="edge">
<title>src/serveraddressspace/serveraddressspace.ts&#45;&gt;src/permissiongroups.ts</title>
<path fill="none" stroke="#000000" stroke-width="2" stroke-opacity="0.200000" d="M320.2,-309.39C327.45,-311.67 334.32,-315.05 340,-320 348.8,-327.66 339.36,-337.16 348,-345 350.49,-347.26 353.26,-349.19 356.21,-350.83"/>
<polygon fill="#000000" fill-opacity="0.200000" stroke="#000000" stroke-width="2" stroke-opacity="0.200000" points="355.38,-352.76 361.7,-353.48 357.21,-348.98 355.38,-352.76"/>
</g>
<!-- src/serveraddressspace/myfinitestatemachinetype.ts -->
<g id="node13" class="node">
<title>src/serveraddressspace/myfinitestatemachinetype.ts</title>
<g id="a_node13"><a xlink:href="src/serveraddressspace/myfinitestatemachinetype.ts" xlink:title="myfinitestatemachinetype.ts">
<path fill="#ddfeff" stroke="black" d="M473,-316C473,-316 354,-316 354,-316 351,-316 348,-313 348,-310 348,-310 348,-304 348,-304 348,-301 351,-298 354,-298 354,-298 473,-298 473,-298 476,-298 479,-301 479,-304 479,-304 479,-310 479,-310 479,-313 476,-316 473,-316"/>
<text text-anchor="middle" x="413.5" y="-304.8" font-family="Helvetica,sans-Serif" font-size="9.00">myfinitestatemachinetype.ts</text>
</a>
</g>
</g>
<!-- src/serveraddressspace/serveraddressspace.ts&#45;&gt;src/serveraddressspace/myfinitestatemachinetype.ts -->
<g id="edge14" class="edge">
<title>src/serveraddressspace/serveraddressspace.ts&#45;&gt;src/serveraddressspace/myfinitestatemachinetype.ts</title>
<path fill="none" stroke="#000000" stroke-width="2" stroke-opacity="0.200000" d="M320.34,-307C327.37,-307 334.63,-307 341.85,-307"/>
<polygon fill="#000000" fill-opacity="0.200000" stroke="#000000" stroke-width="2" stroke-opacity="0.200000" points="341.91,-309.1 347.91,-307 341.91,-304.9 341.91,-309.1"/>
</g>
<!-- src/config.ts -->
<g id="node9" class="node">
<title>src/config.ts</title>
<g id="a_node9"><a xlink:href="src/config.ts" xlink:title="config.ts">
<path fill="#ddfeff" stroke="black" d="M158,-452C158,-452 116,-452 116,-452 113,-452 110,-449 110,-446 110,-446 110,-440 110,-440 110,-437 113,-434 116,-434 116,-434 158,-434 158,-434 161,-434 164,-437 164,-440 164,-440 164,-446 164,-446 164,-449 161,-452 158,-452"/>
<text text-anchor="middle" x="137" y="-440.8" font-family="Helvetica,sans-Serif" font-size="9.00">config.ts</text>
</a>
</g>
</g>
<!-- src/config.ts&#45;&gt;src/utils/log.ts -->
<g id="edge9" class="edge">
<title>src/config.ts&#45;&gt;src/utils/log.ts</title>
<path fill="none" stroke="#000000" stroke-width="2" stroke-opacity="0.200000" d="M164.32,-441.08C214.84,-437.4 325.26,-429.36 380.17,-425.36"/>
<polygon fill="#000000" fill-opacity="0.200000" stroke="#000000" stroke-width="2" stroke-opacity="0.200000" points="380.43,-427.44 386.26,-424.91 380.12,-423.25 380.43,-427.44"/>
</g>
<!-- src/user.ts -->
<g id="node10" class="node">
<title>src/user.ts</title>
<g id="a_node10"><a xlink:href="src/user.ts" xlink:title="user.ts">
<path fill="#ddfeff" stroke="black" d="M285,-466C285,-466 243,-466 243,-466 240,-466 237,-463 237,-460 237,-460 237,-454 237,-454 237,-451 240,-448 243,-448 243,-448 285,-448 285,-448 288,-448 291,-451 291,-454 291,-454 291,-460 291,-460 291,-463 288,-466 285,-466"/>
<text text-anchor="middle" x="264" y="-454.8" font-family="Helvetica,sans-Serif" font-size="9.00">user.ts</text>
</a>
</g>
</g>
<!-- src/config.ts&#45;&gt;src/user.ts -->
<g id="edge8" class="edge">
<title>src/config.ts&#45;&gt;src/user.ts</title>
<path fill="none" stroke="#000000" stroke-width="2" stroke-opacity="0.200000" d="M164.2,-445.93C183.54,-448.1 209.96,-451.06 230.62,-453.37"/>
<polygon fill="#000000" fill-opacity="0.200000" stroke="#000000" stroke-width="2" stroke-opacity="0.200000" points="230.63,-455.49 236.83,-454.07 231.1,-451.31 230.63,-455.49"/>
</g>
<!-- src/user.ts&#45;&gt;src/utils/log.ts -->
<g id="edge16" class="edge">
<title>src/user.ts&#45;&gt;src/utils/log.ts</title>
<path fill="none" stroke="#000000" stroke-width="2" stroke-opacity="0.200000" d="M291.03,-451C315.94,-445.26 353.58,-436.58 380.36,-430.41"/>
<polygon fill="#000000" fill-opacity="0.200000" stroke="#000000" stroke-width="2" stroke-opacity="0.200000" points="380.86,-432.45 386.23,-429.05 379.92,-428.36 380.86,-432.45"/>
</g>
<!-- src/server.ts -->
<g id="node12" class="node">
<title>src/server.ts</title>
<g id="a_node12"><a xlink:href="src/server.ts" xlink:title="server.ts">
<path fill="#ddfeff" stroke="black" d="M72,-406C72,-406 30,-406 30,-406 27,-406 24,-403 24,-400 24,-400 24,-394 24,-394 24,-391 27,-388 30,-388 30,-388 72,-388 72,-388 75,-388 78,-391 78,-394 78,-394 78,-400 78,-400 78,-403 75,-406 72,-406"/>
<text text-anchor="middle" x="51" y="-394.8" font-family="Helvetica,sans-Serif" font-size="9.00">server.ts</text>
</a>
</g>
</g>
<!-- src/server.ts&#45;&gt;src/utils/log.ts -->
<g id="edge12" class="edge">
<title>src/server.ts&#45;&gt;src/utils/log.ts</title>
<path fill="none" stroke="#000000" stroke-width="2" stroke-opacity="0.200000" d="M78.25,-401.23C105.58,-405.46 149.67,-411.79 188,-415 256.16,-420.71 336.29,-422.35 380,-422.82"/>
<polygon fill="#000000" fill-opacity="0.200000" stroke="#000000" stroke-width="2" stroke-opacity="0.200000" points="380.16,-424.92 386.18,-422.88 380.2,-420.72 380.16,-424.92"/>
</g>
<!-- src/server.ts&#45;&gt;src/addressspace.ts -->
<g id="edge10" class="edge">
<title>src/server.ts&#45;&gt;src/addressspace.ts</title>
<path fill="none" stroke="#000000" stroke-width="2" stroke-opacity="0.200000" d="M56.52,-387.54C70.37,-358.51 112.32,-270.61 129.03,-235.61"/>
<polygon fill="#000000" fill-opacity="0.200000" stroke="#000000" stroke-width="2" stroke-opacity="0.200000" points="130.98,-236.4 131.66,-230.08 127.18,-234.59 130.98,-236.4"/>
</g>
<!-- src/server.ts&#45;&gt;src/config.ts -->
<g id="edge11" class="edge">
<title>src/server.ts&#45;&gt;src/config.ts</title>
<path fill="none" stroke="#000000" stroke-width="2" stroke-opacity="0.200000" d="M78.3,-405.7C81.06,-407.22 83.7,-408.98 86,-411 91.38,-415.73 88.65,-420.23 94,-425 97.02,-427.7 100.51,-430.03 104.16,-432.05"/>
<polygon fill="#000000" fill-opacity="0.200000" stroke="#000000" stroke-width="2" stroke-opacity="0.200000" points="103.28,-433.95 109.58,-434.77 105.16,-430.2 103.28,-433.95"/>
</g>
<!-- src/test/test.ts -->
<g id="node14" class="node">
<title>src/test/test.ts</title>
<g id="a_node14"><a xlink:href="src/test/test.ts" xlink:title="test.ts">
<path fill="#ddfeff" stroke="black" d="M72,-440C72,-440 30,-440 30,-440 27,-440 24,-437 24,-434 24,-434 24,-428 24,-428 24,-425 27,-422 30,-422 30,-422 72,-422 72,-422 75,-422 78,-425 78,-428 78,-428 78,-434 78,-434 78,-437 75,-440 72,-440"/>
<text text-anchor="middle" x="51" y="-428.8" font-family="Helvetica,sans-Serif" font-size="9.00">test.ts</text>
</a>
</g>
</g>
<!-- src/test/test.ts&#45;&gt;src/config.ts -->
<g id="edge15" class="edge">
<title>src/test/test.ts&#45;&gt;src/config.ts</title>
<path fill="none" stroke="#000000" stroke-width="2" stroke-opacity="0.200000" d="M78.12,-434.73C86.18,-435.88 95.15,-437.16 103.58,-438.37"/>
<polygon fill="#000000" fill-opacity="0.200000" stroke="#000000" stroke-width="2" stroke-opacity="0.200000" points="103.66,-440.5 109.9,-439.27 104.26,-436.34 103.66,-440.5"/>
</g>
<!-- src/utils/userfile.ts -->
<g id="node15" class="node">
<title>src/utils/userfile.ts</title>
<g id="a_node15"><a xlink:href="src/utils/userfile.ts" xlink:title="userfile.ts">
<path fill="#ccffcc" stroke="black" d="M436,-402C436,-402 391,-402 391,-402 388,-402 385,-399 385,-396 385,-396 385,-390 385,-390 385,-387 388,-384 391,-384 391,-384 436,-384 436,-384 439,-384 442,-387 442,-390 442,-390 442,-396 442,-396 442,-399 439,-402 436,-402"/>
<text text-anchor="middle" x="413.5" y="-390.8" font-family="Helvetica,sans-Serif" font-size="9.00">userfile.ts</text>
</a>
</g>
</g>
</g>
</svg>
