<?xml version="1.0" encoding="UTF-8" standalone="no"?>
<!DOCTYPE svg PUBLIC "-//W3C//DTD SVG 1.1//EN"
 "http://www.w3.org/Graphics/SVG/1.1/DTD/svg11.dtd">
<!-- Generated by graphviz version 2.46.0 (20210118.1747)
 -->
<!-- Title: dependency&#45;cruiser output Pages: 1 -->
<svg width="511pt" height="748pt"
 viewBox="0.00 0.00 511.00 748.00" xmlns="http://www.w3.org/2000/svg" xmlns:xlink="http://www.w3.org/1999/xlink">
<g id="graph0" class="graph" transform="scale(1 1) rotate(0) translate(4 744)">
<title>dependency&#45;cruiser output</title>
<polygon fill="white" stroke="transparent" points="-4,4 -4,-744 507,-744 507,4 -4,4"/>
<g id="clust1" class="cluster">
<title>cluster_src</title>
<path fill="#ffffff" stroke="black" stroke-width="2" d="M20,-8C20,-8 483,-8 483,-8 489,-8 495,-14 495,-20 495,-20 495,-720 495,-720 495,-726 489,-732 483,-732 483,-732 20,-732 20,-732 14,-732 8,-726 8,-720 8,-720 8,-20 8,-20 8,-14 14,-8 20,-8"/>
<text text-anchor="middle" x="251.5" y="-720.8" font-family="Helvetica,sans-Serif" font-weight="bold" font-size="9.00">src</text>
</g>
<g id="clust2" class="cluster">
<title>cluster_src/LocalDiscoveryServer</title>
<path fill="#ffffff" stroke="black" stroke-width="2" d="M210,-600C210,-600 318,-600 318,-600 324,-600 330,-606 330,-612 330,-612 330,-640 330,-640 330,-646 324,-652 318,-652 318,-652 210,-652 210,-652 204,-652 198,-646 198,-640 198,-640 198,-612 198,-612 198,-606 204,-600 210,-600"/>
<text text-anchor="middle" x="264" y="-640.8" font-family="Helvetica,sans-Serif" font-weight="bold" font-size="9.00">LocalDiscoveryServer</text>
</g>
<g id="clust3" class="cluster">
<title>cluster_src/machines</title>
<path fill="#ffffff" stroke="black" stroke-width="2" d="M200,-16C200,-16 328,-16 328,-16 334,-16 340,-22 340,-28 340,-28 340,-510 340,-510 340,-516 334,-522 328,-522 328,-522 200,-522 200,-522 194,-522 188,-516 188,-510 188,-510 188,-28 188,-28 188,-22 194,-16 200,-16"/>
<text text-anchor="middle" x="264" y="-510.8" font-family="Helvetica,sans-Serif" font-weight="bold" font-size="9.00">machines</text>
</g>
<g id="clust6" class="cluster">
<title>cluster_src/machines/motiondevicesystem</title>
<path fill="#ffffff" stroke="black" stroke-width="2" d="M212.5,-444C212.5,-444 315.5,-444 315.5,-444 321.5,-444 327.5,-450 327.5,-456 327.5,-456 327.5,-484 327.5,-484 327.5,-490 321.5,-496 315.5,-496 315.5,-496 212.5,-496 212.5,-496 206.5,-496 200.5,-490 200.5,-484 200.5,-484 200.5,-456 200.5,-456 200.5,-450 206.5,-444 212.5,-444"/>
<text text-anchor="middle" x="264" y="-484.8" font-family="Helvetica,sans-Serif" font-weight="bold" font-size="9.00">motiondevicesystem</text>
</g>
<g id="clust4" class="cluster">
<title>cluster_src/machines/PlasticsRubber</title>
<path fill="#ffffff" stroke="black" stroke-width="2" d="M235,-144C235,-144 293,-144 293,-144 299,-144 305,-150 305,-156 305,-156 305,-424 305,-424 305,-430 299,-436 293,-436 293,-436 235,-436 235,-436 229,-436 223,-430 223,-424 223,-424 223,-156 223,-156 223,-150 229,-144 235,-144"/>
<text text-anchor="middle" x="264" y="-424.8" font-family="Helvetica,sans-Serif" font-weight="bold" font-size="9.00">PlasticsRubber</text>
</g>
<g id="clust5" class="cluster">
<title>cluster_src/machines/machinetool</title>
<path fill="#ffffff" stroke="black" stroke-width="2" d="M208,-84C208,-84 320,-84 320,-84 326,-84 332,-90 332,-96 332,-96 332,-124 332,-124 332,-130 326,-136 320,-136 320,-136 208,-136 208,-136 202,-136 196,-130 196,-124 196,-124 196,-96 196,-96 196,-90 202,-84 208,-84"/>
<text text-anchor="middle" x="264" y="-124.8" font-family="Helvetica,sans-Serif" font-weight="bold" font-size="9.00">machinetool</text>
</g>
<g id="clust7" class="cluster">
<title>cluster_src/machines/mymachine</title>
<path fill="#ffffff" stroke="black" stroke-width="2" d="M231,-24C231,-24 297,-24 297,-24 303,-24 309,-30 309,-36 309,-36 309,-64 309,-64 309,-70 303,-76 297,-76 297,-76 231,-76 231,-76 225,-76 219,-70 219,-64 219,-64 219,-36 219,-36 219,-30 225,-24 231,-24"/>
<text text-anchor="middle" x="264" y="-64.8" font-family="Helvetica,sans-Serif" font-weight="bold" font-size="9.00">mymachine</text>
</g>
<g id="clust9" class="cluster">
<title>cluster_src/test</title>
<path fill="#ffffff" stroke="black" stroke-width="2" d="M28,-654C28,-654 74,-654 74,-654 80,-654 86,-660 86,-666 86,-666 86,-694 86,-694 86,-700 80,-706 74,-706 74,-706 28,-706 28,-706 22,-706 16,-700 16,-694 16,-694 16,-666 16,-666 16,-660 22,-654 28,-654"/>
<text text-anchor="middle" x="51" y="-694.8" font-family="Helvetica,sans-Serif" font-weight="bold" font-size="9.00">test</text>
</g>
<g id="clust8" class="cluster">
<title>cluster_src/serveraddressspace</title>
<path fill="#ffffff" stroke="black" stroke-width="2" d="M212,-530C212,-530 475,-530 475,-530 481,-530 487,-536 487,-542 487,-542 487,-570 487,-570 487,-576 481,-582 475,-582 475,-582 212,-582 212,-582 206,-582 200,-576 200,-570 200,-570 200,-542 200,-542 200,-536 206,-530 212,-530"/>
<text text-anchor="middle" x="343.5" y="-570.8" font-family="Helvetica,sans-Serif" font-weight="bold" font-size="9.00">serveraddressspace</text>
</g>
<g id="clust10" class="cluster">
<title>cluster_src/utils</title>
<path fill="#ffffff" stroke="black" stroke-width="2" d="M389,-616C389,-616 438,-616 438,-616 444,-616 450,-622 450,-628 450,-628 450,-686 450,-686 450,-692 444,-698 438,-698 438,-698 389,-698 389,-698 383,-698 377,-692 377,-686 377,-686 377,-628 377,-628 377,-622 383,-616 389,-616"/>
<text text-anchor="middle" x="413.5" y="-686.8" font-family="Helvetica,sans-Serif" font-weight="bold" font-size="9.00">utils</text>
</g>
<!-- src/LocalDiscoveryServer/local&#45;discovery&#45;server.ts -->
<g id="node1" class="node">
<title>src/LocalDiscoveryServer/local&#45;discovery&#45;server.ts</title>
<g id="a_node1"><a xlink:href="src/LocalDiscoveryServer/local-discovery-server.ts" xlink:title="local&#45;discovery&#45;server.ts">
<path fill="#ddfeff" stroke="black" d="M316,-626C316,-626 212,-626 212,-626 209,-626 206,-623 206,-620 206,-620 206,-614 206,-614 206,-611 209,-608 212,-608 212,-608 316,-608 316,-608 319,-608 322,-611 322,-614 322,-614 322,-620 322,-620 322,-623 319,-626 316,-626"/>
<text text-anchor="start" x="214" y="-614.8" font-family="Helvetica,sans-Serif" font-size="9.00">local&#45;discovery&#45;server.ts</text>
</a>
</g>
</g>
<!-- src/utils/log.ts -->
<g id="node2" class="node">
<title>src/utils/log.ts</title>
<g id="a_node2"><a xlink:href="src/utils/log.ts" xlink:title="log.ts">
<path fill="#ddfeff" stroke="black" d="M434.5,-672C434.5,-672 392.5,-672 392.5,-672 389.5,-672 386.5,-669 386.5,-666 386.5,-666 386.5,-660 386.5,-660 386.5,-657 389.5,-654 392.5,-654 392.5,-654 434.5,-654 434.5,-654 437.5,-654 440.5,-657 440.5,-660 440.5,-660 440.5,-666 440.5,-666 440.5,-669 437.5,-672 434.5,-672"/>
<text text-anchor="start" x="402" y="-660.8" font-family="Helvetica,sans-Serif" font-size="9.00">log.ts</text>
</a>
</g>
</g>
<!-- src/LocalDiscoveryServer/local&#45;discovery&#45;server.ts&#45;&gt;src/utils/log.ts -->
<g id="edge1" class="edge">
<title>src/LocalDiscoveryServer/local&#45;discovery&#45;server.ts&#45;&gt;src/utils/log.ts</title>
<path fill="none" stroke="#000000" stroke-width="2" stroke-opacity="0.200000" d="M322.03,-620.69C328.51,-622.85 334.68,-625.86 340,-630 346.9,-635.38 341.25,-642.42 348,-648 356.97,-655.41 368.94,-659.31 380.12,-661.31"/>
<polygon fill="#000000" fill-opacity="0.200000" stroke="#000000" stroke-width="2" stroke-opacity="0.200000" points="379.99,-663.41 386.24,-662.24 380.62,-659.26 379.99,-663.41"/>
</g>
<!-- src/addressspace.ts -->
<g id="node3" class="node">
<title>src/addressspace.ts</title>
<g id="a_node3"><a xlink:href="src/addressspace.ts" xlink:title="addressspace.ts">
<path fill="#ddfeff" stroke="black" d="M174,-320C174,-320 100,-320 100,-320 97,-320 94,-317 94,-314 94,-314 94,-308 94,-308 94,-305 97,-302 100,-302 100,-302 174,-302 174,-302 177,-302 180,-305 180,-308 180,-308 180,-314 180,-314 180,-317 177,-320 174,-320"/>
<text text-anchor="start" x="102" y="-308.8" font-family="Helvetica,sans-Serif" font-size="9.00">addressspace.ts</text>
</a>
</g>
</g>
<!-- src/addressspace.ts&#45;&gt;src/utils/log.ts -->
<g id="edge15" class="edge">
<title>src/addressspace.ts&#45;&gt;src/utils/log.ts</title>
<path fill="none" stroke="#000000" stroke-width="2" stroke-opacity="0.200000" d="M138.24,-320.19C139.56,-363.69 147.54,-548.46 188,-585 213.15,-607.71 315.14,-573.98 340,-597 356.83,-612.59 332.38,-631.2 348,-648 356.27,-656.89 368.69,-661 380.43,-662.76"/>
<polygon fill="#000000" fill-opacity="0.200000" stroke="#000000" stroke-width="2" stroke-opacity="0.200000" points="380.27,-664.85 386.48,-663.48 380.77,-660.68 380.27,-664.85"/>
</g>
<!-- src/machines/machinetool/showcasemachinetool.ts -->
<g id="node4" class="node">
<title>src/machines/machinetool/showcasemachinetool.ts</title>
<g id="a_node4"><a xlink:href="src/machines/machinetool/showcasemachinetool.ts" xlink:title="showcasemachinetool.ts">
<path fill="#ddfeff" stroke="black" d="M318,-110C318,-110 210,-110 210,-110 207,-110 204,-107 204,-104 204,-104 204,-98 204,-98 204,-95 207,-92 210,-92 210,-92 318,-92 318,-92 321,-92 324,-95 324,-98 324,-98 324,-104 324,-104 324,-107 321,-110 318,-110"/>
<text text-anchor="start" x="212" y="-98.8" font-family="Helvetica,sans-Serif" font-size="9.00">showcasemachinetool.ts</text>
</a>
</g>
</g>
<!-- src/addressspace.ts&#45;&gt;src/machines/machinetool/showcasemachinetool.ts -->
<g id="edge2" class="edge">
<title>src/addressspace.ts&#45;&gt;src/machines/machinetool/showcasemachinetool.ts</title>
<path fill="none" stroke="#000000" stroke-width="2" stroke-opacity="0.200000" d="M138.29,-301.75C139.62,-274.18 147.01,-191.33 188,-141 198.53,-128.07 214.38,-118.76 228.8,-112.4"/>
<polygon fill="#000000" fill-opacity="0.200000" stroke="#000000" stroke-width="2" stroke-opacity="0.200000" points="229.73,-114.28 234.45,-110.02 228.1,-110.41 229.73,-114.28"/>
</g>
<!-- src/machines/motiondevicesystem/motiondevicesystem.ts -->
<g id="node5" class="node">
<title>src/machines/motiondevicesystem/motiondevicesystem.ts</title>
<g id="a_node5"><a xlink:href="src/machines/motiondevicesystem/motiondevicesystem.ts" xlink:title="motiondevicesystem.ts">
<path fill="#ddfeff" stroke="black" d="M313.5,-470C313.5,-470 214.5,-470 214.5,-470 211.5,-470 208.5,-467 208.5,-464 208.5,-464 208.5,-458 208.5,-458 208.5,-455 211.5,-452 214.5,-452 214.5,-452 313.5,-452 313.5,-452 316.5,-452 319.5,-455 319.5,-458 319.5,-458 319.5,-464 319.5,-464 319.5,-467 316.5,-470 313.5,-470"/>
<text text-anchor="start" x="216.5" y="-458.8" font-family="Helvetica,sans-Serif" font-size="9.00">motiondevicesystem.ts</text>
</a>
</g>
</g>
<!-- src/addressspace.ts&#45;&gt;src/machines/motiondevicesystem/motiondevicesystem.ts -->
<g id="edge3" class="edge">
<title>src/addressspace.ts&#45;&gt;src/machines/motiondevicesystem/motiondevicesystem.ts</title>
<path fill="none" stroke="#000000" stroke-width="2" stroke-opacity="0.200000" d="M138.87,-320.28C141.57,-343.75 151.94,-405.95 188,-439 192.58,-443.19 197.91,-446.59 203.59,-449.34"/>
<polygon fill="#000000" fill-opacity="0.200000" stroke="#000000" stroke-width="2" stroke-opacity="0.200000" points="203.03,-451.39 209.37,-451.89 204.72,-447.55 203.03,-451.39"/>
</g>
<!-- src/machines/mymachine/mymachine.ts -->
<g id="node6" class="node">
<title>src/machines/mymachine/mymachine.ts</title>
<g id="a_node6"><a xlink:href="src/machines/mymachine/mymachine.ts" xlink:title="mymachine.ts">
<path fill="#ddfeff" stroke="black" d="M295,-50C295,-50 233,-50 233,-50 230,-50 227,-47 227,-44 227,-44 227,-38 227,-38 227,-35 230,-32 233,-32 233,-32 295,-32 295,-32 298,-32 301,-35 301,-38 301,-38 301,-44 301,-44 301,-47 298,-50 295,-50"/>
<text text-anchor="start" x="235" y="-38.8" font-family="Helvetica,sans-Serif" font-size="9.00">mymachine.ts</text>
</a>
</g>
</g>
<!-- src/addressspace.ts&#45;&gt;src/machines/mymachine/mymachine.ts -->
<g id="edge4" class="edge">
<title>src/addressspace.ts&#45;&gt;src/machines/mymachine/mymachine.ts</title>
<path fill="none" stroke="#000000" stroke-width="2" stroke-opacity="0.200000" d="M138.96,-301.82C143.13,-263.57 160.64,-117.18 188,-81 197.82,-68.01 213.11,-58.79 227.33,-52.5"/>
<polygon fill="#000000" fill-opacity="0.200000" stroke="#000000" stroke-width="2" stroke-opacity="0.200000" points="228.21,-54.41 232.92,-50.14 226.58,-50.54 228.21,-54.41"/>
</g>
<!-- src/machines/PlasticsRubber/40077.ts -->
<g id="node7" class="node">
<title>src/machines/PlasticsRubber/40077.ts</title>
<g id="a_node7"><a xlink:href="src/machines/PlasticsRubber/40077.ts" xlink:title="40077.ts">
<path fill="#ddfeff" stroke="black" d="M285,-410C285,-410 243,-410 243,-410 240,-410 237,-407 237,-404 237,-404 237,-398 237,-398 237,-395 240,-392 243,-392 243,-392 285,-392 285,-392 288,-392 291,-395 291,-398 291,-398 291,-404 291,-404 291,-407 288,-410 285,-410"/>
<text text-anchor="start" x="245.5" y="-398.8" font-family="Helvetica,sans-Serif" font-size="9.00">40077.ts</text>
</a>
</g>
</g>
<!-- src/addressspace.ts&#45;&gt;src/machines/PlasticsRubber/40077.ts -->
<g id="edge5" class="edge">
<title>src/addressspace.ts&#45;&gt;src/machines/PlasticsRubber/40077.ts</title>
<path fill="none" stroke="#000000" stroke-width="2" stroke-opacity="0.200000" d="M141.33,-320.09C147.72,-336.16 163.29,-369.46 188,-386 200.44,-394.33 216.47,-398.23 230.51,-399.99"/>
<polygon fill="#000000" fill-opacity="0.200000" stroke="#000000" stroke-width="2" stroke-opacity="0.200000" points="230.61,-402.11 236.8,-400.66 231.06,-397.94 230.61,-402.11"/>
</g>
<!-- src/machines/PlasticsRubber/40079.ts -->
<g id="node8" class="node">
<title>src/machines/PlasticsRubber/40079.ts</title>
<g id="a_node8"><a xlink:href="src/machines/PlasticsRubber/40079.ts" xlink:title="40079.ts">
<path fill="#ddfeff" stroke="black" d="M285,-380C285,-380 243,-380 243,-380 240,-380 237,-377 237,-374 237,-374 237,-368 237,-368 237,-365 240,-362 243,-362 243,-362 285,-362 285,-362 288,-362 291,-365 291,-368 291,-368 291,-374 291,-374 291,-377 288,-380 285,-380"/>
<text text-anchor="start" x="245.5" y="-368.8" font-family="Helvetica,sans-Serif" font-size="9.00">40079.ts</text>
</a>
</g>
</g>
<!-- src/addressspace.ts&#45;&gt;src/machines/PlasticsRubber/40079.ts -->
<g id="edge6" class="edge">
<title>src/addressspace.ts&#45;&gt;src/machines/PlasticsRubber/40079.ts</title>
<path fill="none" stroke="#000000" stroke-width="2" stroke-opacity="0.200000" d="M145.45,-320.18C154.41,-330.57 170.46,-347.2 188,-356 201.17,-362.61 217.02,-366.31 230.75,-368.38"/>
<polygon fill="#000000" fill-opacity="0.200000" stroke="#000000" stroke-width="2" stroke-opacity="0.200000" points="230.66,-370.48 236.89,-369.22 231.23,-366.32 230.66,-370.48"/>
</g>
<!-- src/machines/PlasticsRubber/40082&#45;1.ts -->
<g id="node9" class="node">
<title>src/machines/PlasticsRubber/40082&#45;1.ts</title>
<g id="a_node9"><a xlink:href="src/machines/PlasticsRubber/40082-1.ts" xlink:title="40082&#45;1.ts">
<path fill="#ddfeff" stroke="black" d="M288.5,-350C288.5,-350 239.5,-350 239.5,-350 236.5,-350 233.5,-347 233.5,-344 233.5,-344 233.5,-338 233.5,-338 233.5,-335 236.5,-332 239.5,-332 239.5,-332 288.5,-332 288.5,-332 291.5,-332 294.5,-335 294.5,-338 294.5,-338 294.5,-344 294.5,-344 294.5,-347 291.5,-350 288.5,-350"/>
<text text-anchor="start" x="241.5" y="-338.8" font-family="Helvetica,sans-Serif" font-size="9.00">40082&#45;1.ts</text>
</a>
</g>
</g>
<!-- src/addressspace.ts&#45;&gt;src/machines/PlasticsRubber/40082&#45;1.ts -->
<g id="edge7" class="edge">
<title>src/addressspace.ts&#45;&gt;src/machines/PlasticsRubber/40082&#45;1.ts</title>
<path fill="none" stroke="#000000" stroke-width="2" stroke-opacity="0.200000" d="M166.43,-320.03C173.44,-322.12 180.97,-324.25 188,-326 200.73,-329.18 214.81,-332.14 227.3,-334.57"/>
<polygon fill="#000000" fill-opacity="0.200000" stroke="#000000" stroke-width="2" stroke-opacity="0.200000" points="227,-336.65 233.29,-335.72 227.8,-332.53 227,-336.65"/>
</g>
<!-- src/machines/PlasticsRubber/40082&#45;2.ts -->
<g id="node10" class="node">
<title>src/machines/PlasticsRubber/40082&#45;2.ts</title>
<g id="a_node10"><a xlink:href="src/machines/PlasticsRubber/40082-2.ts" xlink:title="40082&#45;2.ts">
<path fill="#ddfeff" stroke="black" d="M288.5,-320C288.5,-320 239.5,-320 239.5,-320 236.5,-320 233.5,-317 233.5,-314 233.5,-314 233.5,-308 233.5,-308 233.5,-305 236.5,-302 239.5,-302 239.5,-302 288.5,-302 288.5,-302 291.5,-302 294.5,-305 294.5,-308 294.5,-308 294.5,-314 294.5,-314 294.5,-317 291.5,-320 288.5,-320"/>
<text text-anchor="start" x="241.5" y="-308.8" font-family="Helvetica,sans-Serif" font-size="9.00">40082&#45;2.ts</text>
</a>
</g>
</g>
<!-- src/addressspace.ts&#45;&gt;src/machines/PlasticsRubber/40082&#45;2.ts -->
<g id="edge8" class="edge">
<title>src/addressspace.ts&#45;&gt;src/machines/PlasticsRubber/40082&#45;2.ts</title>
<path fill="none" stroke="#000000" stroke-width="2" stroke-opacity="0.200000" d="M180.32,-311C195.56,-311 212.6,-311 227.24,-311"/>
<polygon fill="#000000" fill-opacity="0.200000" stroke="#000000" stroke-width="2" stroke-opacity="0.200000" points="227.35,-313.1 233.35,-311 227.35,-308.9 227.35,-313.1"/>
</g>
<!-- src/machines/PlasticsRubber/40082&#45;3.ts -->
<g id="node11" class="node">
<title>src/machines/PlasticsRubber/40082&#45;3.ts</title>
<g id="a_node11"><a xlink:href="src/machines/PlasticsRubber/40082-3.ts" xlink:title="40082&#45;3.ts">
<path fill="#ddfeff" stroke="black" d="M288.5,-290C288.5,-290 239.5,-290 239.5,-290 236.5,-290 233.5,-287 233.5,-284 233.5,-284 233.5,-278 233.5,-278 233.5,-275 236.5,-272 239.5,-272 239.5,-272 288.5,-272 288.5,-272 291.5,-272 294.5,-275 294.5,-278 294.5,-278 294.5,-284 294.5,-284 294.5,-287 291.5,-290 288.5,-290"/>
<text text-anchor="start" x="241.5" y="-278.8" font-family="Helvetica,sans-Serif" font-size="9.00">40082&#45;3.ts</text>
</a>
</g>
</g>
<!-- src/addressspace.ts&#45;&gt;src/machines/PlasticsRubber/40082&#45;3.ts -->
<g id="edge9" class="edge">
<title>src/addressspace.ts&#45;&gt;src/machines/PlasticsRubber/40082&#45;3.ts</title>
<path fill="none" stroke="#000000" stroke-width="2" stroke-opacity="0.200000" d="M166.43,-301.97C173.44,-299.88 180.97,-297.75 188,-296 200.73,-292.82 214.81,-289.86 227.3,-287.43"/>
<polygon fill="#000000" fill-opacity="0.200000" stroke="#000000" stroke-width="2" stroke-opacity="0.200000" points="227.8,-289.47 233.29,-286.28 227,-285.35 227.8,-289.47"/>
</g>
<!-- src/machines/PlasticsRubber/40084&#45;11.ts -->
<g id="node12" class="node">
<title>src/machines/PlasticsRubber/40084&#45;11.ts</title>
<g id="a_node12"><a xlink:href="src/machines/PlasticsRubber/40084-11.ts" xlink:title="40084&#45;11.ts">
<path fill="#ddfeff" stroke="black" d="M291,-260C291,-260 237,-260 237,-260 234,-260 231,-257 231,-254 231,-254 231,-248 231,-248 231,-245 234,-242 237,-242 237,-242 291,-242 291,-242 294,-242 297,-245 297,-248 297,-248 297,-254 297,-254 297,-257 294,-260 291,-260"/>
<text text-anchor="start" x="239" y="-248.8" font-family="Helvetica,sans-Serif" font-size="9.00">40084&#45;11.ts</text>
</a>
</g>
</g>
<!-- src/addressspace.ts&#45;&gt;src/machines/PlasticsRubber/40084&#45;11.ts -->
<g id="edge10" class="edge">
<title>src/addressspace.ts&#45;&gt;src/machines/PlasticsRubber/40084&#45;11.ts</title>
<path fill="none" stroke="#000000" stroke-width="2" stroke-opacity="0.200000" d="M145.45,-301.82C154.41,-291.43 170.46,-274.8 188,-266 199.22,-260.37 212.38,-256.85 224.51,-254.66"/>
<polygon fill="#000000" fill-opacity="0.200000" stroke="#000000" stroke-width="2" stroke-opacity="0.200000" points="225.18,-256.67 230.75,-253.62 224.49,-252.53 225.18,-256.67"/>
</g>
<!-- src/machines/PlasticsRubber/40084&#45;3.ts -->
<g id="node13" class="node">
<title>src/machines/PlasticsRubber/40084&#45;3.ts</title>
<g id="a_node13"><a xlink:href="src/machines/PlasticsRubber/40084-3.ts" xlink:title="40084&#45;3.ts">
<path fill="#ddfeff" stroke="black" d="M288.5,-230C288.5,-230 239.5,-230 239.5,-230 236.5,-230 233.5,-227 233.5,-224 233.5,-224 233.5,-218 233.5,-218 233.5,-215 236.5,-212 239.5,-212 239.5,-212 288.5,-212 288.5,-212 291.5,-212 294.5,-215 294.5,-218 294.5,-218 294.5,-224 294.5,-224 294.5,-227 291.5,-230 288.5,-230"/>
<text text-anchor="start" x="241.5" y="-218.8" font-family="Helvetica,sans-Serif" font-size="9.00">40084&#45;3.ts</text>
</a>
</g>
</g>
<!-- src/addressspace.ts&#45;&gt;src/machines/PlasticsRubber/40084&#45;3.ts -->
<g id="edge11" class="edge">
<title>src/addressspace.ts&#45;&gt;src/machines/PlasticsRubber/40084&#45;3.ts</title>
<path fill="none" stroke="#000000" stroke-width="2" stroke-opacity="0.200000" d="M141.33,-301.91C147.72,-285.84 163.29,-252.54 188,-236 199.48,-228.31 214.02,-224.39 227.24,-222.45"/>
<polygon fill="#000000" fill-opacity="0.200000" stroke="#000000" stroke-width="2" stroke-opacity="0.200000" points="227.51,-224.54 233.2,-221.7 226.98,-220.37 227.51,-224.54"/>
</g>
<!-- src/machines/PlasticsRubber/40084&#45;9.ts -->
<g id="node14" class="node">
<title>src/machines/PlasticsRubber/40084&#45;9.ts</title>
<g id="a_node14"><a xlink:href="src/machines/PlasticsRubber/40084-9.ts" xlink:title="40084&#45;9.ts">
<path fill="#ddfeff" stroke="black" d="M288.5,-200C288.5,-200 239.5,-200 239.5,-200 236.5,-200 233.5,-197 233.5,-194 233.5,-194 233.5,-188 233.5,-188 233.5,-185 236.5,-182 239.5,-182 239.5,-182 288.5,-182 288.5,-182 291.5,-182 294.5,-185 294.5,-188 294.5,-188 294.5,-194 294.5,-194 294.5,-197 291.5,-200 288.5,-200"/>
<text text-anchor="start" x="241.5" y="-188.8" font-family="Helvetica,sans-Serif" font-size="9.00">40084&#45;9.ts</text>
</a>
</g>
</g>
<!-- src/addressspace.ts&#45;&gt;src/machines/PlasticsRubber/40084&#45;9.ts -->
<g id="edge12" class="edge">
<title>src/addressspace.ts&#45;&gt;src/machines/PlasticsRubber/40084&#45;9.ts</title>
<path fill="none" stroke="#000000" stroke-width="2" stroke-opacity="0.200000" d="M139.5,-302C143.42,-281.45 155.99,-230.94 188,-206 199.08,-197.37 213.81,-193.31 227.29,-191.51"/>
<polygon fill="#000000" fill-opacity="0.200000" stroke="#000000" stroke-width="2" stroke-opacity="0.200000" points="227.64,-193.59 233.37,-190.84 227.17,-189.41 227.64,-193.59"/>
</g>
<!-- src/machines/PlasticsRubber/generic.ts -->
<g id="node15" class="node">
<title>src/machines/PlasticsRubber/generic.ts</title>
<g id="a_node15"><a xlink:href="src/machines/PlasticsRubber/generic.ts" xlink:title="generic.ts">
<path fill="#ddfeff" stroke="black" d="M286.5,-170C286.5,-170 241.5,-170 241.5,-170 238.5,-170 235.5,-167 235.5,-164 235.5,-164 235.5,-158 235.5,-158 235.5,-155 238.5,-152 241.5,-152 241.5,-152 286.5,-152 286.5,-152 289.5,-152 292.5,-155 292.5,-158 292.5,-158 292.5,-164 292.5,-164 292.5,-167 289.5,-170 286.5,-170"/>
<text text-anchor="start" x="243.5" y="-158.8" font-family="Helvetica,sans-Serif" font-size="9.00">generic.ts</text>
</a>
</g>
</g>
<!-- src/addressspace.ts&#45;&gt;src/machines/PlasticsRubber/generic.ts -->
<g id="edge13" class="edge">
<title>src/addressspace.ts&#45;&gt;src/machines/PlasticsRubber/generic.ts</title>
<path fill="none" stroke="#000000" stroke-width="2" stroke-opacity="0.200000" d="M138.47,-301.75C140.25,-277.13 148.66,-209.6 188,-176 199.21,-166.43 214.8,-162.34 228.86,-160.77"/>
<polygon fill="#000000" fill-opacity="0.200000" stroke="#000000" stroke-width="2" stroke-opacity="0.200000" points="229.4,-162.83 235.19,-160.22 229.03,-158.65 229.4,-162.83"/>
</g>
<!-- src/serveraddressspace/serveraddressspace.ts -->
<g id="node16" class="node">
<title>src/serveraddressspace/serveraddressspace.ts</title>
<g id="a_node16"><a xlink:href="src/serveraddressspace/serveraddressspace.ts" xlink:title="serveraddressspace.ts">
<path fill="#ddfeff" stroke="black" d="M314,-556C314,-556 214,-556 214,-556 211,-556 208,-553 208,-550 208,-550 208,-544 208,-544 208,-541 211,-538 214,-538 214,-538 314,-538 314,-538 317,-538 320,-541 320,-544 320,-544 320,-550 320,-550 320,-553 317,-556 314,-556"/>
<text text-anchor="start" x="216" y="-544.8" font-family="Helvetica,sans-Serif" font-size="9.00">serveraddressspace.ts</text>
</a>
</g>
</g>
<!-- src/addressspace.ts&#45;&gt;src/serveraddressspace/serveraddressspace.ts -->
<g id="edge14" class="edge">
<title>src/addressspace.ts&#45;&gt;src/serveraddressspace/serveraddressspace.ts</title>
<path fill="none" stroke="#000000" stroke-width="2" stroke-opacity="0.200000" d="M138.17,-320.21C139.13,-349.34 145.58,-440.9 188,-499 199.77,-515.12 218.75,-527.19 234.67,-535.2"/>
<polygon fill="#000000" fill-opacity="0.200000" stroke="#000000" stroke-width="2" stroke-opacity="0.200000" points="234.07,-537.24 240.38,-537.96 235.9,-533.46 234.07,-537.24"/>
</g>
<!-- src/permissiongroups.ts -->
<g id="node19" class="node">
<title>src/permissiongroups.ts</title>
<g id="a_node19"><a xlink:href="src/permissiongroups.ts" xlink:title="permissiongroups.ts">
<path fill="#ddfeff" stroke="black" d="M459,-608C459,-608 368,-608 368,-608 365,-608 362,-605 362,-602 362,-602 362,-596 362,-596 362,-593 365,-590 368,-590 368,-590 459,-590 459,-590 462,-590 465,-593 465,-596 465,-596 465,-602 465,-602 465,-605 462,-608 459,-608"/>
<text text-anchor="start" x="370" y="-596.8" font-family="Helvetica,sans-Serif" font-size="9.00">permissiongroups.ts</text>
</a>
</g>
</g>
<!-- src/serveraddressspace/serveraddressspace.ts&#45;&gt;src/permissiongroups.ts -->
<g id="edge21" class="edge">
<title>src/serveraddressspace/serveraddressspace.ts&#45;&gt;src/permissiongroups.ts</title>
<path fill="none" stroke="#000000" stroke-width="2" stroke-opacity="0.200000" d="M320.2,-549.39C327.45,-551.67 334.32,-555.05 340,-560 348.8,-567.66 339.36,-577.16 348,-585 350.49,-587.26 353.26,-589.19 356.21,-590.83"/>
<polygon fill="#000000" fill-opacity="0.200000" stroke="#000000" stroke-width="2" stroke-opacity="0.200000" points="355.38,-592.76 361.7,-593.48 357.21,-588.98 355.38,-592.76"/>
</g>
<!-- src/serveraddressspace/myfinitestatemachinetype.ts -->
<g id="node21" class="node">
<title>src/serveraddressspace/myfinitestatemachinetype.ts</title>
<g id="a_node21"><a xlink:href="src/serveraddressspace/myfinitestatemachinetype.ts" xlink:title="myfinitestatemachinetype.ts">
<path fill="#ddfeff" stroke="black" d="M473,-556C473,-556 354,-556 354,-556 351,-556 348,-553 348,-550 348,-550 348,-544 348,-544 348,-541 351,-538 354,-538 354,-538 473,-538 473,-538 476,-538 479,-541 479,-544 479,-544 479,-550 479,-550 479,-553 476,-556 473,-556"/>
<text text-anchor="start" x="356" y="-544.8" font-family="Helvetica,sans-Serif" font-size="9.00">myfinitestatemachinetype.ts</text>
</a>
</g>
</g>
<!-- src/serveraddressspace/serveraddressspace.ts&#45;&gt;src/serveraddressspace/myfinitestatemachinetype.ts -->
<g id="edge22" class="edge">
<title>src/serveraddressspace/serveraddressspace.ts&#45;&gt;src/serveraddressspace/myfinitestatemachinetype.ts</title>
<path fill="none" stroke="#000000" stroke-width="2" stroke-opacity="0.200000" d="M320.34,-547C327.37,-547 334.63,-547 341.85,-547"/>
<polygon fill="#000000" fill-opacity="0.200000" stroke="#000000" stroke-width="2" stroke-opacity="0.200000" points="341.91,-549.1 347.91,-547 341.91,-544.9 341.91,-549.1"/>
</g>
<!-- src/config.ts -->
<g id="node17" class="node">
<title>src/config.ts</title>
<g id="a_node17"><a xlink:href="src/config.ts" xlink:title="config.ts">
<path fill="#ddfeff" stroke="black" d="M158,-692C158,-692 116,-692 116,-692 113,-692 110,-689 110,-686 110,-686 110,-680 110,-680 110,-677 113,-674 116,-674 116,-674 158,-674 158,-674 161,-674 164,-677 164,-680 164,-680 164,-686 164,-686 164,-689 161,-692 158,-692"/>
<text text-anchor="start" x="119.5" y="-680.8" font-family="Helvetica,sans-Serif" font-size="9.00">config.ts</text>
</a>
</g>
</g>
<!-- src/config.ts&#45;&gt;src/utils/log.ts -->
<g id="edge17" class="edge">
<title>src/config.ts&#45;&gt;src/utils/log.ts</title>
<path fill="none" stroke="#000000" stroke-width="2" stroke-opacity="0.200000" d="M164.32,-681.08C214.84,-677.4 325.26,-669.36 380.17,-665.36"/>
<polygon fill="#000000" fill-opacity="0.200000" stroke="#000000" stroke-width="2" stroke-opacity="0.200000" points="380.43,-667.44 386.26,-664.91 380.12,-663.25 380.43,-667.44"/>
</g>
<!-- src/user.ts -->
<g id="node18" class="node">
<title>src/user.ts</title>
<g id="a_node18"><a xlink:href="src/user.ts" xlink:title="user.ts">
<path fill="#ddfeff" stroke="black" d="M285,-706C285,-706 243,-706 243,-706 240,-706 237,-703 237,-700 237,-700 237,-694 237,-694 237,-691 240,-688 243,-688 243,-688 285,-688 285,-688 288,-688 291,-691 291,-694 291,-694 291,-700 291,-700 291,-703 288,-706 285,-706"/>
<text text-anchor="start" x="249.5" y="-694.8" font-family="Helvetica,sans-Serif" font-size="9.00">user.ts</text>
</a>
</g>
</g>
<!-- src/config.ts&#45;&gt;src/user.ts -->
<g id="edge16" class="edge">
<title>src/config.ts&#45;&gt;src/user.ts</title>
<path fill="none" stroke="#000000" stroke-width="2" stroke-opacity="0.200000" d="M164.2,-685.93C183.54,-688.1 209.96,-691.06 230.62,-693.37"/>
<polygon fill="#000000" fill-opacity="0.200000" stroke="#000000" stroke-width="2" stroke-opacity="0.200000" points="230.63,-695.49 236.83,-694.07 231.1,-691.31 230.63,-695.49"/>
</g>
<!-- src/user.ts&#45;&gt;src/utils/log.ts -->
<g id="edge24" class="edge">
<title>src/user.ts&#45;&gt;src/utils/log.ts</title>
<path fill="none" stroke="#000000" stroke-width="2" stroke-opacity="0.200000" d="M291.03,-691C315.94,-685.26 353.58,-676.58 380.36,-670.41"/>
<polygon fill="#000000" fill-opacity="0.200000" stroke="#000000" stroke-width="2" stroke-opacity="0.200000" points="380.86,-672.45 386.23,-669.05 379.92,-668.36 380.86,-672.45"/>
</g>
<!-- src/server.ts -->
<g id="node20" class="node">
<title>src/server.ts</title>
<g id="a_node20"><a xlink:href="src/server.ts" xlink:title="server.ts">
<path fill="#ddfeff" stroke="black" d="M72,-646C72,-646 30,-646 30,-646 27,-646 24,-643 24,-640 24,-640 24,-634 24,-634 24,-631 27,-628 30,-628 30,-628 72,-628 72,-628 75,-628 78,-631 78,-634 78,-634 78,-640 78,-640 78,-643 75,-646 72,-646"/>
<text text-anchor="start" x="33" y="-634.8" font-family="Helvetica,sans-Serif" font-size="9.00">server.ts</text>
</a>
</g>
</g>
<!-- src/server.ts&#45;&gt;src/utils/log.ts -->
<g id="edge20" class="edge">
<title>src/server.ts&#45;&gt;src/utils/log.ts</title>
<path fill="none" stroke="#000000" stroke-width="2" stroke-opacity="0.200000" d="M78.25,-641.23C105.58,-645.46 149.67,-651.79 188,-655 256.16,-660.71 336.29,-662.35 380,-662.82"/>
<polygon fill="#000000" fill-opacity="0.200000" stroke="#000000" stroke-width="2" stroke-opacity="0.200000" points="380.16,-664.92 386.18,-662.88 380.2,-660.72 380.16,-664.92"/>
</g>
<!-- src/server.ts&#45;&gt;src/addressspace.ts -->
<g id="edge18" class="edge">
<title>src/server.ts&#45;&gt;src/addressspace.ts</title>
<path fill="none" stroke="#000000" stroke-width="2" stroke-opacity="0.200000" d="M54.33,-627.94C65.94,-582.89 117.48,-382.87 132.11,-326.08"/>
<polygon fill="#000000" fill-opacity="0.200000" stroke="#000000" stroke-width="2" stroke-opacity="0.200000" points="134.17,-326.5 133.64,-320.17 130.11,-325.46 134.17,-326.5"/>
</g>
<!-- src/server.ts&#45;&gt;src/config.ts -->
<g id="edge19" class="edge">
<title>src/server.ts&#45;&gt;src/config.ts</title>
<path fill="none" stroke="#000000" stroke-width="2" stroke-opacity="0.200000" d="M78.3,-645.7C81.06,-647.22 83.7,-648.98 86,-651 91.38,-655.73 88.65,-660.23 94,-665 97.02,-667.7 100.51,-670.03 104.16,-672.05"/>
<polygon fill="#000000" fill-opacity="0.200000" stroke="#000000" stroke-width="2" stroke-opacity="0.200000" points="103.28,-673.95 109.58,-674.77 105.16,-670.2 103.28,-673.95"/>
</g>
<!-- src/test/test.ts -->
<g id="node22" class="node">
<title>src/test/test.ts</title>
<g id="a_node22"><a xlink:href="src/test/test.ts" xlink:title="test.ts">
<path fill="#ddfeff" stroke="black" d="M72,-680C72,-680 30,-680 30,-680 27,-680 24,-677 24,-674 24,-674 24,-668 24,-668 24,-665 27,-662 30,-662 30,-662 72,-662 72,-662 75,-662 78,-665 78,-668 78,-668 78,-674 78,-674 78,-677 75,-680 72,-680"/>
<text text-anchor="start" x="38.5" y="-668.8" font-family="Helvetica,sans-Serif" font-size="9.00">test.ts</text>
</a>
</g>
</g>
<!-- src/test/test.ts&#45;&gt;src/config.ts -->
<g id="edge23" class="edge">
<title>src/test/test.ts&#45;&gt;src/config.ts</title>
<path fill="none" stroke="#000000" stroke-width="2" stroke-opacity="0.200000" d="M78.12,-674.73C86.18,-675.88 95.15,-677.16 103.58,-678.37"/>
<polygon fill="#000000" fill-opacity="0.200000" stroke="#000000" stroke-width="2" stroke-opacity="0.200000" points="103.66,-680.5 109.9,-679.27 104.26,-676.34 103.66,-680.5"/>
</g>
<!-- src/utils/userfile.ts -->
<g id="node23" class="node">
<title>src/utils/userfile.ts</title>
<g id="a_node23"><a xlink:href="src/utils/userfile.ts" xlink:title="userfile.ts">
<path fill="#ccffcc" stroke="black" d="M436,-642C436,-642 391,-642 391,-642 388,-642 385,-639 385,-636 385,-636 385,-630 385,-630 385,-627 388,-624 391,-624 391,-624 436,-624 436,-624 439,-624 442,-627 442,-630 442,-630 442,-636 442,-636 442,-639 439,-642 436,-642"/>
<text text-anchor="start" x="393" y="-630.8" font-family="Helvetica,sans-Serif" font-size="9.00">userfile.ts</text>
</a>
</g>
</g>
</g>
</svg>
