<?xml version="1.0" encoding="UTF-8" standalone="no"?>
<!DOCTYPE svg PUBLIC "-//W3C//DTD SVG 1.1//EN"
 "http://www.w3.org/Graphics/SVG/1.1/DTD/svg11.dtd">
<!-- Generated by graphviz version 2.46.0 (20210118.1747)
 -->
<!-- Title: dependency&#45;cruiser output Pages: 1 -->
<svg width="475pt" height="434pt"
 viewBox="0.00 0.00 475.00 434.00" xmlns="http://www.w3.org/2000/svg" xmlns:xlink="http://www.w3.org/1999/xlink">
<g id="graph0" class="graph" transform="scale(1 1) rotate(0) translate(4 430)">
<title>dependency&#45;cruiser output</title>
<polygon fill="white" stroke="transparent" points="-4,4 -4,-430 471,-430 471,4 -4,4"/>
<g id="clust1" class="cluster">
<title>cluster_src</title>
<path fill="#ffffff" stroke="black" stroke-width="2" d="M20,-8C20,-8 447,-8 447,-8 453,-8 459,-14 459,-20 459,-20 459,-406 459,-406 459,-412 453,-418 447,-418 447,-418 20,-418 20,-418 14,-418 8,-412 8,-406 8,-406 8,-20 8,-20 8,-14 14,-8 20,-8"/>
<text text-anchor="middle" x="233.5" y="-406.8" font-family="Helvetica,sans-Serif" font-weight="bold" font-size="9.00">src</text>
</g>
<g id="clust2" class="cluster">
<title>cluster_src/LocalDiscoveryServer</title>
<path fill="#ffffff" stroke="black" stroke-width="2" d="M210,-340C210,-340 318,-340 318,-340 324,-340 330,-346 330,-352 330,-352 330,-380 330,-380 330,-386 324,-392 318,-392 318,-392 210,-392 210,-392 204,-392 198,-386 198,-380 198,-380 198,-352 198,-352 198,-346 204,-340 210,-340"/>
<text text-anchor="middle" x="264" y="-380.8" font-family="Helvetica,sans-Serif" font-weight="bold" font-size="9.00">LocalDiscoveryServer</text>
</g>
<g id="clust3" class="cluster">
<title>cluster_src/machines</title>
<path fill="#ffffff" stroke="black" stroke-width="2" d="M200,-86C200,-86 328,-86 328,-86 334,-86 340,-92 340,-98 340,-98 340,-280 340,-280 340,-286 334,-292 328,-292 328,-292 200,-292 200,-292 194,-292 188,-286 188,-280 188,-280 188,-98 188,-98 188,-92 194,-86 200,-86"/>
<text text-anchor="middle" x="264" y="-280.8" font-family="Helvetica,sans-Serif" font-weight="bold" font-size="9.00">machines</text>
</g>
<g id="clust5" class="cluster">
<title>cluster_src/machines/mymachine</title>
<path fill="#ffffff" stroke="black" stroke-width="2" d="M231,-214C231,-214 297,-214 297,-214 303,-214 309,-220 309,-226 309,-226 309,-254 309,-254 309,-260 303,-266 297,-266 297,-266 231,-266 231,-266 225,-266 219,-260 219,-254 219,-254 219,-226 219,-226 219,-220 225,-214 231,-214"/>
<text text-anchor="middle" x="264" y="-254.8" font-family="Helvetica,sans-Serif" font-weight="bold" font-size="9.00">mymachine</text>
</g>
<g id="clust4" class="cluster">
<title>cluster_src/machines/machinetool</title>
<path fill="#ffffff" stroke="black" stroke-width="2" d="M208,-154C208,-154 320,-154 320,-154 326,-154 332,-160 332,-166 332,-166 332,-194 332,-194 332,-200 326,-206 320,-206 320,-206 208,-206 208,-206 202,-206 196,-200 196,-194 196,-194 196,-166 196,-166 196,-160 202,-154 208,-154"/>
<text text-anchor="middle" x="264" y="-194.8" font-family="Helvetica,sans-Serif" font-weight="bold" font-size="9.00">machinetool</text>
</g>
<g id="clust6" class="cluster">
<title>cluster_src/machines/sample_imm</title>
<path fill="#ffffff" stroke="black" stroke-width="2" d="M227,-94C227,-94 301,-94 301,-94 307,-94 313,-100 313,-106 313,-106 313,-134 313,-134 313,-140 307,-146 301,-146 301,-146 227,-146 227,-146 221,-146 215,-140 215,-134 215,-134 215,-106 215,-106 215,-100 221,-94 227,-94"/>
<text text-anchor="middle" x="264" y="-134.8" font-family="Helvetica,sans-Serif" font-weight="bold" font-size="9.00">sample_imm</text>
</g>
<g id="clust7" class="cluster">
<title>cluster_src/serveraddressspace</title>
<path fill="#ffffff" stroke="black" stroke-width="2" d="M212,-16C212,-16 316,-16 316,-16 322,-16 328,-22 328,-28 328,-28 328,-56 328,-56 328,-62 322,-68 316,-68 316,-68 212,-68 212,-68 206,-68 200,-62 200,-56 200,-56 200,-28 200,-28 200,-22 206,-16 212,-16"/>
<text text-anchor="middle" x="264" y="-56.8" font-family="Helvetica,sans-Serif" font-weight="bold" font-size="9.00">serveraddressspace</text>
</g>
<g id="clust8" class="cluster">
<title>cluster_src/test</title>
<path fill="#ffffff" stroke="black" stroke-width="2" d="M28,-312C28,-312 74,-312 74,-312 80,-312 86,-318 86,-324 86,-324 86,-352 86,-352 86,-358 80,-364 74,-364 74,-364 28,-364 28,-364 22,-364 16,-358 16,-352 16,-352 16,-324 16,-324 16,-318 22,-312 28,-312"/>
<text text-anchor="middle" x="51" y="-352.8" font-family="Helvetica,sans-Serif" font-weight="bold" font-size="9.00">test</text>
</g>
<g id="clust9" class="cluster">
<title>cluster_src/utils</title>
<path fill="#ffffff" stroke="black" stroke-width="2" d="M375,-265C375,-265 424,-265 424,-265 430,-265 436,-271 436,-277 436,-277 436,-335 436,-335 436,-341 430,-347 424,-347 424,-347 375,-347 375,-347 369,-347 363,-341 363,-335 363,-335 363,-277 363,-277 363,-271 369,-265 375,-265"/>
<text text-anchor="middle" x="399.5" y="-335.8" font-family="Helvetica,sans-Serif" font-weight="bold" font-size="9.00">utils</text>
</g>
<!-- src/LocalDiscoveryServer/local&#45;discovery&#45;server.ts -->
<g id="node1" class="node">
<title>src/LocalDiscoveryServer/local&#45;discovery&#45;server.ts</title>
<g id="a_node1"><a xlink:href="src/LocalDiscoveryServer/local-discovery-server.ts" xlink:title="local&#45;discovery&#45;server.ts">
<path fill="#ddfeff" stroke="black" d="M316,-366C316,-366 212,-366 212,-366 209,-366 206,-363 206,-360 206,-360 206,-354 206,-354 206,-351 209,-348 212,-348 212,-348 316,-348 316,-348 319,-348 322,-351 322,-354 322,-354 322,-360 322,-360 322,-363 319,-366 316,-366"/>
<text text-anchor="middle" x="264" y="-354.8" font-family="Helvetica,sans-Serif" font-size="9.00">local&#45;discovery&#45;server.ts</text>
</a>
</g>
</g>
<!-- src/utils/log.ts -->
<g id="node2" class="node">
<title>src/utils/log.ts</title>
<g id="a_node2"><a xlink:href="src/utils/log.ts" xlink:title="log.ts">
<path fill="#ddfeff" stroke="black" d="M420.5,-321C420.5,-321 378.5,-321 378.5,-321 375.5,-321 372.5,-318 372.5,-315 372.5,-315 372.5,-309 372.5,-309 372.5,-306 375.5,-303 378.5,-303 378.5,-303 420.5,-303 420.5,-303 423.5,-303 426.5,-306 426.5,-309 426.5,-309 426.5,-315 426.5,-315 426.5,-318 423.5,-321 420.5,-321"/>
<text text-anchor="middle" x="399.5" y="-309.8" font-family="Helvetica,sans-Serif" font-size="9.00">log.ts</text>
</a>
</g>
</g>
<!-- src/LocalDiscoveryServer/local&#45;discovery&#45;server.ts&#45;&gt;src/utils/log.ts -->
<g id="edge1" class="edge">
<title>src/LocalDiscoveryServer/local&#45;discovery&#45;server.ts&#45;&gt;src/utils/log.ts</title>
<path fill="none" stroke="#000000" stroke-width="2" stroke-opacity="0.200000" d="M322.02,-349.16C328.16,-347.71 334.26,-346 340,-344 353.9,-339.14 368.43,-331.21 379.53,-324.46"/>
<polygon fill="#000000" fill-opacity="0.200000" stroke="#000000" stroke-width="2" stroke-opacity="0.200000" points="380.7,-326.21 384.69,-321.26 378.48,-322.64 380.7,-326.21"/>
</g>
<!-- src/addressspace.ts -->
<g id="node3" class="node">
<title>src/addressspace.ts</title>
<g id="a_node3"><a xlink:href="src/addressspace.ts" xlink:title="addressspace.ts">
<path fill="#ddfeff" stroke="black" d="M174,-150C174,-150 100,-150 100,-150 97,-150 94,-147 94,-144 94,-144 94,-138 94,-138 94,-135 97,-132 100,-132 100,-132 174,-132 174,-132 177,-132 180,-135 180,-138 180,-138 180,-144 180,-144 180,-147 177,-150 174,-150"/>
<text text-anchor="middle" x="137" y="-138.8" font-family="Helvetica,sans-Serif" font-size="9.00">addressspace.ts</text>
</a>
</g>
</g>
<!-- src/addressspace.ts&#45;&gt;src/utils/log.ts -->
<g id="edge6" class="edge">
<title>src/addressspace.ts&#45;&gt;src/utils/log.ts</title>
<path fill="none" stroke="#000000" stroke-width="2" stroke-opacity="0.200000" d="M143.75,-131.83C151.89,-119.8 168.04,-99.27 188,-91 219.21,-78.07 315.66,-67.58 340,-91 356.51,-106.88 333.95,-278.91 348,-297 352.56,-302.87 359.31,-306.52 366.4,-308.78"/>
<polygon fill="#000000" fill-opacity="0.200000" stroke="#000000" stroke-width="2" stroke-opacity="0.200000" points="366.07,-310.86 372.4,-310.36 367.14,-306.8 366.07,-310.86"/>
</g>
<!-- src/machines/machinetool/showcasemachinetool.ts -->
<g id="node4" class="node">
<title>src/machines/machinetool/showcasemachinetool.ts</title>
<g id="a_node4"><a xlink:href="src/machines/machinetool/showcasemachinetool.ts" xlink:title="showcasemachinetool.ts">
<path fill="#ddfeff" stroke="black" d="M318,-180C318,-180 210,-180 210,-180 207,-180 204,-177 204,-174 204,-174 204,-168 204,-168 204,-165 207,-162 210,-162 210,-162 318,-162 318,-162 321,-162 324,-165 324,-168 324,-168 324,-174 324,-174 324,-177 321,-180 318,-180"/>
<text text-anchor="middle" x="264" y="-168.8" font-family="Helvetica,sans-Serif" font-size="9.00">showcasemachinetool.ts</text>
</a>
</g>
</g>
<!-- src/addressspace.ts&#45;&gt;src/machines/machinetool/showcasemachinetool.ts -->
<g id="edge2" class="edge">
<title>src/addressspace.ts&#45;&gt;src/machines/machinetool/showcasemachinetool.ts</title>
<path fill="none" stroke="#000000" stroke-width="2" stroke-opacity="0.200000" d="M175.5,-150C189.22,-153.29 204.86,-157.05 219.09,-160.46"/>
<polygon fill="#000000" fill-opacity="0.200000" stroke="#000000" stroke-width="2" stroke-opacity="0.200000" points="218.77,-162.54 225.09,-161.9 219.75,-158.46 218.77,-162.54"/>
</g>
<!-- src/machines/mymachine/mymachine.ts -->
<g id="node5" class="node">
<title>src/machines/mymachine/mymachine.ts</title>
<g id="a_node5"><a xlink:href="src/machines/mymachine/mymachine.ts" xlink:title="mymachine.ts">
<path fill="#ddfeff" stroke="black" d="M295,-240C295,-240 233,-240 233,-240 230,-240 227,-237 227,-234 227,-234 227,-228 227,-228 227,-225 230,-222 233,-222 233,-222 295,-222 295,-222 298,-222 301,-225 301,-228 301,-228 301,-234 301,-234 301,-237 298,-240 295,-240"/>
<text text-anchor="middle" x="264" y="-228.8" font-family="Helvetica,sans-Serif" font-size="9.00">mymachine.ts</text>
</a>
</g>
</g>
<!-- src/addressspace.ts&#45;&gt;src/machines/mymachine/mymachine.ts -->
<g id="edge3" class="edge">
<title>src/addressspace.ts&#45;&gt;src/machines/mymachine/mymachine.ts</title>
<path fill="none" stroke="#000000" stroke-width="2" stroke-opacity="0.200000" d="M142.4,-150.44C149.75,-165.17 165.92,-193.53 188,-209 197.75,-215.83 209.62,-220.56 221.02,-223.83"/>
<polygon fill="#000000" fill-opacity="0.200000" stroke="#000000" stroke-width="2" stroke-opacity="0.200000" points="220.58,-225.89 226.92,-225.41 221.67,-221.83 220.58,-225.89"/>
</g>
<!-- src/machines/sample_imm/sample_imm.ts -->
<g id="node6" class="node">
<title>src/machines/sample_imm/sample_imm.ts</title>
<g id="a_node6"><a xlink:href="src/machines/sample_imm/sample_imm.ts" xlink:title="sample_imm.ts">
<path fill="#ddfeff" stroke="black" d="M299,-120C299,-120 229,-120 229,-120 226,-120 223,-117 223,-114 223,-114 223,-108 223,-108 223,-105 226,-102 229,-102 229,-102 299,-102 299,-102 302,-102 305,-105 305,-108 305,-108 305,-114 305,-114 305,-117 302,-120 299,-120"/>
<text text-anchor="middle" x="264" y="-108.8" font-family="Helvetica,sans-Serif" font-size="9.00">sample_imm.ts</text>
</a>
</g>
</g>
<!-- src/addressspace.ts&#45;&gt;src/machines/sample_imm/sample_imm.ts -->
<g id="edge4" class="edge">
<title>src/addressspace.ts&#45;&gt;src/machines/sample_imm/sample_imm.ts</title>
<path fill="none" stroke="#000000" stroke-width="2" stroke-opacity="0.200000" d="M175.5,-132C189.22,-128.71 204.86,-124.95 219.09,-121.54"/>
<polygon fill="#000000" fill-opacity="0.200000" stroke="#000000" stroke-width="2" stroke-opacity="0.200000" points="219.75,-123.54 225.09,-120.1 218.77,-119.46 219.75,-123.54"/>
</g>
<!-- src/serveraddressspace/serveraddressspace.ts -->
<g id="node7" class="node">
<title>src/serveraddressspace/serveraddressspace.ts</title>
<g id="a_node7"><a xlink:href="src/serveraddressspace/serveraddressspace.ts" xlink:title="serveraddressspace.ts">
<path fill="#ddfeff" stroke="black" d="M314,-42C314,-42 214,-42 214,-42 211,-42 208,-39 208,-36 208,-36 208,-30 208,-30 208,-27 211,-24 214,-24 214,-24 314,-24 314,-24 317,-24 320,-27 320,-30 320,-30 320,-36 320,-36 320,-39 317,-42 314,-42"/>
<text text-anchor="middle" x="264" y="-30.8" font-family="Helvetica,sans-Serif" font-size="9.00">serveraddressspace.ts</text>
</a>
</g>
</g>
<!-- src/addressspace.ts&#45;&gt;src/serveraddressspace/serveraddressspace.ts -->
<g id="edge5" class="edge">
<title>src/addressspace.ts&#45;&gt;src/serveraddressspace/serveraddressspace.ts</title>
<path fill="none" stroke="#000000" stroke-width="2" stroke-opacity="0.200000" d="M139.94,-131.92C144.57,-112.67 158.16,-67.71 188,-46 192.22,-42.93 196.93,-40.49 201.87,-38.57"/>
<polygon fill="#000000" fill-opacity="0.200000" stroke="#000000" stroke-width="2" stroke-opacity="0.200000" points="202.77,-40.48 207.77,-36.55 201.41,-36.51 202.77,-40.48"/>
</g>
<!-- src/permissiongroups.ts -->
<g id="node10" class="node">
<title>src/permissiongroups.ts</title>
<g id="a_node10"><a xlink:href="src/permissiongroups.ts" xlink:title="permissiongroups.ts">
<path fill="#ddfeff" stroke="black" d="M445,-42C445,-42 354,-42 354,-42 351,-42 348,-39 348,-36 348,-36 348,-30 348,-30 348,-27 351,-24 354,-24 354,-24 445,-24 445,-24 448,-24 451,-27 451,-30 451,-30 451,-36 451,-36 451,-39 448,-42 445,-42"/>
<text text-anchor="middle" x="399.5" y="-30.8" font-family="Helvetica,sans-Serif" font-size="9.00">permissiongroups.ts</text>
</a>
</g>
</g>
<!-- src/serveraddressspace/serveraddressspace.ts&#45;&gt;src/permissiongroups.ts -->
<g id="edge11" class="edge">
<title>src/serveraddressspace/serveraddressspace.ts&#45;&gt;src/permissiongroups.ts</title>
<path fill="none" stroke="#000000" stroke-width="2" stroke-opacity="0.200000" d="M320.07,-33C327.25,-33 334.62,-33 341.83,-33"/>
<polygon fill="#000000" fill-opacity="0.200000" stroke="#000000" stroke-width="2" stroke-opacity="0.200000" points="341.84,-35.1 347.84,-33 341.84,-30.9 341.84,-35.1"/>
</g>
<!-- src/config.ts -->
<g id="node8" class="node">
<title>src/config.ts</title>
<g id="a_node8"><a xlink:href="src/config.ts" xlink:title="config.ts">
<path fill="#ddfeff" stroke="black" d="M158,-332C158,-332 116,-332 116,-332 113,-332 110,-329 110,-326 110,-326 110,-320 110,-320 110,-317 113,-314 116,-314 116,-314 158,-314 158,-314 161,-314 164,-317 164,-320 164,-320 164,-326 164,-326 164,-329 161,-332 158,-332"/>
<text text-anchor="middle" x="137" y="-320.8" font-family="Helvetica,sans-Serif" font-size="9.00">config.ts</text>
</a>
</g>
</g>
<!-- src/user.ts -->
<g id="node9" class="node">
<title>src/user.ts</title>
<g id="a_node9"><a xlink:href="src/user.ts" xlink:title="user.ts">
<path fill="#ddfeff" stroke="black" d="M285,-332C285,-332 243,-332 243,-332 240,-332 237,-329 237,-326 237,-326 237,-320 237,-320 237,-317 240,-314 243,-314 243,-314 285,-314 285,-314 288,-314 291,-317 291,-320 291,-320 291,-326 291,-326 291,-329 288,-332 285,-332"/>
<text text-anchor="middle" x="264" y="-320.8" font-family="Helvetica,sans-Serif" font-size="9.00">user.ts</text>
</a>
</g>
</g>
<!-- src/config.ts&#45;&gt;src/user.ts -->
<g id="edge7" class="edge">
<title>src/config.ts&#45;&gt;src/user.ts</title>
<path fill="none" stroke="#000000" stroke-width="2" stroke-opacity="0.200000" d="M164.2,-323C183.54,-323 209.96,-323 230.62,-323"/>
<polygon fill="#000000" fill-opacity="0.200000" stroke="#000000" stroke-width="2" stroke-opacity="0.200000" points="230.83,-325.1 236.83,-323 230.83,-320.9 230.83,-325.1"/>
</g>
<!-- src/user.ts&#45;&gt;src/utils/log.ts -->
<g id="edge13" class="edge">
<title>src/user.ts&#45;&gt;src/utils/log.ts</title>
<path fill="none" stroke="#000000" stroke-width="2" stroke-opacity="0.200000" d="M291.06,-320.85C312.51,-319.09 343.03,-316.57 366.07,-314.67"/>
<polygon fill="#000000" fill-opacity="0.200000" stroke="#000000" stroke-width="2" stroke-opacity="0.200000" points="366.25,-316.76 372.05,-314.18 365.9,-312.58 366.25,-316.76"/>
</g>
<!-- src/server.ts -->
<g id="node11" class="node">
<title>src/server.ts</title>
<g id="a_node11"><a xlink:href="src/server.ts" xlink:title="server.ts">
<path fill="#ddfeff" stroke="black" d="M72,-304C72,-304 30,-304 30,-304 27,-304 24,-301 24,-298 24,-298 24,-292 24,-292 24,-289 27,-286 30,-286 30,-286 72,-286 72,-286 75,-286 78,-289 78,-292 78,-292 78,-298 78,-298 78,-301 75,-304 72,-304"/>
<text text-anchor="middle" x="51" y="-292.8" font-family="Helvetica,sans-Serif" font-size="9.00">server.ts</text>
</a>
</g>
</g>
<!-- src/server.ts&#45;&gt;src/utils/log.ts -->
<g id="edge10" class="edge">
<title>src/server.ts&#45;&gt;src/utils/log.ts</title>
<path fill="none" stroke="#000000" stroke-width="2" stroke-opacity="0.200000" d="M78.22,-295.98C128.84,-297.92 243.56,-302.53 340,-308 348.42,-308.48 357.52,-309.07 365.98,-309.64"/>
<polygon fill="#000000" fill-opacity="0.200000" stroke="#000000" stroke-width="2" stroke-opacity="0.200000" points="366.17,-311.76 372.3,-310.08 366.46,-307.57 366.17,-311.76"/>
</g>
<!-- src/server.ts&#45;&gt;src/addressspace.ts -->
<g id="edge8" class="edge">
<title>src/server.ts&#45;&gt;src/addressspace.ts</title>
<path fill="none" stroke="#000000" stroke-width="2" stroke-opacity="0.200000" d="M57,-285.83C71.03,-260.1 110.85,-187.1 127.99,-155.68"/>
<polygon fill="#000000" fill-opacity="0.200000" stroke="#000000" stroke-width="2" stroke-opacity="0.200000" points="129.89,-156.59 130.92,-150.32 126.2,-154.58 129.89,-156.59"/>
</g>
<!-- src/server.ts&#45;&gt;src/config.ts -->
<g id="edge9" class="edge">
<title>src/server.ts&#45;&gt;src/config.ts</title>
<path fill="none" stroke="#000000" stroke-width="2" stroke-opacity="0.200000" d="M78.12,-303.71C86.34,-306.45 95.5,-309.5 104.08,-312.36"/>
<polygon fill="#000000" fill-opacity="0.200000" stroke="#000000" stroke-width="2" stroke-opacity="0.200000" points="103.54,-314.39 109.9,-314.3 104.87,-310.41 103.54,-314.39"/>
</g>
<!-- src/test/test.ts -->
<g id="node12" class="node">
<title>src/test/test.ts</title>
<g id="a_node12"><a xlink:href="src/test/test.ts" xlink:title="test.ts">
<path fill="#ddfeff" stroke="black" d="M72,-338C72,-338 30,-338 30,-338 27,-338 24,-335 24,-332 24,-332 24,-326 24,-326 24,-323 27,-320 30,-320 30,-320 72,-320 72,-320 75,-320 78,-323 78,-326 78,-326 78,-332 78,-332 78,-335 75,-338 72,-338"/>
<text text-anchor="middle" x="51" y="-326.8" font-family="Helvetica,sans-Serif" font-size="9.00">test.ts</text>
</a>
</g>
</g>
<!-- src/test/test.ts&#45;&gt;src/config.ts -->
<g id="edge12" class="edge">
<title>src/test/test.ts&#45;&gt;src/config.ts</title>
<path fill="none" stroke="#000000" stroke-width="2" stroke-opacity="0.200000" d="M78.12,-327.13C86.18,-326.56 95.15,-325.92 103.58,-325.32"/>
<polygon fill="#000000" fill-opacity="0.200000" stroke="#000000" stroke-width="2" stroke-opacity="0.200000" points="104.06,-327.39 109.9,-324.86 103.76,-323.2 104.06,-327.39"/>
</g>
<!-- src/utils/userfile.ts -->
<g id="node13" class="node">
<title>src/utils/userfile.ts</title>
<g id="a_node13"><a xlink:href="src/utils/userfile.ts" xlink:title="userfile.ts">
<path fill="#ccffcc" stroke="black" d="M422,-291C422,-291 377,-291 377,-291 374,-291 371,-288 371,-285 371,-285 371,-279 371,-279 371,-276 374,-273 377,-273 377,-273 422,-273 422,-273 425,-273 428,-276 428,-279 428,-279 428,-285 428,-285 428,-288 425,-291 422,-291"/>
<text text-anchor="middle" x="399.5" y="-279.8" font-family="Helvetica,sans-Serif" font-size="9.00">userfile.ts</text>
</a>
</g>
</g>
</g>
</svg>
