<?xml version="1.0" encoding="UTF-8" standalone="no"?>
<!DOCTYPE svg PUBLIC "-//W3C//DTD SVG 1.1//EN"
 "http://www.w3.org/Graphics/SVG/1.1/DTD/svg11.dtd">
<!-- Generated by graphviz version 2.43.0 (0)
 -->
<!-- Title: dependency&#45;cruiser output Pages: 1 -->
<svg width="541pt" height="962pt"
 viewBox="0.00 0.00 541.00 962.00" xmlns="http://www.w3.org/2000/svg" xmlns:xlink="http://www.w3.org/1999/xlink">
<g id="graph0" class="graph" transform="scale(1 1) rotate(0) translate(4 958)">
<title>dependency&#45;cruiser output</title>
<polygon fill="white" stroke="transparent" points="-4,4 -4,-958 537,-958 537,4 -4,4"/>
<g id="clust1" class="cluster">
<title>cluster_src</title>
<path fill="#ffffff" stroke="black" stroke-width="2" d="M20,-8C20,-8 513,-8 513,-8 519,-8 525,-14 525,-20 525,-20 525,-934 525,-934 525,-940 519,-946 513,-946 513,-946 20,-946 20,-946 14,-946 8,-940 8,-934 8,-934 8,-20 8,-20 8,-14 14,-8 20,-8"/>
<text text-anchor="middle" x="266.5" y="-934.8" font-family="Helvetica,sans-Serif" font-weight="bold" font-size="9.00">src</text>
</g>
<g id="clust2" class="cluster">
<title>cluster_src/LocalDiscoveryServer</title>
<path fill="#ffffff" stroke="black" stroke-width="2" d="M214.5,-868C214.5,-868 330.5,-868 330.5,-868 336.5,-868 342.5,-874 342.5,-880 342.5,-880 342.5,-908 342.5,-908 342.5,-914 336.5,-920 330.5,-920 330.5,-920 214.5,-920 214.5,-920 208.5,-920 202.5,-914 202.5,-908 202.5,-908 202.5,-880 202.5,-880 202.5,-874 208.5,-868 214.5,-868"/>
<text text-anchor="middle" x="272.5" y="-908.8" font-family="Helvetica,sans-Serif" font-weight="bold" font-size="9.00">LocalDiscoveryServer</text>
</g>
<g id="clust3" class="cluster">
<title>cluster_src/machines</title>
<path fill="#ffffff" stroke="black" stroke-width="2" d="M203,-16C203,-16 342,-16 342,-16 348,-16 354,-22 354,-28 354,-28 354,-720 354,-720 354,-726 348,-732 342,-732 342,-732 203,-732 203,-732 197,-732 191,-726 191,-720 191,-720 191,-28 191,-28 191,-22 197,-16 203,-16"/>
<text text-anchor="middle" x="272.5" y="-720.8" font-family="Helvetica,sans-Serif" font-weight="bold" font-size="9.00">machines</text>
</g>
<g id="clust4" class="cluster">
<title>cluster_src/machines/LaserSystem</title>
<path fill="#ffffff" stroke="black" stroke-width="2" d="M233.5,-654C233.5,-654 311.5,-654 311.5,-654 317.5,-654 323.5,-660 323.5,-666 323.5,-666 323.5,-694 323.5,-694 323.5,-700 317.5,-706 311.5,-706 311.5,-706 233.5,-706 233.5,-706 227.5,-706 221.5,-700 221.5,-694 221.5,-694 221.5,-666 221.5,-666 221.5,-660 227.5,-654 233.5,-654"/>
<text text-anchor="middle" x="272.5" y="-694.8" font-family="Helvetica,sans-Serif" font-weight="bold" font-size="9.00">LaserSystem</text>
</g>
<g id="clust5" class="cluster">
<title>cluster_src/machines/PlasticsRubber</title>
<path fill="#ffffff" stroke="black" stroke-width="2" d="M238,-354C238,-354 307,-354 307,-354 313,-354 319,-360 319,-366 319,-366 319,-634 319,-634 319,-640 313,-646 307,-646 307,-646 238,-646 238,-646 232,-646 226,-640 226,-634 226,-634 226,-366 226,-366 226,-360 232,-354 238,-354"/>
<text text-anchor="middle" x="272.5" y="-634.8" font-family="Helvetica,sans-Serif" font-weight="bold" font-size="9.00">PlasticsRubber</text>
</g>
<g id="clust6" class="cluster">
<title>cluster_src/machines/WoodWorking</title>
<path fill="#ffffff" stroke="black" stroke-width="2" d="M241,-264C241,-264 305,-264 305,-264 311,-264 317,-270 317,-276 317,-276 317,-334 317,-334 317,-340 311,-346 305,-346 305,-346 241,-346 241,-346 235,-346 229,-340 229,-334 229,-334 229,-276 229,-276 229,-270 235,-264 241,-264"/>
<text text-anchor="middle" x="273" y="-334.8" font-family="Helvetica,sans-Serif" font-weight="bold" font-size="9.00">WoodWorking</text>
</g>
<g id="clust7" class="cluster">
<title>cluster_src/machines/machinetool</title>
<path fill="#ffffff" stroke="black" stroke-width="2" d="M211,-144C211,-144 334,-144 334,-144 340,-144 346,-150 346,-156 346,-156 346,-244 346,-244 346,-250 340,-256 334,-256 334,-256 211,-256 211,-256 205,-256 199,-250 199,-244 199,-244 199,-156 199,-156 199,-150 205,-144 211,-144"/>
<text text-anchor="middle" x="272.5" y="-244.8" font-family="Helvetica,sans-Serif" font-weight="bold" font-size="9.00">machinetool</text>
</g>
<g id="clust8" class="cluster">
<title>cluster_src/machines/motiondevicesystem</title>
<path fill="#ffffff" stroke="black" stroke-width="2" d="M216,-84C216,-84 329,-84 329,-84 335,-84 341,-90 341,-96 341,-96 341,-124 341,-124 341,-130 335,-136 329,-136 329,-136 216,-136 216,-136 210,-136 204,-130 204,-124 204,-124 204,-96 204,-96 204,-90 210,-84 216,-84"/>
<text text-anchor="middle" x="272.5" y="-124.8" font-family="Helvetica,sans-Serif" font-weight="bold" font-size="9.00">motiondevicesystem</text>
</g>
<g id="clust9" class="cluster">
<title>cluster_src/machines/mymachine</title>
<path fill="#ffffff" stroke="black" stroke-width="2" d="M236,-24C236,-24 309,-24 309,-24 315,-24 321,-30 321,-36 321,-36 321,-64 321,-64 321,-70 315,-76 309,-76 309,-76 236,-76 236,-76 230,-76 224,-70 224,-64 224,-64 224,-36 224,-36 224,-30 230,-24 236,-24"/>
<text text-anchor="middle" x="272.5" y="-64.8" font-family="Helvetica,sans-Serif" font-weight="bold" font-size="9.00">mymachine</text>
</g>
<g id="clust10" class="cluster">
<title>cluster_src/serveraddressspace</title>
<path fill="#ffffff" stroke="black" stroke-width="2" d="M218,-740C218,-740 505,-740 505,-740 511,-740 517,-746 517,-752 517,-752 517,-780 517,-780 517,-786 511,-792 505,-792 505,-792 218,-792 218,-792 212,-792 206,-786 206,-780 206,-780 206,-752 206,-752 206,-746 212,-740 218,-740"/>
<text text-anchor="middle" x="361.5" y="-780.8" font-family="Helvetica,sans-Serif" font-weight="bold" font-size="9.00">serveraddressspace</text>
</g>
<g id="clust11" class="cluster">
<title>cluster_src/test</title>
<path fill="#ffffff" stroke="black" stroke-width="2" d="M28,-850C28,-850 74,-850 74,-850 80,-850 86,-856 86,-862 86,-862 86,-890 86,-890 86,-896 80,-902 74,-902 74,-902 28,-902 28,-902 22,-902 16,-896 16,-890 16,-890 16,-862 16,-862 16,-856 22,-850 28,-850"/>
<text text-anchor="middle" x="51" y="-890.8" font-family="Helvetica,sans-Serif" font-weight="bold" font-size="9.00">test</text>
</g>
<g id="clust12" class="cluster">
<title>cluster_src/utils</title>
<path fill="#ffffff" stroke="black" stroke-width="2" d="M409,-800C409,-800 462,-800 462,-800 468,-800 474,-806 474,-812 474,-812 474,-870 474,-870 474,-876 468,-882 462,-882 462,-882 409,-882 409,-882 403,-882 397,-876 397,-870 397,-870 397,-812 397,-812 397,-806 403,-800 409,-800"/>
<text text-anchor="middle" x="435.5" y="-870.8" font-family="Helvetica,sans-Serif" font-weight="bold" font-size="9.00">utils</text>
</g>
<!-- src/LocalDiscoveryServer/local&#45;discovery&#45;server.ts -->
<g id="node1" class="node">
<title>src/LocalDiscoveryServer/local&#45;discovery&#45;server.ts</title>
<g id="a_node1"><a xlink:href="src/LocalDiscoveryServer/local-discovery-server.ts" xlink:title="local&#45;discovery&#45;server.ts">
<path fill="#ddfeff" stroke="black" d="M328.5,-894C328.5,-894 216.5,-894 216.5,-894 213.5,-894 210.5,-891 210.5,-888 210.5,-888 210.5,-882 210.5,-882 210.5,-879 213.5,-876 216.5,-876 216.5,-876 328.5,-876 328.5,-876 331.5,-876 334.5,-879 334.5,-882 334.5,-882 334.5,-888 334.5,-888 334.5,-891 331.5,-894 328.5,-894"/>
<text text-anchor="start" x="218.5" y="-882.8" font-family="Helvetica,sans-Serif" font-size="9.00">local&#45;discovery&#45;server.ts</text>
</a>
</g>
</g>
<!-- src/utils/log.ts -->
<g id="node2" class="node">
<title>src/utils/log.ts</title>
<g id="a_node2"><a xlink:href="src/utils/log.ts" xlink:title="log.ts">
<path fill="#ddfeff" stroke="black" d="M456.5,-856C456.5,-856 414.5,-856 414.5,-856 411.5,-856 408.5,-853 408.5,-850 408.5,-850 408.5,-844 408.5,-844 408.5,-841 411.5,-838 414.5,-838 414.5,-838 456.5,-838 456.5,-838 459.5,-838 462.5,-841 462.5,-844 462.5,-844 462.5,-850 462.5,-850 462.5,-853 459.5,-856 456.5,-856"/>
<text text-anchor="start" x="423" y="-844.8" font-family="Helvetica,sans-Serif" font-size="9.00">log.ts</text>
</a>
</g>
</g>
<!-- src/LocalDiscoveryServer/local&#45;discovery&#45;server.ts&#45;&gt;src/utils/log.ts -->
<g id="edge1" class="edge">
<title>src/LocalDiscoveryServer/local&#45;discovery&#45;server.ts&#45;&gt;src/utils/log.ts</title>
<path fill="none" stroke="#000000" stroke-width="2" stroke-opacity="0.200000" d="M334.77,-876.03C341.29,-874.8 347.8,-873.46 354,-872 370.21,-868.2 387.9,-862.84 402.57,-858.05"/>
<polygon fill="#000000" fill-opacity="0.200000" stroke="#000000" stroke-width="2" stroke-opacity="0.200000" points="403.61,-859.92 408.65,-856.05 402.3,-855.93 403.61,-859.92"/>
</g>
<!-- src/addressspace.ts -->
<g id="node3" class="node">
<title>src/addressspace.ts</title>
<g id="a_node3"><a xlink:href="src/addressspace.ts" xlink:title="addressspace.ts">
<path fill="#ddfeff" stroke="black" d="M177,-455C177,-455 100,-455 100,-455 97,-455 94,-452 94,-449 94,-449 94,-443 94,-443 94,-440 97,-437 100,-437 100,-437 177,-437 177,-437 180,-437 183,-440 183,-443 183,-443 183,-449 183,-449 183,-452 180,-455 177,-455"/>
<text text-anchor="start" x="102" y="-443.8" font-family="Helvetica,sans-Serif" font-size="9.00">addressspace.ts</text>
</a>
</g>
</g>
<!-- src/addressspace.ts&#45;&gt;src/utils/log.ts -->
<g id="edge20" class="edge">
<title>src/addressspace.ts&#45;&gt;src/utils/log.ts</title>
<path fill="none" stroke="#000000" stroke-width="2" stroke-opacity="0.200000" d="M139.4,-455.21C139.08,-505.53 140.22,-746.63 191,-795 217.35,-820.1 325.08,-788.91 354,-811 361.94,-817.06 354.4,-825.52 362,-832 373.03,-841.39 388.41,-845.42 402.16,-846.99"/>
<polygon fill="#000000" fill-opacity="0.200000" stroke="#000000" stroke-width="2" stroke-opacity="0.200000" points="402.18,-849.1 408.34,-847.55 402.56,-844.92 402.18,-849.1"/>
</g>
<!-- src/machines/LaserSystem/LaserSystem.ts -->
<g id="node4" class="node">
<title>src/machines/LaserSystem/LaserSystem.ts</title>
<g id="a_node4"><a xlink:href="src/machines/LaserSystem/LaserSystem.ts" xlink:title="LaserSystem.ts">
<path fill="#ddfeff" stroke="black" d="M309.5,-680C309.5,-680 235.5,-680 235.5,-680 232.5,-680 229.5,-677 229.5,-674 229.5,-674 229.5,-668 229.5,-668 229.5,-665 232.5,-662 235.5,-662 235.5,-662 309.5,-662 309.5,-662 312.5,-662 315.5,-665 315.5,-668 315.5,-668 315.5,-674 315.5,-674 315.5,-677 312.5,-680 309.5,-680"/>
<text text-anchor="start" x="237.5" y="-668.8" font-family="Helvetica,sans-Serif" font-size="9.00">LaserSystem.ts</text>
</a>
</g>
</g>
<!-- src/addressspace.ts&#45;&gt;src/machines/LaserSystem/LaserSystem.ts -->
<g id="edge2" class="edge">
<title>src/addressspace.ts&#45;&gt;src/machines/LaserSystem/LaserSystem.ts</title>
<path fill="none" stroke="#000000" stroke-width="2" stroke-opacity="0.200000" d="M140.61,-455.22C145.09,-491.05 162.98,-620.46 191,-649 199.64,-657.8 211.42,-663.17 223.31,-666.44"/>
<polygon fill="#000000" fill-opacity="0.200000" stroke="#000000" stroke-width="2" stroke-opacity="0.200000" points="222.82,-668.48 229.14,-667.87 223.82,-664.4 222.82,-668.48"/>
</g>
<!-- src/machines/machinetool/brownfieldmachinetool.ts -->
<g id="node5" class="node">
<title>src/machines/machinetool/brownfieldmachinetool.ts</title>
<g id="a_node5"><a xlink:href="src/machines/machinetool/brownfieldmachinetool.ts" xlink:title="brownfieldmachinetool.ts">
<path fill="#ddfeff" stroke="black" d="M332,-230C332,-230 213,-230 213,-230 210,-230 207,-227 207,-224 207,-224 207,-218 207,-218 207,-215 210,-212 213,-212 213,-212 332,-212 332,-212 335,-212 338,-215 338,-218 338,-218 338,-224 338,-224 338,-227 335,-230 332,-230"/>
<text text-anchor="start" x="215" y="-218.8" font-family="Helvetica,sans-Serif" font-size="9.00">brownfieldmachinetool.ts</text>
</a>
</g>
</g>
<!-- src/addressspace.ts&#45;&gt;src/machines/machinetool/brownfieldmachinetool.ts -->
<g id="edge3" class="edge">
<title>src/addressspace.ts&#45;&gt;src/machines/machinetool/brownfieldmachinetool.ts</title>
<path fill="none" stroke="#000000" stroke-width="2" stroke-opacity="0.200000" d="M139.54,-436.73C140.15,-407.46 145.77,-315.74 191,-261 201.88,-247.83 218.18,-238.61 233.27,-232.37"/>
<polygon fill="#000000" fill-opacity="0.200000" stroke="#000000" stroke-width="2" stroke-opacity="0.200000" points="234.38,-234.19 239.2,-230.04 232.84,-230.28 234.38,-234.19"/>
</g>
<!-- src/machines/machinetool/machinetool&#45;example.ts -->
<g id="node6" class="node">
<title>src/machines/machinetool/machinetool&#45;example.ts</title>
<g id="a_node6"><a xlink:href="src/machines/machinetool/machinetool-example.ts" xlink:title="machinetool&#45;example.ts">
<path fill="#ddfeff" stroke="black" d="M329,-200C329,-200 216,-200 216,-200 213,-200 210,-197 210,-194 210,-194 210,-188 210,-188 210,-185 213,-182 216,-182 216,-182 329,-182 329,-182 332,-182 335,-185 335,-188 335,-188 335,-194 335,-194 335,-197 332,-200 329,-200"/>
<text text-anchor="start" x="218" y="-188.8" font-family="Helvetica,sans-Serif" font-size="9.00">machinetool&#45;example.ts</text>
</a>
</g>
</g>
<!-- src/addressspace.ts&#45;&gt;src/machines/machinetool/machinetool&#45;example.ts -->
<g id="edge4" class="edge">
<title>src/addressspace.ts&#45;&gt;src/machines/machinetool/machinetool&#45;example.ts</title>
<path fill="none" stroke="#000000" stroke-width="2" stroke-opacity="0.200000" d="M140.13,-436.98C143.08,-397.36 156.87,-239.21 191,-206 194.81,-202.29 199.22,-199.35 203.98,-197.03"/>
<polygon fill="#000000" fill-opacity="0.200000" stroke="#000000" stroke-width="2" stroke-opacity="0.200000" points="205.02,-198.87 209.71,-194.57 203.36,-195 205.02,-198.87"/>
</g>
<!-- src/machines/machinetool/showcasemachinetool.ts -->
<g id="node7" class="node">
<title>src/machines/machinetool/showcasemachinetool.ts</title>
<g id="a_node7"><a xlink:href="src/machines/machinetool/showcasemachinetool.ts" xlink:title="showcasemachinetool.ts">
<path fill="#ddfeff" stroke="black" d="M330,-170C330,-170 215,-170 215,-170 212,-170 209,-167 209,-164 209,-164 209,-158 209,-158 209,-155 212,-152 215,-152 215,-152 330,-152 330,-152 333,-152 336,-155 336,-158 336,-158 336,-164 336,-164 336,-167 333,-170 330,-170"/>
<text text-anchor="start" x="217" y="-158.8" font-family="Helvetica,sans-Serif" font-size="9.00">showcasemachinetool.ts</text>
</a>
</g>
</g>
<!-- src/addressspace.ts&#45;&gt;src/machines/machinetool/showcasemachinetool.ts -->
<g id="edge5" class="edge">
<title>src/addressspace.ts&#45;&gt;src/machines/machinetool/showcasemachinetool.ts</title>
<path fill="none" stroke="#000000" stroke-width="2" stroke-opacity="0.200000" d="M139.91,-436.75C142,-393.74 152.96,-213.88 191,-176 194.54,-172.47 198.63,-169.63 203.04,-167.36"/>
<polygon fill="#000000" fill-opacity="0.200000" stroke="#000000" stroke-width="2" stroke-opacity="0.200000" points="204.19,-169.14 208.8,-164.76 202.46,-165.31 204.19,-169.14"/>
</g>
<!-- src/machines/motiondevicesystem/motiondevicesystem.ts -->
<g id="node8" class="node">
<title>src/machines/motiondevicesystem/motiondevicesystem.ts</title>
<g id="a_node8"><a xlink:href="src/machines/motiondevicesystem/motiondevicesystem.ts" xlink:title="motiondevicesystem.ts">
<path fill="#ddfeff" stroke="black" d="M327,-110C327,-110 218,-110 218,-110 215,-110 212,-107 212,-104 212,-104 212,-98 212,-98 212,-95 215,-92 218,-92 218,-92 327,-92 327,-92 330,-92 333,-95 333,-98 333,-98 333,-104 333,-104 333,-107 330,-110 327,-110"/>
<text text-anchor="start" x="220" y="-98.8" font-family="Helvetica,sans-Serif" font-size="9.00">motiondevicesystem.ts</text>
</a>
</g>
</g>
<!-- src/addressspace.ts&#45;&gt;src/machines/motiondevicesystem/motiondevicesystem.ts -->
<g id="edge6" class="edge">
<title>src/addressspace.ts&#45;&gt;src/machines/motiondevicesystem/motiondevicesystem.ts</title>
<path fill="none" stroke="#000000" stroke-width="2" stroke-opacity="0.200000" d="M139.95,-436.73C142.33,-391.01 154.76,-189.84 191,-141 200.85,-127.72 216.34,-118.59 231.1,-112.43"/>
<polygon fill="#000000" fill-opacity="0.200000" stroke="#000000" stroke-width="2" stroke-opacity="0.200000" points="232.12,-114.29 236.93,-110.14 230.58,-110.38 232.12,-114.29"/>
</g>
<!-- src/machines/mymachine/mymachine.ts -->
<g id="node9" class="node">
<title>src/machines/mymachine/mymachine.ts</title>
<g id="a_node9"><a xlink:href="src/machines/mymachine/mymachine.ts" xlink:title="mymachine.ts">
<path fill="#ddfeff" stroke="black" d="M307,-50C307,-50 238,-50 238,-50 235,-50 232,-47 232,-44 232,-44 232,-38 232,-38 232,-35 235,-32 238,-32 238,-32 307,-32 307,-32 310,-32 313,-35 313,-38 313,-38 313,-44 313,-44 313,-47 310,-50 307,-50"/>
<text text-anchor="start" x="240" y="-38.8" font-family="Helvetica,sans-Serif" font-size="9.00">mymachine.ts</text>
</a>
</g>
</g>
<!-- src/addressspace.ts&#45;&gt;src/machines/mymachine/mymachine.ts -->
<g id="edge7" class="edge">
<title>src/addressspace.ts&#45;&gt;src/machines/mymachine/mymachine.ts</title>
<path fill="none" stroke="#000000" stroke-width="2" stroke-opacity="0.200000" d="M139.66,-436.99C140.72,-386.67 148.04,-140.56 191,-81 200.67,-67.59 216.12,-58.43 230.92,-52.3"/>
<polygon fill="#000000" fill-opacity="0.200000" stroke="#000000" stroke-width="2" stroke-opacity="0.200000" points="231.93,-54.15 236.76,-50.01 230.4,-50.24 231.93,-54.15"/>
</g>
<!-- src/machines/PlasticsRubber/40077.ts -->
<g id="node10" class="node">
<title>src/machines/PlasticsRubber/40077.ts</title>
<g id="a_node10"><a xlink:href="src/machines/PlasticsRubber/40077.ts" xlink:title="40077.ts">
<path fill="#ddfeff" stroke="black" d="M295.5,-620C295.5,-620 249.5,-620 249.5,-620 246.5,-620 243.5,-617 243.5,-614 243.5,-614 243.5,-608 243.5,-608 243.5,-605 246.5,-602 249.5,-602 249.5,-602 295.5,-602 295.5,-602 298.5,-602 301.5,-605 301.5,-608 301.5,-608 301.5,-614 301.5,-614 301.5,-617 298.5,-620 295.5,-620"/>
<text text-anchor="start" x="251.5" y="-608.8" font-family="Helvetica,sans-Serif" font-size="9.00">40077.ts</text>
</a>
</g>
</g>
<!-- src/addressspace.ts&#45;&gt;src/machines/PlasticsRubber/40077.ts -->
<g id="edge8" class="edge">
<title>src/addressspace.ts&#45;&gt;src/machines/PlasticsRubber/40077.ts</title>
<path fill="none" stroke="#000000" stroke-width="2" stroke-opacity="0.200000" d="M139.65,-455.13C140.62,-481.48 147.23,-558.22 191,-596 203.54,-606.83 221.34,-610.9 237.02,-612.13"/>
<polygon fill="#000000" fill-opacity="0.200000" stroke="#000000" stroke-width="2" stroke-opacity="0.200000" points="237.02,-614.24 243.13,-612.48 237.26,-610.04 237.02,-614.24"/>
</g>
<!-- src/machines/PlasticsRubber/40079.ts -->
<g id="node11" class="node">
<title>src/machines/PlasticsRubber/40079.ts</title>
<g id="a_node11"><a xlink:href="src/machines/PlasticsRubber/40079.ts" xlink:title="40079.ts">
<path fill="#ddfeff" stroke="black" d="M295.5,-590C295.5,-590 249.5,-590 249.5,-590 246.5,-590 243.5,-587 243.5,-584 243.5,-584 243.5,-578 243.5,-578 243.5,-575 246.5,-572 249.5,-572 249.5,-572 295.5,-572 295.5,-572 298.5,-572 301.5,-575 301.5,-578 301.5,-578 301.5,-584 301.5,-584 301.5,-587 298.5,-590 295.5,-590"/>
<text text-anchor="start" x="251.5" y="-578.8" font-family="Helvetica,sans-Serif" font-size="9.00">40079.ts</text>
</a>
</g>
</g>
<!-- src/addressspace.ts&#45;&gt;src/machines/PlasticsRubber/40079.ts -->
<g id="edge9" class="edge">
<title>src/addressspace.ts&#45;&gt;src/machines/PlasticsRubber/40079.ts</title>
<path fill="none" stroke="#000000" stroke-width="2" stroke-opacity="0.200000" d="M140.54,-455.27C143.63,-478.06 154.89,-537.11 191,-566 203.94,-576.35 221.77,-580.39 237.37,-581.71"/>
<polygon fill="#000000" fill-opacity="0.200000" stroke="#000000" stroke-width="2" stroke-opacity="0.200000" points="237.33,-583.81 243.45,-582.1 237.6,-579.62 237.33,-583.81"/>
</g>
<!-- src/machines/PlasticsRubber/40082&#45;1.ts -->
<g id="node12" class="node">
<title>src/machines/PlasticsRubber/40082&#45;1.ts</title>
<g id="a_node12"><a xlink:href="src/machines/PlasticsRubber/40082-1.ts" xlink:title="40082&#45;1.ts">
<path fill="#ddfeff" stroke="black" d="M300,-560C300,-560 245,-560 245,-560 242,-560 239,-557 239,-554 239,-554 239,-548 239,-548 239,-545 242,-542 245,-542 245,-542 300,-542 300,-542 303,-542 306,-545 306,-548 306,-548 306,-554 306,-554 306,-557 303,-560 300,-560"/>
<text text-anchor="start" x="247" y="-548.8" font-family="Helvetica,sans-Serif" font-size="9.00">40082&#45;1.ts</text>
</a>
</g>
</g>
<!-- src/addressspace.ts&#45;&gt;src/machines/PlasticsRubber/40082&#45;1.ts -->
<g id="edge10" class="edge">
<title>src/addressspace.ts&#45;&gt;src/machines/PlasticsRubber/40082&#45;1.ts</title>
<path fill="none" stroke="#000000" stroke-width="2" stroke-opacity="0.200000" d="M141.92,-455.15C147.33,-473.67 162.23,-515.57 191,-536 203.07,-544.57 218.64,-548.65 232.86,-550.48"/>
<polygon fill="#000000" fill-opacity="0.200000" stroke="#000000" stroke-width="2" stroke-opacity="0.200000" points="232.67,-552.57 238.86,-551.13 233.12,-548.39 232.67,-552.57"/>
</g>
<!-- src/machines/PlasticsRubber/40082&#45;2.ts -->
<g id="node13" class="node">
<title>src/machines/PlasticsRubber/40082&#45;2.ts</title>
<g id="a_node13"><a xlink:href="src/machines/PlasticsRubber/40082-2.ts" xlink:title="40082&#45;2.ts">
<path fill="#ddfeff" stroke="black" d="M300,-530C300,-530 245,-530 245,-530 242,-530 239,-527 239,-524 239,-524 239,-518 239,-518 239,-515 242,-512 245,-512 245,-512 300,-512 300,-512 303,-512 306,-515 306,-518 306,-518 306,-524 306,-524 306,-527 303,-530 300,-530"/>
<text text-anchor="start" x="247" y="-518.8" font-family="Helvetica,sans-Serif" font-size="9.00">40082&#45;2.ts</text>
</a>
</g>
</g>
<!-- src/addressspace.ts&#45;&gt;src/machines/PlasticsRubber/40082&#45;2.ts -->
<g id="edge11" class="edge">
<title>src/addressspace.ts&#45;&gt;src/machines/PlasticsRubber/40082&#45;2.ts</title>
<path fill="none" stroke="#000000" stroke-width="2" stroke-opacity="0.200000" d="M144.5,-455.01C152.46,-468.46 169.35,-493.52 191,-506 203.5,-513.2 218.73,-517.05 232.57,-519.08"/>
<polygon fill="#000000" fill-opacity="0.200000" stroke="#000000" stroke-width="2" stroke-opacity="0.200000" points="232.6,-521.2 238.82,-519.88 233.14,-517.03 232.6,-521.2"/>
</g>
<!-- src/machines/PlasticsRubber/40082&#45;3.ts -->
<g id="node14" class="node">
<title>src/machines/PlasticsRubber/40082&#45;3.ts</title>
<g id="a_node14"><a xlink:href="src/machines/PlasticsRubber/40082-3.ts" xlink:title="40082&#45;3.ts">
<path fill="#ddfeff" stroke="black" d="M300,-500C300,-500 245,-500 245,-500 242,-500 239,-497 239,-494 239,-494 239,-488 239,-488 239,-485 242,-482 245,-482 245,-482 300,-482 300,-482 303,-482 306,-485 306,-488 306,-488 306,-494 306,-494 306,-497 303,-500 300,-500"/>
<text text-anchor="start" x="247" y="-488.8" font-family="Helvetica,sans-Serif" font-size="9.00">40082&#45;3.ts</text>
</a>
</g>
</g>
<!-- src/addressspace.ts&#45;&gt;src/machines/PlasticsRubber/40082&#45;3.ts -->
<g id="edge12" class="edge">
<title>src/addressspace.ts&#45;&gt;src/machines/PlasticsRubber/40082&#45;3.ts</title>
<path fill="none" stroke="#000000" stroke-width="2" stroke-opacity="0.200000" d="M152.43,-455.22C162.48,-461.97 177.03,-470.81 191,-476 204.17,-480.9 219.18,-484.25 232.63,-486.52"/>
<polygon fill="#000000" fill-opacity="0.200000" stroke="#000000" stroke-width="2" stroke-opacity="0.200000" points="232.44,-488.61 238.69,-487.49 233.1,-484.47 232.44,-488.61"/>
</g>
<!-- src/machines/PlasticsRubber/40084&#45;11.ts -->
<g id="node15" class="node">
<title>src/machines/PlasticsRubber/40084&#45;11.ts</title>
<g id="a_node15"><a xlink:href="src/machines/PlasticsRubber/40084-11.ts" xlink:title="40084&#45;11.ts">
<path fill="#ddfeff" stroke="black" d="M303,-470C303,-470 242,-470 242,-470 239,-470 236,-467 236,-464 236,-464 236,-458 236,-458 236,-455 239,-452 242,-452 242,-452 303,-452 303,-452 306,-452 309,-455 309,-458 309,-458 309,-464 309,-464 309,-467 306,-470 303,-470"/>
<text text-anchor="start" x="244" y="-458.8" font-family="Helvetica,sans-Serif" font-size="9.00">40084&#45;11.ts</text>
</a>
</g>
</g>
<!-- src/addressspace.ts&#45;&gt;src/machines/PlasticsRubber/40084&#45;11.ts -->
<g id="edge13" class="edge">
<title>src/addressspace.ts&#45;&gt;src/machines/PlasticsRubber/40084&#45;11.ts</title>
<path fill="none" stroke="#000000" stroke-width="2" stroke-opacity="0.200000" d="M183.09,-450.95C198.07,-452.66 214.8,-454.56 229.64,-456.24"/>
<polygon fill="#000000" fill-opacity="0.200000" stroke="#000000" stroke-width="2" stroke-opacity="0.200000" points="229.68,-458.36 235.87,-456.95 230.15,-454.19 229.68,-458.36"/>
</g>
<!-- src/machines/PlasticsRubber/40084&#45;3.ts -->
<g id="node16" class="node">
<title>src/machines/PlasticsRubber/40084&#45;3.ts</title>
<g id="a_node16"><a xlink:href="src/machines/PlasticsRubber/40084-3.ts" xlink:title="40084&#45;3.ts">
<path fill="#ddfeff" stroke="black" d="M300,-440C300,-440 245,-440 245,-440 242,-440 239,-437 239,-434 239,-434 239,-428 239,-428 239,-425 242,-422 245,-422 245,-422 300,-422 300,-422 303,-422 306,-425 306,-428 306,-428 306,-434 306,-434 306,-437 303,-440 300,-440"/>
<text text-anchor="start" x="247" y="-428.8" font-family="Helvetica,sans-Serif" font-size="9.00">40084&#45;3.ts</text>
</a>
</g>
</g>
<!-- src/addressspace.ts&#45;&gt;src/machines/PlasticsRubber/40084&#45;3.ts -->
<g id="edge14" class="edge">
<title>src/addressspace.ts&#45;&gt;src/machines/PlasticsRubber/40084&#45;3.ts</title>
<path fill="none" stroke="#000000" stroke-width="2" stroke-opacity="0.200000" d="M183.09,-441.05C199.13,-439.22 217.18,-437.17 232.77,-435.4"/>
<polygon fill="#000000" fill-opacity="0.200000" stroke="#000000" stroke-width="2" stroke-opacity="0.200000" points="233.11,-437.48 238.83,-434.71 232.63,-433.3 233.11,-437.48"/>
</g>
<!-- src/machines/PlasticsRubber/40084&#45;9.ts -->
<g id="node17" class="node">
<title>src/machines/PlasticsRubber/40084&#45;9.ts</title>
<g id="a_node17"><a xlink:href="src/machines/PlasticsRubber/40084-9.ts" xlink:title="40084&#45;9.ts">
<path fill="#ddfeff" stroke="black" d="M300,-410C300,-410 245,-410 245,-410 242,-410 239,-407 239,-404 239,-404 239,-398 239,-398 239,-395 242,-392 245,-392 245,-392 300,-392 300,-392 303,-392 306,-395 306,-398 306,-398 306,-404 306,-404 306,-407 303,-410 300,-410"/>
<text text-anchor="start" x="247" y="-398.8" font-family="Helvetica,sans-Serif" font-size="9.00">40084&#45;9.ts</text>
</a>
</g>
</g>
<!-- src/addressspace.ts&#45;&gt;src/machines/PlasticsRubber/40084&#45;9.ts -->
<g id="edge15" class="edge">
<title>src/addressspace.ts&#45;&gt;src/machines/PlasticsRubber/40084&#45;9.ts</title>
<path fill="none" stroke="#000000" stroke-width="2" stroke-opacity="0.200000" d="M152.43,-436.78C162.48,-430.03 177.03,-421.19 191,-416 204.17,-411.1 219.18,-407.75 232.63,-405.48"/>
<polygon fill="#000000" fill-opacity="0.200000" stroke="#000000" stroke-width="2" stroke-opacity="0.200000" points="233.1,-407.53 238.69,-404.51 232.44,-403.39 233.1,-407.53"/>
</g>
<!-- src/machines/PlasticsRubber/generic.ts -->
<g id="node18" class="node">
<title>src/machines/PlasticsRubber/generic.ts</title>
<g id="a_node18"><a xlink:href="src/machines/PlasticsRubber/generic.ts" xlink:title="generic.ts">
<path fill="#ddfeff" stroke="black" d="M297.5,-380C297.5,-380 247.5,-380 247.5,-380 244.5,-380 241.5,-377 241.5,-374 241.5,-374 241.5,-368 241.5,-368 241.5,-365 244.5,-362 247.5,-362 247.5,-362 297.5,-362 297.5,-362 300.5,-362 303.5,-365 303.5,-368 303.5,-368 303.5,-374 303.5,-374 303.5,-377 300.5,-380 297.5,-380"/>
<text text-anchor="start" x="249.5" y="-368.8" font-family="Helvetica,sans-Serif" font-size="9.00">generic.ts</text>
</a>
</g>
</g>
<!-- src/addressspace.ts&#45;&gt;src/machines/PlasticsRubber/generic.ts -->
<g id="edge16" class="edge">
<title>src/addressspace.ts&#45;&gt;src/machines/PlasticsRubber/generic.ts</title>
<path fill="none" stroke="#000000" stroke-width="2" stroke-opacity="0.200000" d="M144.5,-436.99C152.46,-423.54 169.35,-398.48 191,-386 204.26,-378.36 220.59,-374.49 235.08,-372.58"/>
<polygon fill="#000000" fill-opacity="0.200000" stroke="#000000" stroke-width="2" stroke-opacity="0.200000" points="235.44,-374.65 241.16,-371.87 234.96,-370.48 235.44,-374.65"/>
</g>
<!-- src/machines/WoodWorking/ww_basic.ts -->
<g id="node19" class="node">
<title>src/machines/WoodWorking/ww_basic.ts</title>
<g id="a_node19"><a xlink:href="src/machines/WoodWorking/ww_basic.ts" xlink:title="ww_basic.ts">
<path fill="#ddfeff" stroke="black" d="M302,-320C302,-320 243,-320 243,-320 240,-320 237,-317 237,-314 237,-314 237,-308 237,-308 237,-305 240,-302 243,-302 243,-302 302,-302 302,-302 305,-302 308,-305 308,-308 308,-308 308,-314 308,-314 308,-317 305,-320 302,-320"/>
<text text-anchor="start" x="245" y="-308.8" font-family="Helvetica,sans-Serif" font-size="9.00">ww_basic.ts</text>
</a>
</g>
</g>
<!-- src/addressspace.ts&#45;&gt;src/machines/WoodWorking/ww_basic.ts -->
<g id="edge17" class="edge">
<title>src/addressspace.ts&#45;&gt;src/machines/WoodWorking/ww_basic.ts</title>
<path fill="none" stroke="#000000" stroke-width="2" stroke-opacity="0.200000" d="M142.3,-437C148.41,-418.66 164.54,-376.53 191,-351 204.1,-338.36 221.98,-328.93 237.56,-322.41"/>
<polygon fill="#000000" fill-opacity="0.200000" stroke="#000000" stroke-width="2" stroke-opacity="0.200000" points="238.41,-324.34 243.19,-320.14 236.84,-320.44 238.41,-324.34"/>
</g>
<!-- src/machines/WoodWorking/ww_full.ts -->
<g id="node20" class="node">
<title>src/machines/WoodWorking/ww_full.ts</title>
<g id="a_node20"><a xlink:href="src/machines/WoodWorking/ww_full.ts" xlink:title="ww_full.ts">
<path fill="#ddfeff" stroke="black" d="M297,-290C297,-290 248,-290 248,-290 245,-290 242,-287 242,-284 242,-284 242,-278 242,-278 242,-275 245,-272 248,-272 248,-272 297,-272 297,-272 300,-272 303,-275 303,-278 303,-278 303,-284 303,-284 303,-287 300,-290 297,-290"/>
<text text-anchor="start" x="250" y="-278.8" font-family="Helvetica,sans-Serif" font-size="9.00">ww_full.ts</text>
</a>
</g>
</g>
<!-- src/addressspace.ts&#45;&gt;src/machines/WoodWorking/ww_full.ts -->
<g id="edge18" class="edge">
<title>src/addressspace.ts&#45;&gt;src/machines/WoodWorking/ww_full.ts</title>
<path fill="none" stroke="#000000" stroke-width="2" stroke-opacity="0.200000" d="M139.65,-436.87C140.62,-410.52 147.23,-333.78 191,-296 203.26,-285.42 220.54,-281.29 235.95,-279.95"/>
<polygon fill="#000000" fill-opacity="0.200000" stroke="#000000" stroke-width="2" stroke-opacity="0.200000" points="236.12,-282.05 241.97,-279.56 235.85,-277.86 236.12,-282.05"/>
</g>
<!-- src/serveraddressspace/serveraddressspace.ts -->
<g id="node21" class="node">
<title>src/serveraddressspace/serveraddressspace.ts</title>
<g id="a_node21"><a xlink:href="src/serveraddressspace/serveraddressspace.ts" xlink:title="serveraddressspace.ts">
<path fill="#ddfeff" stroke="black" d="M325,-766C325,-766 220,-766 220,-766 217,-766 214,-763 214,-760 214,-760 214,-754 214,-754 214,-751 217,-748 220,-748 220,-748 325,-748 325,-748 328,-748 331,-751 331,-754 331,-754 331,-760 331,-760 331,-763 328,-766 325,-766"/>
<text text-anchor="start" x="222" y="-754.8" font-family="Helvetica,sans-Serif" font-size="9.00">serveraddressspace.ts</text>
</a>
</g>
</g>
<!-- src/addressspace.ts&#45;&gt;src/serveraddressspace/serveraddressspace.ts -->
<g id="edge19" class="edge">
<title>src/addressspace.ts&#45;&gt;src/serveraddressspace/serveraddressspace.ts</title>
<path fill="none" stroke="#000000" stroke-width="2" stroke-opacity="0.200000" d="M140.28,-455.03C144,-496.23 160.94,-666.29 191,-709 202.78,-725.74 222.42,-737.61 239.35,-745.37"/>
<polygon fill="#000000" fill-opacity="0.200000" stroke="#000000" stroke-width="2" stroke-opacity="0.200000" points="238.63,-747.35 244.97,-747.84 240.32,-743.5 238.63,-747.35"/>
</g>
<!-- src/permissiongroups.ts -->
<g id="node24" class="node">
<title>src/permissiongroups.ts</title>
<g id="a_node24"><a xlink:href="src/permissiongroups.ts" xlink:title="permissiongroups.ts">
<path fill="#ddfeff" stroke="black" d="M483.5,-391C483.5,-391 387.5,-391 387.5,-391 384.5,-391 381.5,-388 381.5,-385 381.5,-385 381.5,-379 381.5,-379 381.5,-376 384.5,-373 387.5,-373 387.5,-373 483.5,-373 483.5,-373 486.5,-373 489.5,-376 489.5,-379 489.5,-379 489.5,-385 489.5,-385 489.5,-388 486.5,-391 483.5,-391"/>
<text text-anchor="start" x="389.5" y="-379.8" font-family="Helvetica,sans-Serif" font-size="9.00">permissiongroups.ts</text>
</a>
</g>
</g>
<!-- src/machines/mymachine/mymachine.ts&#45;&gt;src/permissiongroups.ts -->
<g id="edge23" class="edge">
<title>src/machines/mymachine/mymachine.ts&#45;&gt;src/permissiongroups.ts</title>
<path fill="none" stroke="#000000" stroke-width="2" stroke-opacity="0.200000" d="M306.27,-50.14C322.79,-56.33 341.85,-66.14 354,-81 426.93,-170.19 434.23,-319.31 434.62,-366.91"/>
<polygon fill="#000000" fill-opacity="0.200000" stroke="#000000" stroke-width="2" stroke-opacity="0.200000" points="432.52,-366.95 434.64,-372.94 436.72,-366.93 432.52,-366.95"/>
</g>
<!-- src/serveraddressspace/serveraddressspace.ts&#45;&gt;src/permissiongroups.ts -->
<g id="edge28" class="edge">
<title>src/serveraddressspace/serveraddressspace.ts&#45;&gt;src/permissiongroups.ts</title>
<path fill="none" stroke="#000000" stroke-width="2" stroke-opacity="0.200000" d="M298.99,-747.97C316.99,-740.31 340.25,-727.57 354,-709 428.57,-608.26 434.7,-446.93 434.72,-397.13"/>
<polygon fill="#000000" fill-opacity="0.200000" stroke="#000000" stroke-width="2" stroke-opacity="0.200000" points="436.82,-397.11 434.69,-391.12 432.62,-397.13 436.82,-397.11"/>
</g>
<!-- src/serveraddressspace/myfinitestatemachinetype.ts -->
<g id="node27" class="node">
<title>src/serveraddressspace/myfinitestatemachinetype.ts</title>
<g id="a_node27"><a xlink:href="src/serveraddressspace/myfinitestatemachinetype.ts" xlink:title="myfinitestatemachinetype.ts">
<path fill="#ddfeff" stroke="black" d="M503,-766C503,-766 368,-766 368,-766 365,-766 362,-763 362,-760 362,-760 362,-754 362,-754 362,-751 365,-748 368,-748 368,-748 503,-748 503,-748 506,-748 509,-751 509,-754 509,-754 509,-760 509,-760 509,-763 506,-766 503,-766"/>
<text text-anchor="start" x="370" y="-754.8" font-family="Helvetica,sans-Serif" font-size="9.00">myfinitestatemachinetype.ts</text>
</a>
</g>
</g>
<!-- src/serveraddressspace/serveraddressspace.ts&#45;&gt;src/serveraddressspace/myfinitestatemachinetype.ts -->
<g id="edge29" class="edge">
<title>src/serveraddressspace/serveraddressspace.ts&#45;&gt;src/serveraddressspace/myfinitestatemachinetype.ts</title>
<path fill="none" stroke="#000000" stroke-width="2" stroke-opacity="0.200000" d="M331.17,-757C339.08,-757 347.31,-757 355.52,-757"/>
<polygon fill="#000000" fill-opacity="0.200000" stroke="#000000" stroke-width="2" stroke-opacity="0.200000" points="355.78,-759.1 361.78,-757 355.78,-754.9 355.78,-759.1"/>
</g>
<!-- src/config.ts -->
<g id="node22" class="node">
<title>src/config.ts</title>
<g id="a_node22"><a xlink:href="src/config.ts" xlink:title="config.ts">
<path fill="#ddfeff" stroke="black" d="M160.5,-876C160.5,-876 116.5,-876 116.5,-876 113.5,-876 110.5,-873 110.5,-870 110.5,-870 110.5,-864 110.5,-864 110.5,-861 113.5,-858 116.5,-858 116.5,-858 160.5,-858 160.5,-858 163.5,-858 166.5,-861 166.5,-864 166.5,-864 166.5,-870 166.5,-870 166.5,-873 163.5,-876 160.5,-876"/>
<text text-anchor="start" x="118.5" y="-864.8" font-family="Helvetica,sans-Serif" font-size="9.00">config.ts</text>
</a>
</g>
</g>
<!-- src/config.ts&#45;&gt;src/utils/log.ts -->
<g id="edge22" class="edge">
<title>src/config.ts&#45;&gt;src/utils/log.ts</title>
<path fill="none" stroke="#000000" stroke-width="2" stroke-opacity="0.200000" d="M166.72,-865.15C221.22,-861.46 343.5,-853.17 402.05,-849.2"/>
<polygon fill="#000000" fill-opacity="0.200000" stroke="#000000" stroke-width="2" stroke-opacity="0.200000" points="402.35,-851.28 408.19,-848.78 402.06,-847.09 402.35,-851.28"/>
</g>
<!-- src/user.ts -->
<g id="node23" class="node">
<title>src/user.ts</title>
<g id="a_node23"><a xlink:href="src/user.ts" xlink:title="user.ts">
<path fill="#ddfeff" stroke="black" d="M293.5,-846C293.5,-846 251.5,-846 251.5,-846 248.5,-846 245.5,-843 245.5,-840 245.5,-840 245.5,-834 245.5,-834 245.5,-831 248.5,-828 251.5,-828 251.5,-828 293.5,-828 293.5,-828 296.5,-828 299.5,-831 299.5,-834 299.5,-834 299.5,-840 299.5,-840 299.5,-843 296.5,-846 293.5,-846"/>
<text text-anchor="start" x="257" y="-834.8" font-family="Helvetica,sans-Serif" font-size="9.00">user.ts</text>
</a>
</g>
</g>
<!-- src/config.ts&#45;&gt;src/user.ts -->
<g id="edge21" class="edge">
<title>src/config.ts&#45;&gt;src/user.ts</title>
<path fill="none" stroke="#000000" stroke-width="2" stroke-opacity="0.200000" d="M166.75,-860.6C174.58,-858.78 183.12,-856.8 191,-855 206.88,-851.37 224.54,-847.42 239.27,-844.14"/>
<polygon fill="#000000" fill-opacity="0.200000" stroke="#000000" stroke-width="2" stroke-opacity="0.200000" points="239.98,-846.13 245.38,-842.78 239.07,-842.03 239.98,-846.13"/>
</g>
<!-- src/user.ts&#45;&gt;src/utils/log.ts -->
<g id="edge31" class="edge">
<title>src/user.ts&#45;&gt;src/utils/log.ts</title>
<path fill="none" stroke="#000000" stroke-width="2" stroke-opacity="0.200000" d="M299.73,-838.63C327.68,-840.37 371.97,-843.12 402.08,-844.99"/>
<polygon fill="#000000" fill-opacity="0.200000" stroke="#000000" stroke-width="2" stroke-opacity="0.200000" points="402.17,-847.1 408.29,-845.37 402.43,-842.9 402.17,-847.1"/>
</g>
<!-- src/pubsub.ts -->
<g id="node25" class="node">
<title>src/pubsub.ts</title>
<g id="a_node25"><a xlink:href="src/pubsub.ts" xlink:title="pubsub.ts">
<path fill="#ddfeff" stroke="black" d="M163.5,-846C163.5,-846 113.5,-846 113.5,-846 110.5,-846 107.5,-843 107.5,-840 107.5,-840 107.5,-834 107.5,-834 107.5,-831 110.5,-828 113.5,-828 113.5,-828 163.5,-828 163.5,-828 166.5,-828 169.5,-831 169.5,-834 169.5,-834 169.5,-840 169.5,-840 169.5,-843 166.5,-846 163.5,-846"/>
<text text-anchor="start" x="115.5" y="-834.8" font-family="Helvetica,sans-Serif" font-size="9.00">pubsub.ts</text>
</a>
</g>
</g>
<!-- src/server.ts -->
<g id="node26" class="node">
<title>src/server.ts</title>
<g id="a_node26"><a xlink:href="src/server.ts" xlink:title="server.ts">
<path fill="#ddfeff" stroke="black" d="M72.5,-833C72.5,-833 29.5,-833 29.5,-833 26.5,-833 23.5,-830 23.5,-827 23.5,-827 23.5,-821 23.5,-821 23.5,-818 26.5,-815 29.5,-815 29.5,-815 72.5,-815 72.5,-815 75.5,-815 78.5,-818 78.5,-821 78.5,-821 78.5,-827 78.5,-827 78.5,-830 75.5,-833 72.5,-833"/>
<text text-anchor="start" x="31.5" y="-821.8" font-family="Helvetica,sans-Serif" font-size="9.00">server.ts</text>
</a>
</g>
</g>
<!-- src/server.ts&#45;&gt;src/utils/log.ts -->
<g id="edge27" class="edge">
<title>src/server.ts&#45;&gt;src/utils/log.ts</title>
<path fill="none" stroke="#000000" stroke-width="2" stroke-opacity="0.200000" d="M78.83,-820.87C143.44,-813.78 305.92,-798.89 354,-822 359.13,-824.47 357.15,-829.02 362,-832 374.07,-839.4 389.17,-843.21 402.46,-845.15"/>
<polygon fill="#000000" fill-opacity="0.200000" stroke="#000000" stroke-width="2" stroke-opacity="0.200000" points="402.21,-847.23 408.43,-845.91 402.74,-843.07 402.21,-847.23"/>
</g>
<!-- src/server.ts&#45;&gt;src/addressspace.ts -->
<g id="edge24" class="edge">
<title>src/server.ts&#45;&gt;src/addressspace.ts</title>
<path fill="none" stroke="#000000" stroke-width="2" stroke-opacity="0.200000" d="M54.11,-814.66C65.53,-764.2 119.81,-524.2 134.07,-461.18"/>
<polygon fill="#000000" fill-opacity="0.200000" stroke="#000000" stroke-width="2" stroke-opacity="0.200000" points="136.18,-461.33 135.46,-455.02 132.09,-460.41 136.18,-461.33"/>
</g>
<!-- src/server.ts&#45;&gt;src/config.ts -->
<g id="edge25" class="edge">
<title>src/server.ts&#45;&gt;src/config.ts</title>
<path fill="none" stroke="#000000" stroke-width="2" stroke-opacity="0.200000" d="M65.52,-833.13C77.21,-841.01 92.47,-851.24 94,-852 97.38,-853.68 101,-855.24 104.65,-856.69"/>
<polygon fill="#000000" fill-opacity="0.200000" stroke="#000000" stroke-width="2" stroke-opacity="0.200000" points="104.02,-858.7 110.37,-858.85 105.5,-854.77 104.02,-858.7"/>
</g>
<!-- src/server.ts&#45;&gt;src/pubsub.ts -->
<g id="edge26" class="edge">
<title>src/server.ts&#45;&gt;src/pubsub.ts</title>
<path fill="none" stroke="#000000" stroke-width="2" stroke-opacity="0.200000" d="M78.58,-828.04C85.71,-829.13 93.53,-830.31 101.09,-831.46"/>
<polygon fill="#000000" fill-opacity="0.200000" stroke="#000000" stroke-width="2" stroke-opacity="0.200000" points="101.1,-833.59 107.35,-832.42 101.73,-829.44 101.1,-833.59"/>
</g>
<!-- src/test/test.ts -->
<g id="node28" class="node">
<title>src/test/test.ts</title>
<g id="a_node28"><a xlink:href="src/test/test.ts" xlink:title="test.ts">
<path fill="#ddfeff" stroke="black" d="M72,-876C72,-876 30,-876 30,-876 27,-876 24,-873 24,-870 24,-870 24,-864 24,-864 24,-861 27,-858 30,-858 30,-858 72,-858 72,-858 75,-858 78,-861 78,-864 78,-864 78,-870 78,-870 78,-873 75,-876 72,-876"/>
<text text-anchor="start" x="36.5" y="-864.8" font-family="Helvetica,sans-Serif" font-size="9.00">test.ts</text>
</a>
</g>
</g>
<!-- src/test/test.ts&#45;&gt;src/config.ts -->
<g id="edge30" class="edge">
<title>src/test/test.ts&#45;&gt;src/config.ts</title>
<path fill="none" stroke="#000000" stroke-width="2" stroke-opacity="0.200000" d="M78.12,-867C86.34,-867 95.53,-867 104.18,-867"/>
<polygon fill="#000000" fill-opacity="0.200000" stroke="#000000" stroke-width="2" stroke-opacity="0.200000" points="104.36,-869.1 110.36,-867 104.36,-864.9 104.36,-869.1"/>
</g>
<!-- src/utils/userfile.ts -->
<g id="node29" class="node">
<title>src/utils/userfile.ts</title>
<g id="a_node29"><a xlink:href="src/utils/userfile.ts" xlink:title="userfile.ts">
<path fill="#ccffcc" stroke="black" d="M460,-826C460,-826 411,-826 411,-826 408,-826 405,-823 405,-820 405,-820 405,-814 405,-814 405,-811 408,-808 411,-808 411,-808 460,-808 460,-808 463,-808 466,-811 466,-814 466,-814 466,-820 466,-820 466,-823 463,-826 460,-826"/>
<text text-anchor="start" x="413" y="-814.8" font-family="Helvetica,sans-Serif" font-size="9.00">userfile.ts</text>
</a>
</g>
</g>
</g>
</svg>
